<svg width="39" height="39" viewBox="0 0 39 39" fill="none" xmlns="http://www.w3.org/2000/svg">
<path d="M8.35826 16.7126C10.6627 16.7126 12.5368 14.8385 12.5368 12.534C12.5368 10.2296 10.6627 8.35547 8.35826 8.35547C6.05378 8.35547 4.17969 10.2296 4.17969 12.534C4.17969 14.8385 6.05378 16.7126 8.35826 16.7126ZM8.35826 9.74833C9.89458 9.74833 11.144 10.9977 11.144 12.534C11.144 14.0704 9.89458 15.3198 8.35826 15.3198C6.82194 15.3198 5.57254 14.0704 5.57254 12.534C5.57254 10.9977 6.82194 9.74833 8.35826 9.74833Z" fill="#3B88C3"/>
<path d="M30.6434 16.7126C32.9479 16.7126 34.822 14.8385 34.822 12.534C34.822 10.2296 32.9479 8.35547 30.6434 8.35547C28.3389 8.35547 26.4648 10.2296 26.4648 12.534C26.4648 14.8385 28.3389 16.7126 30.6434 16.7126ZM30.6434 9.74833C32.1797 9.74833 33.4291 10.9977 33.4291 12.534C33.4291 14.0704 32.1797 15.3198 30.6434 15.3198C29.1071 15.3198 27.8577 14.0704 27.8577 12.534C27.8577 10.9977 29.1071 9.74833 30.6434 9.74833Z" fill="#3B88C3"/>
<path d="M37.6071 18.1055V27.159C37.6071 28.3109 36.6698 29.2483 35.5179 29.2483V21.5876C35.5179 19.6676 33.9558 18.1055 32.0357 18.1055H28.5536C28.1691 18.1055 27.8571 18.4175 27.8571 18.8019V21.5876V22.284V22.9805H22.2857C21.9013 22.9805 21.5893 23.2925 21.5893 23.6769V25.7662H17.4107V23.6769C17.4107 23.2925 17.0987 22.9805 16.7143 22.9805H11.1429V22.284V21.5876V18.8019C11.1429 18.4175 10.8309 18.1055 10.4464 18.1055H6.96429C5.04423 18.1055 3.48214 19.6676 3.48214 21.5876V29.2483C2.33025 29.2483 1.39286 28.3109 1.39286 27.159V18.1055H0V27.159C0 28.5832 0.861482 29.8069 2.08929 30.3459V38.9983H3.48214V30.6412H4.17857H4.875H10.4464V38.3019C10.4464 38.6863 10.7584 38.9983 11.1429 38.9983H13.2321H13.9286H14.625V38.3019V27.8555V27.159H16.7143H22.2857H24.375V27.8555V38.3019V38.9983H25.0714H25.7679H27.8571C28.2416 38.9983 28.5536 38.6863 28.5536 38.3019V30.6412H34.125H34.8214H35.5179V38.9983H36.9107V30.3459C38.1385 29.8069 39 28.5832 39 27.159V18.1055H37.6071ZM13.9286 25.7662H12.5357H8.35714V21.5876H6.96429V26.4626C6.96429 26.847 7.27629 27.159 7.66071 27.159H12.5357C12.9194 27.159 13.2321 27.4717 13.2321 27.8555V37.6055H11.8393V29.9448C11.8393 29.5603 11.5273 29.2483 11.1429 29.2483H4.875V21.5876C4.875 20.4357 5.81239 19.4983 6.96429 19.4983H9.75V21.5876V22.284V23.6769C9.75 24.0613 10.062 24.3733 10.4464 24.3733H16.0179V25.7662H13.9286ZM27.8571 29.2483C27.4727 29.2483 27.1607 29.5603 27.1607 29.9448V37.6055H25.7679V27.8555C25.7679 27.4717 26.0806 27.159 26.4643 27.159H31.3393C31.7237 27.159 32.0357 26.847 32.0357 26.4626V21.5876H30.6429V25.7662H26.4643H25.0714H22.9821V24.3733H28.5536C28.938 24.3733 29.25 24.0613 29.25 23.6769V22.284V21.5876V19.4983H32.0357C33.1876 19.4983 34.125 20.4357 34.125 21.5876V29.2483H27.8571Z" fill="#3B88C3"/>
<path d="M13.2338 6.96429V9.05357C13.2338 9.35373 13.4253 9.61907 13.7102 9.71448C13.7826 9.73816 13.8571 9.75 13.9302 9.75C14.1454 9.75 14.353 9.64971 14.4874 9.47143L16.3677 6.96429H21.591C22.7429 6.96429 23.6802 6.02689 23.6802 4.875V2.08929C23.6802 0.937393 22.7429 0 21.591 0H13.2338C12.0819 0 11.1445 0.937393 11.1445 2.08929V4.875C11.1445 6.02689 12.0819 6.96429 13.2338 6.96429ZM12.5374 2.08929C12.5374 1.70555 12.8501 1.39286 13.2338 1.39286H21.591C21.9747 1.39286 22.2874 1.70555 22.2874 2.08929V4.875C22.2874 5.25873 21.9747 5.57143 21.591 5.57143H16.0195C15.8002 5.57143 15.594 5.6745 15.4624 5.85L14.6267 6.96429V6.26786C14.6267 5.88343 14.3147 5.57143 13.9302 5.57143H13.2338C12.8501 5.57143 12.5374 5.25873 12.5374 4.875V2.08929Z" fill="#3B88C3"/>
<path d="M22.9833 17.4102H18.8047V18.803H22.9833V17.4102Z" fill="#3B88C3"/>
<path d="M18.1088 14.625C16.9569 14.625 16.0195 15.5624 16.0195 16.7143V19.5C16.0195 20.6519 16.9569 21.5893 18.1088 21.5893H23.6802C24.8321 21.5893 25.7695 20.6519 25.7695 19.5V19.0146L27.0454 17.1008C27.1882 16.887 27.2014 16.6126 27.0802 16.3863C26.959 16.1592 26.7229 16.0179 26.466 16.0179H25.6504C25.3628 15.2072 24.5884 14.625 23.6802 14.625H18.1088ZM24.3767 16.7143C24.3767 17.0987 24.6887 17.4107 25.0731 17.4107H25.1643L24.4937 18.4171C24.4178 18.5313 24.3767 18.6664 24.3767 18.8036V19.5C24.3767 19.8837 24.064 20.1964 23.6802 20.1964H18.1088C17.7251 20.1964 17.4124 19.8837 17.4124 19.5V16.7143C17.4124 16.3306 17.7251 16.0179 18.1088 16.0179H23.6802C24.064 16.0179 24.3767 16.3306 24.3767 16.7143Z" fill="#3B88C3"/>
<path d="M17.4124 11.1445H16.0195V12.5374H17.4124V11.1445Z" fill="#3B88C3"/>
<path d="M20.1975 11.1445H18.8047V12.5374H20.1975V11.1445Z" fill="#3B88C3"/>
<path d="M22.9827 11.1445H21.5898V12.5374H22.9827V11.1445Z" fill="#3B88C3"/>
</svg>
