<svg width="44" height="44" viewBox="0 0 44 44" fill="none" xmlns="http://www.w3.org/2000/svg">
<path d="M25.6662 22.0009C25.6662 19.5552 29.6336 17.8832 31.7773 14.6675C34.2218 11.0009 34.2218 2.44531 34.2218 2.44531H9.77734C9.77734 2.44531 9.77734 11.0009 12.2218 14.6675C14.3656 17.8832 18.3329 19.5552 18.3329 22.0009C18.3329 24.4465 14.3656 26.1185 12.2218 29.3342C9.77734 33.0009 9.77734 41.5564 9.77734 41.5564H34.2218C34.2218 41.5564 34.2218 33.0009 31.7773 29.3342C29.6336 26.1185 25.6662 24.4465 25.6662 22.0009Z" fill="#FFE8B6"/>
<path d="M22.0004 2.44531H12.2227C12.2227 2.44531 12.2227 7.3342 13.4449 11.0009C15.0387 15.7822 20.7782 17.1108 20.7782 22.0009C20.7782 26.891 20.7782 37.8898 22.0004 37.8898C23.2227 37.8898 23.2227 26.8898 23.2227 22.0009C23.2227 17.112 28.9634 15.7822 30.556 11.0009C31.7782 7.3342 31.7782 2.44531 31.7782 2.44531H22.0004Z" fill="#FFAC33"/>
<path d="M36.6654 41.5556C36.6654 42.2039 36.4078 42.8256 35.9494 43.284C35.491 43.7425 34.8692 44 34.2209 44H9.77648C9.12817 44 8.50641 43.7425 8.04799 43.284C7.58957 42.8256 7.33203 42.2039 7.33203 41.5556C7.33203 40.9072 7.58957 40.2855 8.04799 39.8271C8.50641 39.3686 9.12817 39.1111 9.77648 39.1111H34.2209C34.8692 39.1111 35.491 39.3686 35.9494 39.8271C36.4078 40.2855 36.6654 40.9072 36.6654 41.5556ZM36.6654 2.44444C36.6654 3.09275 36.4078 3.71451 35.9494 4.17293C35.491 4.63135 34.8692 4.88889 34.2209 4.88889H9.77648C9.12817 4.88889 8.50641 4.63135 8.04799 4.17293C7.58957 3.71451 7.33203 3.09275 7.33203 2.44444C7.33203 1.79614 7.58957 1.17438 8.04799 0.715961C8.50641 0.257539 9.12817 0 9.77648 0L34.2209 0C34.8692 0 35.491 0.257539 35.9494 0.715961C36.4078 1.17438 36.6654 1.79614 36.6654 2.44444Z" fill="#3B88C3"/>
</svg>
