<svg width="44" height="44" viewBox="0 0 44 44" fill="none" xmlns="http://www.w3.org/2000/svg">
<path d="M20.1654 18.3346C24.2155 18.3346 27.4987 15.0514 27.4987 11.0013C27.4987 6.95121 24.2155 3.66797 20.1654 3.66797C16.1153 3.66797 12.832 6.95121 12.832 11.0013C12.832 15.0514 16.1153 18.3346 20.1654 18.3346Z" fill="#1C274C"/>
<path fill-rule="evenodd" clip-rule="evenodd" d="M26.6077 39.3936C27.5473 40.3333 29.0598 40.3333 32.0846 40.3333C35.1095 40.3333 36.622 40.3333 37.5615 39.3936C38.5013 38.454 38.5013 36.9415 38.5013 33.9167C38.5013 30.8918 38.5013 29.3793 37.5615 28.4398C36.622 27.5 35.1095 27.5 32.0846 27.5C29.0598 27.5 27.5473 27.5 26.6077 28.4398C25.668 29.3793 25.668 30.8918 25.668 33.9167C25.668 36.9415 25.668 38.454 26.6077 39.3936ZM30.3001 36.6236C29.0129 35.702 27.5013 34.6194 27.5013 32.743C27.5013 30.6715 30.0221 29.2022 32.0846 31.1938C34.1471 29.2022 36.668 30.6715 36.668 32.743C36.668 34.6194 35.1564 35.702 33.8692 36.6236C33.7356 36.7193 33.6041 36.8133 33.4772 36.9065C33.0013 37.255 32.543 37.5833 32.0846 37.5833C31.6263 37.5833 31.168 37.255 30.692 36.9065C30.5652 36.8133 30.4337 36.7193 30.3001 36.6236Z" fill="#1C274C"/>
<path opacity="0.5" d="M26.756 39.5312C26.7045 39.4878 26.6546 39.442 26.6064 39.3936C25.6667 38.454 25.6667 36.9415 25.6667 33.9167C25.6667 30.8919 25.6667 29.3794 26.6064 28.4398C27.546 27.5 29.0585 27.5 32.0833 27.5C32.3585 27.5 32.621 27.5 32.8718 27.5007C30.3362 25.0343 25.5959 23.375 20.1667 23.375C12.0665 23.375 5.5 27.0686 5.5 31.625C5.5 36.1814 5.5 39.875 20.1667 39.875C22.8114 39.875 24.9792 39.7549 26.756 39.5312Z" fill="#1C274C"/>
</svg>
