<svg width="49" height="49" viewBox="0 0 49 49" fill="none" xmlns="http://www.w3.org/2000/svg">
<mask id="mask0_1_49" style="mask-type:alpha" maskUnits="userSpaceOnUse" x="0" y="0" width="49" height="49">
<rect width="49" height="49" fill="#D9D9D9"/>
</mask>
<g mask="url(#mask0_1_49)">
<mask id="mask1_1_49" style="mask-type:alpha" maskUnits="userSpaceOnUse" x="18" y="15" width="12" height="12">
<rect x="18.5938" y="15.4844" width="10.623" height="10.623" fill="#D9D9D9"/>
</mask>
<g mask="url(#mask1_1_49)">
<path d="M20.1671 20.8011L23.4204 24.0544C23.531 24.1651 23.5845 24.2942 23.5808 24.4417C23.5772 24.5893 23.52 24.7184 23.4093 24.829C23.2987 24.9397 23.1696 24.995 23.022 24.995C22.8745 24.995 22.7454 24.9397 22.6347 24.829L19.2265 21.4319C19.138 21.3434 19.0716 21.2438 19.0273 21.1331C18.9831 21.0225 18.9609 20.9118 18.9609 20.8011C18.9609 20.6905 18.9831 20.5798 19.0273 20.4692C19.0716 20.3585 19.138 20.2589 19.2265 20.1704L22.6347 16.7622C22.7454 16.6515 22.8763 16.5981 23.0276 16.6017C23.1788 16.6054 23.3097 16.6626 23.4204 16.7733C23.531 16.8839 23.5864 17.013 23.5864 17.1606C23.5864 17.3081 23.531 17.4372 23.4204 17.5479L20.1671 20.8011Z" fill="#1C1B1F"/>
</g>
<mask id="mask2_1_49" style="mask-type:alpha" maskUnits="userSpaceOnUse" x="19" y="15" width="12" height="12">
<rect x="30.1016" y="26.1094" width="10.623" height="10.623" transform="rotate(180 30.1016 26.1094)" fill="#D9D9D9"/>
</mask>
<g mask="url(#mask2_1_49)">
<path d="M28.5282 20.7926L25.2749 17.5393C25.1643 17.4286 25.1108 17.2996 25.1145 17.152C25.1182 17.0045 25.1753 16.8754 25.286 16.7647C25.3966 16.6541 25.5257 16.5987 25.6733 16.5987C25.8208 16.5987 25.9499 16.6541 26.0606 16.7647L29.4688 20.1619C29.5573 20.2504 29.6237 20.35 29.668 20.4606C29.7122 20.5713 29.7344 20.6819 29.7344 20.7926C29.7344 20.9033 29.7122 21.0139 29.668 21.1246C29.6237 21.2352 29.5573 21.3348 29.4688 21.4233L26.0606 24.8316C25.9499 24.9422 25.819 24.9957 25.6678 24.992C25.5165 24.9883 25.3856 24.9311 25.2749 24.8205C25.1643 24.7098 25.1089 24.5807 25.1089 24.4332C25.1089 24.2857 25.1643 24.1566 25.2749 24.0459L28.5282 20.7926Z" fill="#1C1B1F"/>
</g>
<path d="M4.08333 40.8335C2.96042 40.8335 1.99913 40.4336 1.19948 39.634C0.399826 38.8343 0 37.873 0 36.7501H8.16667C7.04375 36.7501 6.08247 36.3503 5.28281 35.5506C4.48316 34.751 4.08333 33.7897 4.08333 32.6668V10.2085C4.08333 9.08554 4.48316 8.12425 5.28281 7.3246C6.08247 6.52495 7.04375 6.12512 8.16667 6.12512H40.8333C41.9563 6.12512 42.9175 6.52495 43.7172 7.3246C44.5168 8.12425 44.9167 9.08554 44.9167 10.2085V32.6668C44.9167 33.7897 44.5168 34.751 43.7172 35.5506C42.9175 36.3503 41.9563 36.7501 40.8333 36.7501H49C49 37.873 48.6002 38.8343 47.8005 39.634C47.0009 40.4336 46.0396 40.8335 44.9167 40.8335H4.08333ZM24.5 38.7918C25.0785 38.7918 25.5634 38.5961 25.9547 38.2048C26.346 37.8135 26.5417 37.3286 26.5417 36.7501C26.5417 36.1716 26.346 35.6868 25.9547 35.2954C25.5634 34.9041 25.0785 34.7085 24.5 34.7085C23.9215 34.7085 23.4366 34.9041 23.0453 35.2954C22.654 35.6868 22.4583 36.1716 22.4583 36.7501C22.4583 37.3286 22.654 37.8135 23.0453 38.2048C23.4366 38.5961 23.9215 38.7918 24.5 38.7918ZM8.16667 32.6668H40.8333V10.2085H8.16667V32.6668Z" fill="#1C1B1F"/>
</g>
</svg>
