<svg width="116" height="116" viewBox="0 0 116 116" fill="none" xmlns="http://www.w3.org/2000/svg">
<path d="M0 58.008H24.3295C24.3295 39.4176 39.3952 24.3494 57.9825 24.3494V0C25.965 0 0 25.9693 0 58.0041V58.008Z" fill="url(#paint0_linear_10223_19532)"/>
<path d="M115.981 57.9883H91.6511C91.6511 76.5787 76.5854 91.6469 57.998 91.6469V115.996C90.0156 115.996 115.981 90.027 115.981 57.9923V57.9883Z" fill="url(#paint1_linear_10223_19532)"/>
<mask id="mask0_10223_19532" style="mask-type:luminance" maskUnits="userSpaceOnUse" x="58" y="57" width="58" height="59">
<path d="M116 57.9883H91.6706C91.6706 76.5787 76.6049 91.6469 58.0176 91.6469V115.996C90.0351 115.996 116 90.027 116 57.9923V57.9883Z" fill="white"/>
</mask>
<g mask="url(#mask0_10223_19532)">
<path d="M103.535 68.5703H129.87" stroke="white" stroke-width="0.258025" stroke-miterlimit="10" stroke-linecap="round"/>
<path d="M58.0176 73.71H131.34" stroke="white" stroke-width="0.258025" stroke-miterlimit="10" stroke-linecap="round"/>
<path d="M58.0176 78.8506H131.34" stroke="white" stroke-width="0.258025" stroke-miterlimit="10" stroke-linecap="round"/>
<path d="M58.0176 84H131.34" stroke="white" stroke-width="0.258025" stroke-miterlimit="10" stroke-linecap="round"/>
<path d="M58.0176 89.1348H131.34" stroke="white" stroke-width="0.258025" stroke-miterlimit="10" stroke-linecap="round"/>
<path d="M58.0176 94.2705H131.34" stroke="white" stroke-width="0.258025" stroke-miterlimit="10" stroke-linecap="round"/>
<path d="M58.0176 99.4102H131.34" stroke="white" stroke-width="0.258025" stroke-miterlimit="10" stroke-linecap="round"/>
<path d="M58.0176 104.555H131.34" stroke="white" stroke-width="0.258025" stroke-miterlimit="10" stroke-linecap="round"/>
<path d="M58.0176 109.69H131.34" stroke="white" stroke-width="0.258025" stroke-miterlimit="10" stroke-linecap="round"/>
<path d="M58.0176 114.83H131.34" stroke="white" stroke-width="0.258025" stroke-miterlimit="10" stroke-linecap="round"/>
</g>
<path d="M103.756 69.6408C104.079 67.8737 104.612 66.6081 105.038 65.82C105.205 65.5136 104.863 65.1713 104.564 65.3464C100.999 67.424 99.4387 70.4527 99.2437 72.8845C99.0766 74.9819 100.505 77.1391 102.674 77.5331C104.839 77.9271 106.916 76.4863 107.31 74.3212C107.72 72.0487 106.12 69.8677 103.76 69.6408H103.756Z" fill="white"/>
<path d="M94.8539 69.6408C95.1762 67.8737 95.7095 66.6081 96.1353 65.82C96.3024 65.5136 95.9602 65.1713 95.6617 65.3464C92.0963 67.424 90.5364 70.4527 90.3414 72.8845C90.1742 74.9819 91.6028 77.1391 93.7715 77.5331C95.9363 77.9271 98.0135 76.4863 98.4074 74.3212C98.8173 72.0487 97.2176 69.8677 94.8579 69.6408H94.8539Z" fill="white"/>
<mask id="mask1_10223_19532" style="mask-type:luminance" maskUnits="userSpaceOnUse" x="0" y="0" width="58" height="59">
<path d="M0.00976562 58.0129H24.3393C24.3393 39.4225 39.4049 24.3543 57.9923 24.3543V0.00488281C25.9748 0.00488281 0.00976562 25.9742 0.00976562 58.0089V58.0129Z" fill="white"/>
</mask>
<g mask="url(#mask1_10223_19532)">
<path d="M51.0122 7.82306H49.4921V9.00908H51.0122C52.2498 9.00908 53.2566 8.00216 53.2566 6.76439V5.10473H52.0707V6.76439C52.0707 7.34944 51.5972 7.82306 51.0122 7.82306ZM49.4921 -0.391602V0.794433H51.0122C51.5972 0.794433 52.0707 1.27203 52.0707 1.85709V3.23813H53.2566V1.85709C53.2566 0.61534 52.2498 -0.391602 51.0122 -0.391602H49.4921ZM45.0433 5.10473H43.8574V6.76439C43.8574 8.00216 44.8642 9.00908 46.1057 9.00908H47.6258V7.82306H46.1057C45.5208 7.82306 45.0433 7.34944 45.0433 6.76439V5.10473ZM43.8574 1.85709V3.23813H45.0433V1.85709C45.0433 1.27203 45.5208 0.794433 46.1057 0.794433H47.6258V-0.391602H46.1057C44.8642 -0.391602 43.8574 0.61534 43.8574 1.85709Z" fill="white"/>
<path d="M63.604 7.82306H62.0839V9.00908H63.604C64.8416 9.00908 65.8483 8.00216 65.8483 6.76439V5.10473H64.6625V6.76439C64.6625 7.34944 64.189 7.82306 63.604 7.82306ZM62.0839 -0.391602V0.794433H63.604C64.189 0.794433 64.6625 1.27203 64.6625 1.85709V3.23813H65.8483V1.85709C65.8483 0.61534 64.8416 -0.391602 63.604 -0.391602H62.0839ZM57.635 5.10473H56.4492V6.76439C56.4492 8.00216 57.456 9.00908 58.6975 9.00908H60.2176V7.82306H58.6975C58.1126 7.82306 57.635 7.34944 57.635 6.76439V5.10473ZM56.4492 1.85709V3.23813H57.635V1.85709C57.635 1.27203 58.1126 0.794433 58.6975 0.794433H60.2176V-0.391602H58.6975C57.456 -0.391602 56.4492 0.61534 56.4492 1.85709Z" fill="white"/>
<path d="M38.5122 7.82306H36.9921V9.00908H38.5122C39.7498 9.00908 40.7566 8.00216 40.7566 6.76439V5.10473H39.5707V6.76439C39.5707 7.34944 39.0972 7.82306 38.5122 7.82306ZM36.9921 -0.391602V0.794433H38.5122C39.0972 0.794433 39.5707 1.27203 39.5707 1.85709V3.23813H40.7566V1.85709C40.7566 0.61534 39.7498 -0.391602 38.5122 -0.391602H36.9921ZM32.5433 5.10473H31.3574V6.76439C31.3574 8.00216 32.3642 9.00908 33.6057 9.00908H35.1258V7.82306H33.6057C33.0208 7.82306 32.5433 7.34944 32.5433 6.76439V5.10473ZM31.3574 1.85709V3.23813H32.5433V1.85709C32.5433 1.27203 33.0208 0.794433 33.6057 0.794433H35.1258V-0.391602H33.6057C32.3642 -0.391602 31.3574 0.61534 31.3574 1.85709Z" fill="white"/>
<path d="M26.0142 7.82306H24.4941V9.00908H26.0142C27.2517 9.00908 28.2585 8.00216 28.2585 6.76439V5.10473H27.0727V6.76439C27.0727 7.34944 26.5991 7.82306 26.0142 7.82306ZM24.4941 -0.391602V0.794433H26.0142C26.5991 0.794433 27.0727 1.27203 27.0727 1.85709V3.23813H28.2585V1.85709C28.2585 0.61534 27.2517 -0.391602 26.0142 -0.391602H24.4941ZM20.0452 5.10473H18.8594V6.76439C18.8594 8.00216 19.8661 9.00908 21.1077 9.00908H22.6278V7.82306H21.1077C20.5227 7.82306 20.0452 7.34944 20.0452 6.76439V5.10473ZM18.8594 1.85709V3.23813H20.0452V1.85709C20.0452 1.27203 20.5227 0.794433 21.1077 0.794433H22.6278V-0.391602H21.1077C19.8661 -0.391602 18.8594 0.61534 18.8594 1.85709Z" fill="white"/>
<path d="M51.0122 31.4178H49.4921V32.6038H51.0122C52.2498 32.6038 53.2566 31.5969 53.2566 30.3591V28.6995H52.0707V30.3591C52.0707 30.9442 51.5972 31.4178 51.0122 31.4178ZM49.4921 23.2031V24.3892H51.0122C51.5972 24.3892 52.0707 24.8668 52.0707 25.4518V26.8329H53.2566V25.4518C53.2566 24.2101 52.2498 23.2031 51.0122 23.2031H49.4921ZM45.0433 28.6995H43.8574V30.3591C43.8574 31.5969 44.8642 32.6038 46.1057 32.6038H47.6258V31.4178H46.1057C45.5208 31.4178 45.0433 30.9442 45.0433 30.3591V28.6995ZM43.8574 25.4518V26.8329H45.0433V25.4518C45.0433 24.8668 45.5208 24.3892 46.1057 24.3892H47.6258V23.2031H46.1057C44.8642 23.2031 43.8574 24.2101 43.8574 25.4518Z" fill="white"/>
<path d="M44.7524 19.618H43.2324V20.804H44.7524C45.99 20.804 46.9968 19.7971 46.9968 18.5593V16.8997H45.8109V18.5593C45.8109 19.1444 45.3374 19.618 44.7524 19.618ZM43.2324 11.4033V12.5893H44.7524C45.3374 12.5893 45.8109 13.0669 45.8109 13.652V15.033H46.9968V13.652C46.9968 12.4102 45.99 11.4033 44.7524 11.4033H43.2324ZM38.7835 16.8997H37.5977V18.5593C37.5977 19.7971 38.6044 20.804 39.846 20.804H41.3661V19.618H39.846C39.261 19.618 38.7835 19.1444 38.7835 18.5593V16.8997ZM37.5977 13.652V15.033H38.7835V13.652C38.7835 13.0669 39.261 12.5893 39.846 12.5893H41.3661V11.4033H39.846C38.6044 11.4033 37.5977 12.4102 37.5977 13.652Z" fill="white"/>
<path d="M32.3482 19.618H30.8281V20.804H32.3482C33.5857 20.804 34.5925 19.7971 34.5925 18.5593V16.8997H33.4066V18.5593C33.4066 19.1444 32.9331 19.618 32.3482 19.618ZM30.8281 11.4033V12.5893H32.3482C32.9331 12.5893 33.4066 13.0669 33.4066 13.652V15.033H34.5925V13.652C34.5925 12.4102 33.5857 11.4033 32.3482 11.4033H30.8281ZM26.3792 16.8997H25.1934V18.5593C25.1934 19.7971 26.2001 20.804 27.4417 20.804H28.9618V19.618H27.4417C26.8567 19.618 26.3792 19.1444 26.3792 18.5593V16.8997ZM25.1934 13.652V15.033H26.3792V13.652C26.3792 13.0669 26.8567 12.5893 27.4417 12.5893H28.9618V11.4033H27.4417C26.2001 11.4033 25.1934 12.4102 25.1934 13.652Z" fill="white"/>
<path d="M20.0591 19.618H18.539V20.804H20.0591C21.2967 20.804 22.3034 19.7971 22.3034 18.5593V16.8997H21.1176V18.5593C21.1176 19.1444 20.6441 19.618 20.0591 19.618ZM18.539 11.4033V12.5893H20.0591C20.6441 12.5893 21.1176 13.0669 21.1176 13.652V15.033H22.3034V13.652C22.3034 12.4102 21.2967 11.4033 20.0591 11.4033H18.539ZM14.0901 16.8997H12.9043V18.5593C12.9043 19.7971 13.9111 20.804 15.1526 20.804H16.6727V19.618H15.1526C14.5677 19.618 14.0901 19.1444 14.0901 18.5593V16.8997ZM12.9043 13.652V15.033H14.0901V13.652C14.0901 13.0669 14.5677 12.5893 15.1526 12.5893H16.6727V11.4033H15.1526C13.9111 11.4033 12.9043 12.4102 12.9043 13.652Z" fill="white"/>
<path d="M57.1665 19.618H55.6464V20.804H57.1665C58.4041 20.804 59.4108 19.7971 59.4108 18.5593V16.8997H58.225V18.5593C58.225 19.1444 57.7515 19.618 57.1665 19.618ZM55.6464 11.4033V12.5893H57.1665C57.7515 12.5893 58.225 13.0669 58.225 13.652V15.033H59.4108V13.652C59.4108 12.4102 58.4041 11.4033 57.1665 11.4033H55.6464ZM51.1975 16.8997H50.0117V18.5593C50.0117 19.7971 51.0185 20.804 52.26 20.804H53.7801V19.618H52.26C51.6751 19.618 51.1975 19.1444 51.1975 18.5593V16.8997ZM50.0117 13.652V15.033H51.1975V13.652C51.1975 13.0669 51.6751 12.5893 52.26 12.5893H53.7801V11.4033H52.26C51.0185 11.4033 50.0117 12.4102 50.0117 13.652Z" fill="white"/>
<path d="M38.5122 31.4178H36.9921V32.6038H38.5122C39.7498 32.6038 40.7566 31.5969 40.7566 30.3591V28.6995H39.5707V30.3591C39.5707 30.9442 39.0972 31.4178 38.5122 31.4178ZM36.9921 23.2031V24.3892H38.5122C39.0972 24.3892 39.5707 24.8668 39.5707 25.4518V26.8329H40.7566V25.4518C40.7566 24.2101 39.7498 23.2031 38.5122 23.2031H36.9921ZM32.5433 28.6995H31.3574V30.3591C31.3574 31.5969 32.3642 32.6038 33.6057 32.6038H35.1258V31.4178H33.6057C33.0208 31.4178 32.5433 30.9442 32.5433 30.3591V28.6995ZM31.3574 25.4518V26.8329H32.5433V25.4518C32.5433 24.8668 33.0208 24.3892 33.6057 24.3892H35.1258V23.2031H33.6057C32.3642 23.2031 31.3574 24.2101 31.3574 25.4518Z" fill="white"/>
<path d="M26.0142 31.4178H24.4941V32.6038H26.0142C27.2517 32.6038 28.2585 31.5969 28.2585 30.3591V28.6995H27.0727V30.3591C27.0727 30.9442 26.5991 31.4178 26.0142 31.4178ZM24.4941 23.2031V24.3892H26.0142C26.5991 24.3892 27.0727 24.8668 27.0727 25.4518V26.8329H28.2585V25.4518C28.2585 24.2101 27.2517 23.2031 26.0142 23.2031H24.4941ZM20.0452 28.6995H18.8594V30.3591C18.8594 31.5969 19.8661 32.6038 21.1077 32.6038H22.6278V31.4178H21.1077C20.5227 31.4178 20.0452 30.9442 20.0452 30.3591V28.6995ZM18.8594 25.4518V26.8329H20.0452V25.4518C20.0452 24.8668 20.5227 24.3892 21.1077 24.3892H22.6278V23.2031H21.1077C19.8661 23.2031 18.8594 24.2101 18.8594 25.4518Z" fill="white"/>
<path d="M13.6392 31.4178H12.1191V32.6038H13.6392C14.8767 32.6038 15.8835 31.5969 15.8835 30.3591V28.6995H14.6977V30.3591C14.6977 30.9442 14.2241 31.4178 13.6392 31.4178ZM12.1191 23.2031V24.3892H13.6392C14.2241 24.3892 14.6977 24.8668 14.6977 25.4518V26.8329H15.8835V25.4518C15.8835 24.2101 14.8767 23.2031 13.6392 23.2031H12.1191ZM7.67021 28.6995H6.48438V30.3591C6.48438 31.5969 7.49114 32.6038 8.73268 32.6038H10.2528V31.4178H8.73268C8.14772 31.4178 7.67021 30.9442 7.67021 30.3591V28.6995ZM6.48438 25.4518V26.8329H7.67021V25.4518C7.67021 24.8668 8.14772 24.3892 8.73268 24.3892H10.2528V23.2031H8.73268C7.49114 23.2031 6.48438 24.2101 6.48438 25.4518Z" fill="white"/>
<path d="M51.0122 55.0125H49.4921V56.1985H51.0122C52.2498 56.1985 53.2566 55.1916 53.2566 53.9538V52.2942H52.0707V53.9538C52.0707 54.5389 51.5972 55.0125 51.0122 55.0125ZM49.4921 46.7979V47.9839H51.0122C51.5972 47.9839 52.0707 48.4615 52.0707 49.0465V50.4276H53.2566V49.0465C53.2566 47.8048 52.2498 46.7979 51.0122 46.7979H49.4921ZM45.0433 52.2942H43.8574V53.9538C43.8574 55.1916 44.8642 56.1985 46.1057 56.1985H47.6258V55.0125H46.1057C45.5208 55.0125 45.0433 54.5389 45.0433 53.9538V52.2942ZM43.8574 49.0465V50.4276H45.0433V49.0465C45.0433 48.4615 45.5208 47.9839 46.1057 47.9839H47.6258V46.7979H46.1057C44.8642 46.7979 43.8574 47.8048 43.8574 49.0465Z" fill="white"/>
<path d="M44.7524 43.2176H43.2324V44.4036H44.7524C45.99 44.4036 46.9968 43.3967 46.9968 42.1589V40.4993H45.8109V42.1589C45.8109 42.744 45.3374 43.2176 44.7524 43.2176ZM43.2324 35.0029V36.189H44.7524C45.3374 36.189 45.8109 36.6666 45.8109 37.2516V38.6327H46.9968V37.2516C46.9968 36.0099 45.99 35.0029 44.7524 35.0029H43.2324ZM38.7835 40.4993H37.5977V42.1589C37.5977 43.3967 38.6044 44.4036 39.846 44.4036H41.3661V43.2176H39.846C39.261 43.2176 38.7835 42.744 38.7835 42.1589V40.4993ZM37.5977 37.2516V38.6327H38.7835V37.2516C38.7835 36.6666 39.261 36.189 39.846 36.189H41.3661V35.0029H39.846C38.6044 35.0029 37.5977 36.0099 37.5977 37.2516Z" fill="white"/>
<path d="M32.3482 43.2176H30.8281V44.4036H32.3482C33.5857 44.4036 34.5925 43.3967 34.5925 42.1589V40.4993H33.4066V42.1589C33.4066 42.744 32.9331 43.2176 32.3482 43.2176ZM30.8281 35.0029V36.189H32.3482C32.9331 36.189 33.4066 36.6666 33.4066 37.2516V38.6327H34.5925V37.2516C34.5925 36.0099 33.5857 35.0029 32.3482 35.0029H30.8281ZM26.3792 40.4993H25.1934V42.1589C25.1934 43.3967 26.2001 44.4036 27.4417 44.4036H28.9618V43.2176H27.4417C26.8567 43.2176 26.3792 42.744 26.3792 42.1589V40.4993ZM25.1934 37.2516V38.6327H26.3792V37.2516C26.3792 36.6666 26.8567 36.189 27.4417 36.189H28.9618V35.0029H27.4417C26.2001 35.0029 25.1934 36.0099 25.1934 37.2516Z" fill="white"/>
<path d="M20.0591 43.2176H18.539V44.4036H20.0591C21.2967 44.4036 22.3034 43.3967 22.3034 42.1589V40.4993H21.1176V42.1589C21.1176 42.744 20.6441 43.2176 20.0591 43.2176ZM18.539 35.0029V36.189H20.0591C20.6441 36.189 21.1176 36.6666 21.1176 37.2516V38.6327H22.3034V37.2516C22.3034 36.0099 21.2967 35.0029 20.0591 35.0029H18.539ZM14.0901 40.4993H12.9043V42.1589C12.9043 43.3967 13.9111 44.4036 15.1526 44.4036H16.6727V43.2176H15.1526C14.5677 43.2176 14.0901 42.744 14.0901 42.1589V40.4993ZM12.9043 37.2516V38.6327H14.0901V37.2516C14.0901 36.6666 14.5677 36.189 15.1526 36.189H16.6727V35.0029H15.1526C13.9111 35.0029 12.9043 36.0099 12.9043 37.2516Z" fill="white"/>
<path d="M8.01418 43.2176H6.49408V44.4036H8.01418C9.25174 44.4036 10.2585 43.3967 10.2585 42.1589V40.4993H9.07267V42.1589C9.07267 42.744 8.59914 43.2176 8.01418 43.2176ZM6.49408 35.0029V36.189H8.01418C8.59914 36.189 9.07267 36.6666 9.07267 37.2516V38.6327H10.2585V37.2516C10.2585 36.0099 9.25174 35.0029 8.01418 35.0029H6.49408ZM2.04521 40.4993H0.859375V42.1589C0.859375 43.3967 1.86614 44.4036 3.10768 44.4036H4.62778V43.2176H3.10768C2.52272 43.2176 2.04521 42.744 2.04521 42.1589V40.4993ZM0.859375 37.2516V38.6327H2.04521V37.2516C2.04521 36.6666 2.52272 36.189 3.10768 36.189H4.62778V35.0029H3.10768C1.86614 35.0029 0.859375 36.0099 0.859375 37.2516Z" fill="white"/>
<path d="M57.1665 43.2176H55.6464V44.4036H57.1665C58.4041 44.4036 59.4108 43.3967 59.4108 42.1589V40.4993H58.225V42.1589C58.225 42.744 57.7515 43.2176 57.1665 43.2176ZM55.6464 35.0029V36.189H57.1665C57.7515 36.189 58.225 36.6666 58.225 37.2516V38.6327H59.4108V37.2516C59.4108 36.0099 58.4041 35.0029 57.1665 35.0029H55.6464ZM51.1975 40.4993H50.0117V42.1589C50.0117 43.3967 51.0185 44.4036 52.26 44.4036H53.7801V43.2176H52.26C51.6751 43.2176 51.1975 42.744 51.1975 42.1589V40.4993ZM50.0117 37.2516V38.6327H51.1975V37.2516C51.1975 36.6666 51.6751 36.189 52.26 36.189H53.7801V35.0029H52.26C51.0185 35.0029 50.0117 36.0099 50.0117 37.2516Z" fill="white"/>
<path d="M38.5122 55.0125H36.9921V56.1985H38.5122C39.7498 56.1985 40.7566 55.1916 40.7566 53.9538V52.2942H39.5707V53.9538C39.5707 54.5389 39.0972 55.0125 38.5122 55.0125ZM36.9921 46.7979V47.9839H38.5122C39.0972 47.9839 39.5707 48.4615 39.5707 49.0465V50.4276H40.7566V49.0465C40.7566 47.8048 39.7498 46.7979 38.5122 46.7979H36.9921ZM32.5433 52.2942H31.3574V53.9538C31.3574 55.1916 32.3642 56.1985 33.6057 56.1985H35.1258V55.0125H33.6057C33.0208 55.0125 32.5433 54.5389 32.5433 53.9538V52.2942ZM31.3574 49.0465V50.4276H32.5433V49.0465C32.5433 48.4615 33.0208 47.9839 33.6057 47.9839H35.1258V46.7979H33.6057C32.3642 46.7979 31.3574 47.8048 31.3574 49.0465Z" fill="white"/>
<path d="M26.0142 55.0125H24.4941V56.1985H26.0142C27.2517 56.1985 28.2585 55.1916 28.2585 53.9538V52.2942H27.0727V53.9538C27.0727 54.5389 26.5991 55.0125 26.0142 55.0125ZM24.4941 46.7979V47.9839H26.0142C26.5991 47.9839 27.0727 48.4615 27.0727 49.0465V50.4276H28.2585V49.0465C28.2585 47.8048 27.2517 46.7979 26.0142 46.7979H24.4941ZM20.0452 52.2942H18.8594V53.9538C18.8594 55.1916 19.8661 56.1985 21.1077 56.1985H22.6278V55.0125H21.1077C20.5227 55.0125 20.0452 54.5389 20.0452 53.9538V52.2942ZM18.8594 49.0465V50.4276H20.0452V49.0465C20.0452 48.4615 20.5227 47.9839 21.1077 47.9839H22.6278V46.7979H21.1077C19.8661 46.7979 18.8594 47.8048 18.8594 49.0465Z" fill="white"/>
<path d="M13.6392 55.0125H12.1191V56.1985H13.6392C14.8767 56.1985 15.8835 55.1916 15.8835 53.9538V52.2942H14.6977V53.9538C14.6977 54.5389 14.2241 55.0125 13.6392 55.0125ZM12.1191 46.7979V47.9839H13.6392C14.2241 47.9839 14.6977 48.4615 14.6977 49.0465V50.4276H15.8835V49.0465C15.8835 47.8048 14.8767 46.7979 13.6392 46.7979H12.1191ZM7.6702 52.2942H6.48438V53.9538C6.48438 55.1916 7.49114 56.1985 8.73268 56.1985H10.2528V55.0125H8.73268C8.14772 55.0125 7.6702 54.5389 7.6702 53.9538V52.2942ZM6.48438 49.0465V50.4276H7.6702V49.0465C7.6702 48.4615 8.14772 47.9839 8.73268 47.9839H10.2528V46.7979H8.73268C7.49114 46.7979 6.48438 47.8048 6.48438 49.0465Z" fill="white"/>
<path d="M1.42432 55.0125H-0.0957759V56.1985H1.42432C2.66189 56.1985 3.66866 55.1916 3.66866 53.9538V52.2942H2.48282V53.9538C2.48282 54.5389 2.00928 55.0125 1.42432 55.0125ZM-0.0957759 46.7979V47.9839H1.42432C2.00928 47.9839 2.48282 48.4615 2.48282 49.0465V50.4276H3.66866V49.0465C3.66866 47.8048 2.66189 46.7979 1.42432 46.7979H-0.0957759ZM-4.54464 52.2942H-5.73047V53.9538C-5.73047 55.1916 -4.72371 56.1985 -3.48216 56.1985H-1.96206V55.0125H-3.48216C-4.06712 55.0125 -4.54464 54.5389 -4.54464 53.9538V52.2942ZM-5.73047 49.0465V50.4276H-4.54464V49.0465C-4.54464 48.4615 -4.06712 47.9839 -3.48216 47.9839H-1.96206V46.7979H-3.48216C-4.72371 46.7979 -5.73047 47.8048 -5.73047 49.0465Z" fill="white"/>
</g>
<mask id="mask2_10223_19532" style="mask-type:luminance" maskUnits="userSpaceOnUse" x="57" y="0" width="59" height="58">
<path d="M57.9766 0V24.3335C76.5639 24.3335 91.6296 39.4017 91.6296 57.9921H115.975C115.975 25.9693 90.01 0 57.9805 0H57.9766Z" fill="white"/>
</mask>
<g mask="url(#mask2_10223_19532)">
<path d="M61.769 0.169922H54.4551V24.3522H61.769V0.169922Z" fill="url(#paint2_linear_10223_19532)"/>
<path d="M101.859 20.0179L96.7266 14.8066L79.5021 31.7773L84.6349 36.9886L101.859 20.0179Z" fill="url(#paint3_linear_10223_19532)"/>
<path d="M110.279 32.7696L106.686 26.3984L85.6273 38.2806L89.2211 44.6518L110.279 32.7696Z" fill="url(#paint4_linear_10223_19532)"/>
<path d="M76.7515 3.12346L69.6914 1.21289L63.3766 24.5558L70.4367 26.4664L76.7515 3.12346Z" fill="url(#paint5_linear_10223_19532)"/>
<path d="M115.061 47.2783L113.256 40.1895L89.8257 46.1584L91.631 53.2472L115.061 47.2783Z" fill="url(#paint6_linear_10223_19532)"/>
<path d="M90.4112 9.9152L84.0957 6.22559L71.9007 27.1066L78.2162 30.7962L90.4112 9.9152Z" fill="url(#paint7_linear_10223_19532)"/>
<path d="M115.855 62.5087L115.965 55.1943L91.7893 54.8314L91.6795 62.1457L115.855 62.5087Z" fill="url(#paint8_linear_10223_19532)"/>
</g>
<path d="M57.9988 108.94V115.98C56.5264 115.98 55.0541 115.921 53.6096 115.817C51.3136 113.314 49.9845 108.749 48.528 103.726C47.8078 101.207 46.6418 97.2149 45.7306 95.5791C43.9638 96.3432 40.5336 99.0098 38.3808 100.677C34.3617 103.802 30.7087 106.627 27.4695 107.304C25.7903 107.658 24.2423 107.451 22.8018 106.405C21.3573 105.346 20.653 103.929 20.4898 102.206C20.1357 98.8904 21.7115 94.5164 23.4504 89.7007C24.3657 87.1654 25.8221 83.1178 25.9972 81.2313C24.1428 80.8333 19.9128 80.9646 17.2347 81.0562C12.0815 81.2194 7.39788 81.3785 4.33381 79.9975C2.758 79.305 1.6239 78.1986 1.06281 76.4752C0.517649 74.7957 0.796208 73.2475 1.66768 71.7908C3.30317 68.9611 7.07158 66.386 11.226 63.5722C13.538 61.9802 17.2626 59.4489 18.5002 57.9883H24.3458C24.3458 59.3733 24.4333 60.7583 24.6124 62.0996C22.758 64.6348 19.3398 66.9591 15.3645 69.6576C13.713 70.7759 11.3454 72.3958 9.73772 73.7211C11.8865 73.8524 14.9228 73.7649 17 73.6932C21.6558 73.546 25.6589 73.4146 28.5758 74.3101C30.1078 74.7678 31.3454 75.532 32.1969 76.71C33.0644 77.904 33.4067 79.3169 33.3907 80.9527C33.331 84.0173 31.9622 87.8022 30.3704 92.208C29.6621 94.1542 28.6633 96.98 28.1301 99.0417C29.9128 97.9074 32.2527 96.1124 33.8603 94.8587C37.6008 91.9732 40.8121 89.4658 43.7409 88.4788C44.6243 88.1684 45.4799 88.0092 46.3036 88.0092C46.9244 88.0092 47.5252 88.1127 48.1301 88.3037C49.5149 88.7614 50.6172 89.7047 51.5165 91.03C53.2395 93.5055 54.3458 97.2905 55.6112 101.68C56.232 103.818 57.1273 106.954 57.9829 108.972C57.9829 108.956 57.9988 108.956 57.9988 108.944V108.94Z" fill="url(#paint9_linear_10223_19532)"/>
<defs>
<linearGradient id="paint0_linear_10223_19532" x1="0" y1="29.002" x2="57.9786" y2="29.002" gradientUnits="userSpaceOnUse">
<stop stop-color="#037AD6"/>
<stop offset="1" stop-color="#03DDAF"/>
</linearGradient>
<linearGradient id="paint1_linear_10223_19532" x1="57.998" y1="86.9903" x2="115.981" y2="86.9903" gradientUnits="userSpaceOnUse">
<stop stop-color="#037AD6"/>
<stop offset="1" stop-color="#03DDAF"/>
</linearGradient>
<linearGradient id="paint2_linear_10223_19532" x1="54.4551" y1="12.2611" x2="61.769" y2="12.2611" gradientUnits="userSpaceOnUse">
<stop stop-color="#037AD6"/>
<stop offset="1" stop-color="#03DDAF"/>
</linearGradient>
<linearGradient id="paint3_linear_10223_19532" x1="79.5074" y1="25.8927" x2="101.867" y2="25.8927" gradientUnits="userSpaceOnUse">
<stop stop-color="#037AD6"/>
<stop offset="1" stop-color="#03DDAF"/>
</linearGradient>
<linearGradient id="paint4_linear_10223_19532" x1="85.6188" y1="35.5293" x2="110.271" y2="35.5293" gradientUnits="userSpaceOnUse">
<stop stop-color="#037AD6"/>
<stop offset="1" stop-color="#03DDAF"/>
</linearGradient>
<linearGradient id="paint5_linear_10223_19532" x1="63.3676" y1="13.8505" x2="76.746" y2="13.8505" gradientUnits="userSpaceOnUse">
<stop stop-color="#037AD6"/>
<stop offset="1" stop-color="#03DDAF"/>
</linearGradient>
<linearGradient id="paint6_linear_10223_19532" x1="89.8155" y1="46.7388" x2="115.048" y2="46.7388" gradientUnits="userSpaceOnUse">
<stop stop-color="#037AD6"/>
<stop offset="1" stop-color="#03DDAF"/>
</linearGradient>
<linearGradient id="paint7_linear_10223_19532" x1="71.9138" y1="18.4963" x2="90.4216" y2="18.4963" gradientUnits="userSpaceOnUse">
<stop stop-color="#037AD6"/>
<stop offset="1" stop-color="#03DDAF"/>
</linearGradient>
<linearGradient id="paint8_linear_10223_19532" x1="91.69" y1="58.6621" x2="115.976" y2="58.6621" gradientUnits="userSpaceOnUse">
<stop stop-color="#037AD6"/>
<stop offset="1" stop-color="#03DDAF"/>
</linearGradient>
<linearGradient id="paint9_linear_10223_19532" x1="0.784265" y1="86.9863" x2="57.9988" y2="86.9863" gradientUnits="userSpaceOnUse">
<stop stop-color="#037AD6"/>
<stop offset="1" stop-color="#03DDAF"/>
</linearGradient>
</defs>
</svg>
