<svg width="54" height="54" viewBox="0 0 54 54" fill="none" xmlns="http://www.w3.org/2000/svg">
<path opacity="0.4" d="M18.7188 34.3557L33.4337 19.6406" stroke="#0280D4" stroke-width="3.375" stroke-linecap="round" stroke-linejoin="round"/>
<path opacity="0.4" d="M19.6425 23.3317C21.171 23.3317 22.41 22.0928 22.41 20.5644C22.41 19.036 21.171 17.7969 19.6425 17.7969C18.1141 17.7969 16.875 19.036 16.875 20.5644C16.875 22.0928 18.1141 23.3317 19.6425 23.3317Z" stroke="#FFAC33" stroke-width="3.375" stroke-linecap="round" stroke-linejoin="round"/>
<path opacity="0.4" d="M34.3532 36.1991C35.8819 36.1991 37.1209 34.96 37.1209 33.4316C37.1209 31.9031 35.8819 30.6641 34.3532 30.6641C32.8248 30.6641 31.5859 31.9031 31.5859 33.4316C31.5859 34.96 32.8248 36.1991 34.3532 36.1991Z" stroke="#FFAC33" stroke-width="3.375" stroke-linecap="round" stroke-linejoin="round"/>
<path d="M27 49.5C39.4263 49.5 49.5 39.4263 49.5 27C49.5 14.5736 39.4263 4.5 27 4.5C14.5736 4.5 4.5 14.5736 4.5 27C4.5 39.4263 14.5736 49.5 27 49.5Z" stroke="#A19AF1" stroke-width="3.375" stroke-linecap="round" stroke-linejoin="round"/>
</svg>
