<svg width="54" height="55" viewBox="0 0 54 55" fill="none" xmlns="http://www.w3.org/2000/svg">
<g clip-path="url(#clip0_8479_13241)">
<path d="M29.7031 51.125C29.7031 52.9846 28.1928 54.5 26.3281 54.5C24.4634 54.5 22.9531 52.9846 22.9531 51.125C22.9531 49.2536 24.4634 47.75 26.3281 47.75C28.1928 47.75 29.7031 49.2536 29.7031 51.125Z" fill="#FFAC33"/>
<path d="M26.4532 44.3356C24.1987 44.3356 22.0826 43.453 20.4879 41.8566C18.8932 39.9919 18.0157 37.8758 18.0157 35.6213C18.0157 33.3668 18.8932 31.2507 20.4879 29.9327L31.7739 18.6467C33.048 17.3676 33.75 15.6734 33.75 13.8745C33.75 12.0689 33.048 10.3746 31.7722 9.10224C29.1414 6.47143 24.8602 6.46637 22.2311 9.10224C20.952 10.3746 20.25 12.0672 20.25 13.8745H13.5C13.5 10.2683 14.9074 6.87474 17.4622 4.32324C22.5585 -0.778069 31.4432 -0.773007 36.5462 4.32999C39.096 6.87306 40.5 10.2616 40.5 13.8745C40.5 17.4807 39.096 20.8692 36.5445 23.419L25.2585 34.4266C24.6021 35.0864 24.6021 36.1529 25.2585 36.8127C25.9183 37.4725 26.9848 37.4725 27.6446 36.8127C28.0732 36.3773 28.1391 35.8761 28.1391 35.6129H34.8891C34.8891 37.8674 34.0116 39.9902 32.4169 41.8549C30.8239 43.4513 28.7077 44.3356 26.4532 44.3356Z" fill="#0280D4"/>
</g>
<defs>
<clipPath id="clip0_8479_13241">
<rect width="54" height="54" fill="white" transform="translate(0 0.5)"/>
</clipPath>
</defs>
</svg>
