<svg width="49" height="49" viewBox="0 0 49 49" fill="none" xmlns="http://www.w3.org/2000/svg">
<path fill-rule="evenodd" clip-rule="evenodd" d="M11.6016 9.68241V33.9992C11.6016 34.7898 12.2434 35.4316 13.034 35.4316C13.8245 35.4316 14.4664 34.7898 14.4664 33.9992V9.68241C14.4664 8.89181 13.8245 8.25 13.034 8.25C12.2434 8.25 11.6016 8.89181 11.6016 9.68241Z" fill="black" fill-opacity="0.5"/>
<path fill-rule="evenodd" clip-rule="evenodd" d="M45.9135 28.2117V12.9943C45.9134 10.0936 43.562 7.74219 40.6613 7.74219C33.0272 7.74219 15.9644 7.74219 8.33029 7.74219C5.42958 7.74219 3.07812 10.0936 3.07812 12.9943V34.7422C3.07812 37.6429 5.42957 39.9944 8.33025 39.9944H26.8143C28.2851 39.9944 29.6885 39.3777 30.6832 38.2943L34.4083 34.2367C34.8606 33.7442 35.4984 33.4639 36.1669 33.4639H40.6613C43.562 33.4638 45.9134 31.1124 45.9135 28.2117ZM43.0486 13.4718V12.9943C43.0486 11.6758 41.9798 10.607 40.6613 10.607C40.6613 10.607 8.33034 10.607 8.3302 10.607C7.01178 10.607 5.943 11.6758 5.94295 12.9944C5.94295 12.9944 5.94295 34.7422 5.94295 34.7423C5.943 36.0608 7.01178 37.1295 8.33029 37.1296C8.33029 37.1296 26.8142 37.1296 26.8144 37.1296C27.4828 37.1295 28.1207 36.8492 28.5729 36.3567L32.2981 32.2992C33.2928 31.2158 34.6962 30.5991 36.167 30.5991H40.6614C41.9798 30.599 43.0486 29.5302 43.0486 28.2117V27.796H35.9551C35.1645 27.796 34.5227 27.1541 34.5227 26.3636C34.5227 25.573 35.1645 24.9312 35.9551 24.9312H43.0486V22.0663H35.9551C35.1645 22.0663 34.5227 21.4245 34.5227 20.6339C34.5227 19.8433 35.1645 19.2015 35.9551 19.2015H43.0486V16.3367H35.9551C35.1645 16.3367 34.5227 15.6948 34.5227 14.9043C34.5227 14.1137 35.1645 13.4718 35.9551 13.4718H43.0486Z" fill="black"/>
</svg>
