<svg width="55" height="55" viewBox="0 0 55 55" fill="none" xmlns="http://www.w3.org/2000/svg">
<path d="M20.625 17.6562L27.5 10.7812L34.375 17.6562" stroke="#0280D4" stroke-width="3.4375" stroke-miterlimit="10" stroke-linecap="round" stroke-linejoin="round"/>
<path d="M15.4688 22.3438L5.15625 28.3594V36.9531L27.5 49.8438L49.8438 36.9531V28.3594L39.5312 22.3438" stroke="#FFAC33" stroke-width="3.4375" stroke-miterlimit="10" stroke-linecap="round" stroke-linejoin="round"/>
<mask id="mask0_1_94" style="mask-type:alpha" maskUnits="userSpaceOnUse" x="14" y="17" width="26" height="27">
<rect x="14.0234" y="17.25" width="25.8824" height="25.8824" fill="#D9D9D9"/>
</mask>
<g mask="url(#mask0_1_94)">
<path d="M24.3199 33.5882L33.4596 24.4485C33.6753 24.2328 33.9315 24.125 34.228 24.125C34.5246 24.125 34.7807 24.2328 34.9964 24.4485C35.2121 24.6642 35.3199 24.9203 35.3199 25.2169C35.3199 25.5135 35.2121 25.7696 34.9964 25.9853L25.0748 35.9069C24.8591 36.1225 24.6075 36.2304 24.3199 36.2304C24.0324 36.2304 23.7807 36.1225 23.565 35.9069L18.9278 31.2696C18.7121 31.0539 18.6087 30.7978 18.6177 30.5012C18.6267 30.2047 18.7391 29.9485 18.9547 29.7328C19.1704 29.5172 19.4266 29.4093 19.7231 29.4093C20.0197 29.4093 20.2758 29.5172 20.4915 29.7328L24.3199 33.5882Z" fill="#1C1B1F"/>
</g>
</svg>
