<svg width="64" height="66" viewBox="0 0 64 66" fill="none" xmlns="http://www.w3.org/2000/svg">
<path d="M32 0.0371094C22.3026 0.0371094 13.1759 8.31358 16.5987 24.259C17.2776 27.4259 19.1067 30.9748 21.5992 34.629C24.7159 31.9492 27.7544 29.1641 30.4265 26.4259C29.5689 25.5046 28.7593 24.5897 28.0066 23.6887C21.8103 16.2644 22.8733 7.17429 32 7.17429C41.1267 7.17429 42.1897 16.2646 35.9922 23.6888C24.5863 37.3565 0 54.0606 0 54.0606L11.464 65.8294C11.464 65.8294 43.9776 40.2045 47.4004 24.259C50.8229 8.31358 41.6962 0.0371094 32 0.0371094Z" fill="#FFAC33"/>
<path d="M42.8142 37.9785C40.3619 41.3062 37.2822 44.9041 33.5859 48.7614C42.9102 58.2441 52.5317 65.8269 52.5317 65.8269L63.9968 54.058C63.9968 54.058 53.348 46.8219 42.8142 37.9785Z" fill="#0280D4"/>
</svg>
