<svg width="23" height="24" viewBox="0 0 23 24" fill="none" xmlns="http://www.w3.org/2000/svg">
<path d="M0.40625 11.9473H5.12854C5.12854 8.35944 8.05274 5.45133 11.6605 5.45133V0.751953C5.44598 0.751953 0.40625 5.76395 0.40625 11.9466V11.9473Z" fill="url(#paint0_linear_3637_9163)"/>
<path d="M22.9183 11.9434H18.196C18.196 15.5313 15.2718 18.4394 11.6641 18.4394V23.1387C17.8786 23.1387 22.9183 18.1267 22.9183 11.9441V11.9434Z" fill="url(#paint1_linear_3637_9163)"/>
<mask id="mask0_3637_9163" style="mask-type:luminance" maskUnits="userSpaceOnUse" x="11" y="11" width="12" height="13">
<path d="M22.9222 11.9434H18.1999C18.1999 15.5313 15.2757 18.4394 11.668 18.4394V23.1387C17.8825 23.1387 22.9222 18.1267 22.9222 11.9441V11.9434Z" fill="white"/>
</mask>
<g mask="url(#mask0_3637_9163)">
<path d="M20.5 13.9854H25.6116" stroke="white" stroke-width="0.258025" stroke-miterlimit="10" stroke-linecap="round"/>
<path d="M11.668 14.9775H25.8997" stroke="white" stroke-width="0.258025" stroke-miterlimit="10" stroke-linecap="round"/>
<path d="M11.668 15.9696H25.8997" stroke="white" stroke-width="0.258025" stroke-miterlimit="10" stroke-linecap="round"/>
<path d="M11.668 16.9618H25.8997" stroke="white" stroke-width="0.258025" stroke-miterlimit="10" stroke-linecap="round"/>
<path d="M11.668 17.954H25.8997" stroke="white" stroke-width="0.258025" stroke-miterlimit="10" stroke-linecap="round"/>
<path d="M11.668 18.9453H25.8997" stroke="white" stroke-width="0.258025" stroke-miterlimit="10" stroke-linecap="round"/>
<path d="M11.668 19.9375H25.8997" stroke="white" stroke-width="0.258025" stroke-miterlimit="10" stroke-linecap="round"/>
<path d="M11.668 20.9297H25.8997" stroke="white" stroke-width="0.258025" stroke-miterlimit="10" stroke-linecap="round"/>
<path d="M11.668 21.9219H25.8997" stroke="white" stroke-width="0.258025" stroke-miterlimit="10" stroke-linecap="round"/>
<path d="M11.668 22.9141H25.8997" stroke="white" stroke-width="0.258025" stroke-miterlimit="10" stroke-linecap="round"/>
</g>
<path d="M20.5425 14.1915C20.6051 13.8505 20.7086 13.6062 20.7912 13.4541C20.8236 13.395 20.7572 13.3289 20.6993 13.3627C20.0073 13.7637 19.7045 14.3482 19.6666 14.8175C19.6342 15.2223 19.9115 15.6386 20.3324 15.7147C20.7526 15.7907 21.1558 15.5127 21.2322 15.0948C21.3118 14.6562 21.0013 14.2353 20.5433 14.1915H20.5425Z" fill="white"/>
<path d="M18.8159 14.1915C18.8785 13.8505 18.982 13.6062 19.0646 13.4541C19.0971 13.395 19.0307 13.3289 18.9727 13.3627C18.2807 13.7637 17.9779 14.3482 17.9401 14.8175C17.9076 15.2223 18.1849 15.6386 18.6059 15.7147C19.026 15.7907 19.4292 15.5127 19.5057 15.0948C19.5852 14.6562 19.2747 14.2353 18.8167 14.1915H18.8159Z" fill="white"/>
<mask id="mask1_3637_9163" style="mask-type:luminance" maskUnits="userSpaceOnUse" x="0" y="0" width="12" height="12">
<path d="M0.40625 11.9483H5.12854C5.12854 8.36042 8.05274 5.4523 11.6605 5.4523V0.75293C5.44598 0.75293 0.40625 5.76493 0.40625 11.9476V11.9483Z" fill="white"/>
</mask>
<g mask="url(#mask1_3637_9163)">
<path d="M10.3067 2.26119H10.0116V2.49009H10.3067C10.5469 2.49009 10.7423 2.29575 10.7423 2.05687V1.73656H10.5121V2.05687C10.5121 2.16978 10.4202 2.26119 10.3067 2.26119ZM10.0116 0.675781V0.904683H10.3067C10.4202 0.904683 10.5121 0.996859 10.5121 1.10977V1.37631H10.7423V1.10977C10.7423 0.870118 10.5469 0.675781 10.3067 0.675781H10.0116ZM9.14814 1.73656H8.91797V2.05687C8.91797 2.29575 9.11338 2.49009 9.35436 2.49009H9.64941V2.26119H9.35436C9.24082 2.26119 9.14814 2.16978 9.14814 2.05687V1.73656ZM8.91797 1.10977V1.37631H9.14814V1.10977C9.14814 0.996859 9.24082 0.904683 9.35436 0.904683H9.64941V0.675781H9.35436C9.11338 0.675781 8.91797 0.870118 8.91797 1.10977Z" fill="white"/>
<path d="M12.752 2.26119H12.457V2.49009H12.752C12.9922 2.49009 13.1876 2.29575 13.1876 2.05687V1.73656H12.9575V2.05687C12.9575 2.16978 12.8655 2.26119 12.752 2.26119ZM12.457 0.675781V0.904683H12.752C12.8655 0.904683 12.9575 0.996859 12.9575 1.10977V1.37631H13.1876V1.10977C13.1876 0.870118 12.9922 0.675781 12.752 0.675781H12.457ZM11.5934 1.73656H11.3633V2.05687C11.3633 2.29575 11.5587 2.49009 11.7997 2.49009H12.0947V2.26119H11.7997C11.6861 2.26119 11.5934 2.16978 11.5934 2.05687V1.73656ZM11.3633 1.10977V1.37631H11.5934V1.10977C11.5934 0.996859 11.6861 0.904683 11.7997 0.904683H12.0947V0.675781H11.7997C11.5587 0.675781 11.3633 0.870118 11.3633 1.10977Z" fill="white"/>
<path d="M7.88091 2.26119H7.58587V2.49009H7.88091C8.12112 2.49009 8.31653 2.29575 8.31653 2.05687V1.73656H8.08637V2.05687C8.08637 2.16978 7.99445 2.26119 7.88091 2.26119ZM7.58587 0.675781V0.904683H7.88091C7.99445 0.904683 8.08637 0.996859 8.08637 1.10977V1.37631H8.31653V1.10977C8.31653 0.870118 8.12112 0.675781 7.88091 0.675781H7.58587ZM6.72236 1.73656H6.49219V2.05687C6.49219 2.29575 6.6876 2.49009 6.92858 2.49009H7.22362V2.26119H6.92858C6.81504 2.26119 6.72236 2.16978 6.72236 2.05687V1.73656ZM6.49219 1.10977V1.37631H6.72236V1.10977C6.72236 0.996859 6.81504 0.904683 6.92858 0.904683H7.22362V0.675781H6.92858C6.6876 0.675781 6.49219 0.870118 6.49219 1.10977Z" fill="white"/>
<path d="M5.45513 2.26119H5.16009V2.49009H5.45513C5.69534 2.49009 5.89075 2.29575 5.89075 2.05687V1.73656H5.66058V2.05687C5.66058 2.16978 5.56867 2.26119 5.45513 2.26119ZM5.16009 0.675781V0.904683H5.45513C5.56867 0.904683 5.66058 0.996859 5.66058 1.10977V1.37631H5.89075V1.10977C5.89075 0.870118 5.69534 0.675781 5.45513 0.675781H5.16009ZM4.29657 1.73656H4.06641V2.05687C4.06641 2.29575 4.26182 2.49009 4.5028 2.49009H4.79784V2.26119H4.5028C4.38926 2.26119 4.29657 2.16978 4.29657 2.05687V1.73656ZM4.06641 1.10977V1.37631H4.29657V1.10977C4.29657 0.996859 4.38926 0.904683 4.5028 0.904683H4.79784V0.675781H4.5028C4.26182 0.675781 4.06641 0.870118 4.06641 1.10977Z" fill="white"/>
<path d="M10.3067 6.8149H10.0116V7.0438H10.3067C10.5469 7.0438 10.7423 6.84946 10.7423 6.61058V6.29027H10.5121V6.61058C10.5121 6.72349 10.4202 6.8149 10.3067 6.8149ZM10.0116 5.22949V5.45839H10.3067C10.4202 5.45839 10.5121 5.55057 10.5121 5.66348V5.93002H10.7423V5.66348C10.7423 5.42383 10.5469 5.22949 10.3067 5.22949H10.0116ZM9.14814 6.29027H8.91797V6.61058C8.91797 6.84946 9.11338 7.0438 9.35436 7.0438H9.64941V6.8149H9.35436C9.24082 6.8149 9.14814 6.72349 9.14814 6.61058V6.29027ZM8.91797 5.66348V5.93002H9.14814V5.66348C9.14814 5.55057 9.24082 5.45839 9.35436 5.45839H9.64941V5.22949H9.35436C9.11338 5.22949 8.91797 5.42383 8.91797 5.66348Z" fill="white"/>
<path d="M9.09185 4.53853H8.79681V4.76743H9.09185C9.33206 4.76743 9.52747 4.57309 9.52747 4.33421V4.0139H9.2973V4.33421C9.2973 4.44712 9.20539 4.53853 9.09185 4.53853ZM8.79681 2.95312V3.18202H9.09185C9.20539 3.18202 9.2973 3.2742 9.2973 3.38711V3.65365H9.52747V3.38711C9.52747 3.14746 9.33206 2.95312 9.09185 2.95312H8.79681ZM7.93329 4.0139H7.70312V4.33421C7.70312 4.57309 7.89853 4.76743 8.13952 4.76743H8.43456V4.53853H8.13952C8.02598 4.53853 7.93329 4.44712 7.93329 4.33421V4.0139ZM7.70312 3.38711V3.65365H7.93329V3.38711C7.93329 3.2742 8.02598 3.18202 8.13952 3.18202H8.43456V2.95312H8.13952C7.89853 2.95312 7.70312 3.14746 7.70312 3.38711Z" fill="white"/>
<path d="M6.6856 4.53853H6.39055V4.76743H6.6856C6.92581 4.76743 7.12122 4.57309 7.12122 4.33421V4.0139H6.89105V4.33421C6.89105 4.44712 6.79914 4.53853 6.6856 4.53853ZM6.39055 2.95312V3.18202H6.6856C6.79914 3.18202 6.89105 3.2742 6.89105 3.38711V3.65365H7.12122V3.38711C7.12122 3.14746 6.92581 2.95312 6.6856 2.95312H6.39055ZM5.52704 4.0139H5.29688V4.33421C5.29688 4.57309 5.49228 4.76743 5.73327 4.76743H6.02831V4.53853H5.73327C5.61973 4.53853 5.52704 4.44712 5.52704 4.33421V4.0139ZM5.29688 3.38711V3.65365H5.52704V3.38711C5.52704 3.2742 5.61973 3.18202 5.73327 3.18202H6.02831V2.95312H5.73327C5.49228 2.95312 5.29688 3.14746 5.29688 3.38711Z" fill="white"/>
<path d="M4.29888 4.53853H4.00384V4.76743H4.29888C4.53909 4.76743 4.7345 4.57309 4.7345 4.33421V4.0139H4.50433V4.33421C4.50433 4.44712 4.41242 4.53853 4.29888 4.53853ZM4.00384 2.95312V3.18202H4.29888C4.41242 3.18202 4.50433 3.2742 4.50433 3.38711V3.65365H4.7345V3.38711C4.7345 3.14746 4.53909 2.95312 4.29888 2.95312H4.00384ZM3.14032 4.0139H2.91016V4.33421C2.91016 4.57309 3.10557 4.76743 3.34655 4.76743H3.64159V4.53853H3.34655C3.23301 4.53853 3.14032 4.44712 3.14032 4.33421V4.0139ZM2.91016 3.38711V3.65365H3.14032V3.38711C3.14032 3.2742 3.23301 3.18202 3.34655 3.18202H3.64159V2.95312H3.34655C3.10557 2.95312 2.91016 3.14746 2.91016 3.38711Z" fill="white"/>
<path d="M11.502 4.53853H11.207V4.76743H11.502C11.7422 4.76743 11.9376 4.57309 11.9376 4.33421V4.0139H11.7075V4.33421C11.7075 4.44712 11.6155 4.53853 11.502 4.53853ZM11.207 2.95312V3.18202H11.502C11.6155 3.18202 11.7075 3.2742 11.7075 3.38711V3.65365H11.9376V3.38711C11.9376 3.14746 11.7422 2.95312 11.502 2.95312H11.207ZM10.3434 4.0139H10.1133V4.33421C10.1133 4.57309 10.3087 4.76743 10.5497 4.76743H10.8447V4.53853H10.5497C10.4361 4.53853 10.3434 4.44712 10.3434 4.33421V4.0139ZM10.1133 3.38711V3.65365H10.3434V3.38711C10.3434 3.2742 10.4361 3.18202 10.5497 3.18202H10.8447V2.95312H10.5497C10.3087 2.95312 10.1133 3.14746 10.1133 3.38711Z" fill="white"/>
<path d="M7.88091 6.8149H7.58587V7.0438H7.88091C8.12112 7.0438 8.31653 6.84946 8.31653 6.61058V6.29027H8.08637V6.61058C8.08637 6.72349 7.99445 6.8149 7.88091 6.8149ZM7.58587 5.22949V5.45839H7.88091C7.99445 5.45839 8.08637 5.55057 8.08637 5.66348V5.93002H8.31653V5.66348C8.31653 5.42383 8.12112 5.22949 7.88091 5.22949H7.58587ZM6.72236 6.29027H6.49219V6.61058C6.49219 6.84946 6.6876 7.0438 6.92858 7.0438H7.22362V6.8149H6.92858C6.81504 6.8149 6.72236 6.72349 6.72236 6.61058V6.29027ZM6.49219 5.66348V5.93002H6.72236V5.66348C6.72236 5.55057 6.81504 5.45839 6.92858 5.45839H7.22362V5.22949H6.92858C6.6876 5.22949 6.49219 5.42383 6.49219 5.66348Z" fill="white"/>
<path d="M5.45513 6.8149H5.16009V7.0438H5.45513C5.69534 7.0438 5.89075 6.84946 5.89075 6.61058V6.29027H5.66058V6.61058C5.66058 6.72349 5.56867 6.8149 5.45513 6.8149ZM5.16009 5.22949V5.45839H5.45513C5.56867 5.45839 5.66058 5.55057 5.66058 5.66348V5.93002H5.89075V5.66348C5.89075 5.42383 5.69534 5.22949 5.45513 5.22949H5.16009ZM4.29657 6.29027H4.06641V6.61058C4.06641 6.84946 4.26182 7.0438 4.5028 7.0438H4.79784V6.8149H4.5028C4.38926 6.8149 4.29657 6.72349 4.29657 6.61058V6.29027ZM4.06641 5.66348V5.93002H4.29657V5.66348C4.29657 5.55057 4.38926 5.45839 4.5028 5.45839H4.79784V5.22949H4.5028C4.26182 5.22949 4.06641 5.42383 4.06641 5.66348Z" fill="white"/>
<path d="M3.05279 6.8149H2.75774V7.0438H3.05279C3.293 7.0438 3.48841 6.84946 3.48841 6.61058V6.29027H3.25824V6.61058C3.25824 6.72349 3.16633 6.8149 3.05279 6.8149ZM2.75774 5.22949V5.45839H3.05279C3.16633 5.45839 3.25824 5.55057 3.25824 5.66348V5.93002H3.48841V5.66348C3.48841 5.42383 3.293 5.22949 3.05279 5.22949H2.75774ZM1.89423 6.29027H1.66406V6.61058C1.66406 6.84946 1.85947 7.0438 2.10045 7.0438H2.3955V6.8149H2.10045C1.98691 6.8149 1.89423 6.72349 1.89423 6.61058V6.29027ZM1.66406 5.66348V5.93002H1.89423V5.66348C1.89423 5.55057 1.98691 5.45839 2.10045 5.45839H2.3955V5.22949H2.10045C1.85947 5.22949 1.66406 5.42383 1.66406 5.66348Z" fill="white"/>
<path d="M10.3067 11.3687H10.0116V11.5976H10.3067C10.5469 11.5976 10.7423 11.4033 10.7423 11.1644V10.8441H10.5121V11.1644C10.5121 11.2773 10.4202 11.3687 10.3067 11.3687ZM10.0116 9.78333V10.0122H10.3067C10.4202 10.0122 10.5121 10.1044 10.5121 10.2173V10.4839H10.7423V10.2173C10.7423 9.97766 10.5469 9.78333 10.3067 9.78333H10.0116ZM9.14814 10.8441H8.91797V11.1644C8.91797 11.4033 9.11338 11.5976 9.35436 11.5976H9.64941V11.3687H9.35436C9.24082 11.3687 9.14814 11.2773 9.14814 11.1644V10.8441ZM8.91797 10.2173V10.4839H9.14814V10.2173C9.14814 10.1044 9.24082 10.0122 9.35436 10.0122H9.64941V9.78333H9.35436C9.11338 9.78333 8.91797 9.97766 8.91797 10.2173Z" fill="white"/>
<path d="M9.09185 9.09322H8.79681V9.32212H9.09185C9.33206 9.32212 9.52747 9.12778 9.52747 8.8889V8.56859H9.2973V8.8889C9.2973 9.00181 9.20539 9.09322 9.09185 9.09322ZM8.79681 7.50781V7.73671H9.09185C9.20539 7.73671 9.2973 7.82889 9.2973 7.9418V8.20834H9.52747V7.9418C9.52747 7.70215 9.33206 7.50781 9.09185 7.50781H8.79681ZM7.93329 8.56859H7.70312V8.8889C7.70312 9.12778 7.89853 9.32212 8.13952 9.32212H8.43456V9.09322H8.13952C8.02598 9.09322 7.93329 9.00181 7.93329 8.8889V8.56859ZM7.70312 7.9418V8.20834H7.93329V7.9418C7.93329 7.82889 8.02598 7.73671 8.13952 7.73671H8.43456V7.50781H8.13952C7.89853 7.50781 7.70312 7.70215 7.70312 7.9418Z" fill="white"/>
<path d="M6.6856 9.09322H6.39055V9.32212H6.6856C6.92581 9.32212 7.12122 9.12778 7.12122 8.8889V8.56859H6.89105V8.8889C6.89105 9.00181 6.79914 9.09322 6.6856 9.09322ZM6.39055 7.50781V7.73671H6.6856C6.79914 7.73671 6.89105 7.82889 6.89105 7.9418V8.20834H7.12122V7.9418C7.12122 7.70215 6.92581 7.50781 6.6856 7.50781H6.39055ZM5.52704 8.56859H5.29688V8.8889C5.29688 9.12778 5.49228 9.32212 5.73327 9.32212H6.02831V9.09322H5.73327C5.61973 9.09322 5.52704 9.00181 5.52704 8.8889V8.56859ZM5.29688 7.9418V8.20834H5.52704V7.9418C5.52704 7.82889 5.61973 7.73671 5.73327 7.73671H6.02831V7.50781H5.73327C5.49228 7.50781 5.29688 7.70215 5.29688 7.9418Z" fill="white"/>
<path d="M4.29888 9.09322H4.00384V9.32212H4.29888C4.53909 9.32212 4.7345 9.12778 4.7345 8.8889V8.56859H4.50433V8.8889C4.50433 9.00181 4.41242 9.09322 4.29888 9.09322ZM4.00384 7.50781V7.73671H4.29888C4.41242 7.73671 4.50433 7.82889 4.50433 7.9418V8.20834H4.7345V7.9418C4.7345 7.70215 4.53909 7.50781 4.29888 7.50781H4.00384ZM3.14032 8.56859H2.91016V8.8889C2.91016 9.12778 3.10557 9.32212 3.34655 9.32212H3.64159V9.09322H3.34655C3.23301 9.09322 3.14032 9.00181 3.14032 8.8889V8.56859ZM2.91016 7.9418V8.20834H3.14032V7.9418C3.14032 7.82889 3.23301 7.73671 3.34655 7.73671H3.64159V7.50781H3.34655C3.10557 7.50781 2.91016 7.70215 2.91016 7.9418Z" fill="white"/>
<path d="M1.95904 9.09322H1.66399V9.32212H1.95904C2.19925 9.32212 2.39466 9.12778 2.39466 8.8889V8.56859H2.16449V8.8889C2.16449 9.00181 2.07258 9.09322 1.95904 9.09322ZM1.66399 7.50781V7.73671H1.95904C2.07258 7.73671 2.16449 7.82889 2.16449 7.9418V8.20834H2.39466V7.9418C2.39466 7.70215 2.19925 7.50781 1.95904 7.50781H1.66399ZM0.80048 8.56859H0.570312V8.8889C0.570312 9.12778 0.765722 9.32212 1.0067 9.32212H1.30175V9.09322H1.0067C0.893164 9.09322 0.80048 9.00181 0.80048 8.8889V8.56859ZM0.570312 7.9418V8.20834H0.80048V7.9418C0.80048 7.82889 0.893164 7.73671 1.0067 7.73671H1.30175V7.50781H1.0067C0.765722 7.50781 0.570312 7.70215 0.570312 7.9418Z" fill="white"/>
<path d="M11.502 9.09322H11.207V9.32212H11.502C11.7422 9.32212 11.9376 9.12778 11.9376 8.8889V8.56859H11.7075V8.8889C11.7075 9.00181 11.6155 9.09322 11.502 9.09322ZM11.207 7.50781V7.73671H11.502C11.6155 7.73671 11.7075 7.82889 11.7075 7.9418V8.20834H11.9376V7.9418C11.9376 7.70215 11.7422 7.50781 11.502 7.50781H11.207ZM10.3434 8.56859H10.1133V8.8889C10.1133 9.12778 10.3087 9.32212 10.5497 9.32212H10.8447V9.09322H10.5497C10.4361 9.09322 10.3434 9.00181 10.3434 8.8889V8.56859ZM10.1133 7.9418V8.20834H10.3434V7.9418C10.3434 7.82889 10.4361 7.73671 10.5497 7.73671H10.8447V7.50781H10.5497C10.3087 7.50781 10.1133 7.70215 10.1133 7.9418Z" fill="white"/>
<path d="M7.88091 11.3686H7.58587V11.5975H7.88091C8.12112 11.5975 8.31653 11.4032 8.31653 11.1643V10.844H8.08637V11.1643C8.08637 11.2772 7.99445 11.3686 7.88091 11.3686ZM7.58587 9.7832V10.0121H7.88091C7.99445 10.0121 8.08637 10.1043 8.08637 10.2172V10.4837H8.31653V10.2172C8.31653 9.97754 8.12112 9.7832 7.88091 9.7832H7.58587ZM6.72236 10.844H6.49219V11.1643C6.49219 11.4032 6.6876 11.5975 6.92858 11.5975H7.22362V11.3686H6.92858C6.81504 11.3686 6.72236 11.2772 6.72236 11.1643V10.844ZM6.49219 10.2172V10.4837H6.72236V10.2172C6.72236 10.1043 6.81504 10.0121 6.92858 10.0121H7.22362V9.7832H6.92858C6.6876 9.7832 6.49219 9.97754 6.49219 10.2172Z" fill="white"/>
<path d="M5.45513 11.3687H5.16009V11.5976H5.45513C5.69534 11.5976 5.89075 11.4033 5.89075 11.1644V10.8441H5.66058V11.1644C5.66058 11.2773 5.56867 11.3687 5.45513 11.3687ZM5.16009 9.78333V10.0122H5.45513C5.56867 10.0122 5.66058 10.1044 5.66058 10.2173V10.4839H5.89075V10.2173C5.89075 9.97766 5.69534 9.78333 5.45513 9.78333H5.16009ZM4.29657 10.8441H4.06641V11.1644C4.06641 11.4033 4.26182 11.5976 4.5028 11.5976H4.79784V11.3687H4.5028C4.38926 11.3687 4.29657 11.2773 4.29657 11.1644V10.8441ZM4.06641 10.2173V10.4839H4.29657V10.2173C4.29657 10.1044 4.38926 10.0122 4.5028 10.0122H4.79784V9.78333H4.5028C4.26182 9.78333 4.06641 9.97766 4.06641 10.2173Z" fill="white"/>
<path d="M3.05279 11.3686H2.75774V11.5975H3.05279C3.293 11.5975 3.48841 11.4032 3.48841 11.1643V10.844H3.25824V11.1643C3.25824 11.2772 3.16633 11.3686 3.05279 11.3686ZM2.75774 9.7832V10.0121H3.05279C3.16633 10.0121 3.25824 10.1043 3.25824 10.2172V10.4837H3.48841V10.2172C3.48841 9.97754 3.293 9.7832 3.05279 9.7832H2.75774ZM1.89423 10.844H1.66406V11.1643C1.66406 11.4032 1.85947 11.5975 2.10045 11.5975H2.3955V11.3686H2.10045C1.98691 11.3686 1.89423 11.2772 1.89423 11.1643V10.844ZM1.66406 10.2172V10.4837H1.89423V10.2172C1.89423 10.1043 1.98691 10.0121 2.10045 10.0121H2.3955V9.7832H2.10045C1.85947 9.7832 1.66406 9.97754 1.66406 10.2172Z" fill="white"/>
<path d="M0.681694 11.3687H0.386647V11.5976H0.681694C0.921902 11.5976 1.11731 11.4033 1.11731 11.1644V10.8441H0.887145V11.1644C0.887145 11.2773 0.795232 11.3687 0.681694 11.3687ZM0.386647 9.78333V10.0122H0.681694C0.795232 10.0122 0.887145 10.1044 0.887145 10.2173V10.4839H1.11731V10.2173C1.11731 9.97766 0.921902 9.78333 0.681694 9.78333H0.386647ZM-0.476866 10.8441H-0.707031V11.1644C-0.707031 11.4033 -0.511621 11.5976 -0.270641 11.5976H0.024406V11.3687H-0.270641C-0.38418 11.3687 -0.476866 11.2773 -0.476866 11.1644V10.8441ZM-0.707031 10.2173V10.4839H-0.476866V10.2173C-0.476866 10.1044 -0.38418 10.0122 -0.270641 10.0122H0.024406V9.78333H-0.270641C-0.511621 9.78333 -0.707031 9.97766 -0.707031 10.2173Z" fill="white"/>
</g>
<mask id="mask2_3637_9163" style="mask-type:luminance" maskUnits="userSpaceOnUse" x="11" y="0" width="12" height="12">
<path d="M11.6602 0.75293V5.44923C15.2679 5.44923 18.1921 8.35735 18.1921 11.9452H22.9175C22.9175 5.76493 17.8778 0.75293 11.6609 0.75293H11.6602Z" fill="white"/>
</mask>
<g mask="url(#mask2_3637_9163)">
<path d="M12.3962 0.78418H10.9766V5.45129H12.3962V0.78418Z" fill="url(#paint2_linear_3637_9163)"/>
<path d="M20.1799 4.61514L19.1836 3.60938L15.8404 6.88466L16.8366 7.89043L20.1799 4.61514Z" fill="url(#paint3_linear_3637_9163)"/>
<path d="M21.8108 7.07533L21.1133 5.8457L17.0259 8.13894L17.7235 9.36856L21.8108 7.07533Z" fill="url(#paint4_linear_3637_9163)"/>
<path d="M15.3039 1.35409L13.9336 0.985352L12.7079 5.49047L14.0782 5.85921L15.3039 1.35409Z" fill="url(#paint5_linear_3637_9163)"/>
<path d="M22.741 9.87594L22.3906 8.50781L17.8429 9.6598L18.1933 11.0279L22.741 9.87594Z" fill="url(#paint6_linear_3637_9163)"/>
<path d="M17.9563 2.66521L16.7305 1.95312L14.3635 5.9831L15.5893 6.69519L17.9563 2.66521Z" fill="url(#paint7_linear_3637_9163)"/>
<path d="M22.8967 12.8159L22.918 11.4043L18.2256 11.3342L18.2043 12.7459L22.8967 12.8159Z" fill="url(#paint8_linear_3637_9163)"/>
</g>
<path d="M11.664 21.7769V23.1357C11.3782 23.1357 11.0924 23.1242 10.812 23.1042C10.3664 22.621 10.1084 21.74 9.82573 20.7706C9.68593 20.2844 9.45962 19.514 9.28275 19.1983C8.93982 19.3458 8.27403 19.8604 7.85618 20.1822C7.07608 20.7852 6.36704 21.3306 5.73833 21.4612C5.41239 21.5295 5.11194 21.4896 4.83234 21.2876C4.55197 21.0833 4.41526 20.8098 4.38359 20.4772C4.31485 19.8374 4.62071 18.9932 4.95824 18.0638C5.13588 17.5745 5.41857 16.7933 5.45255 16.4292C5.09263 16.3524 4.2716 16.3777 3.75179 16.3954C2.75157 16.4269 1.84248 16.4576 1.24776 16.1911C0.941896 16.0574 0.72177 15.8439 0.612865 15.5113C0.50705 15.1871 0.561118 14.8883 0.730268 14.6072C1.04771 14.0611 1.77915 13.5641 2.58551 13.021C3.03425 12.7138 3.7572 12.2253 3.9974 11.9434H5.13202C5.13202 12.2107 5.14901 12.478 5.18377 12.7368C4.82384 13.2261 4.16037 13.6747 3.38877 14.1955C3.06824 14.4113 2.60868 14.724 2.29664 14.9797C2.71372 15.0051 3.30304 14.9882 3.70622 14.9744C4.6099 14.946 5.3869 14.9206 5.95305 15.0934C6.25042 15.1818 6.49062 15.3292 6.65591 15.5566C6.82429 15.787 6.89071 16.0597 6.88762 16.3754C6.87604 16.9669 6.61034 17.6974 6.30139 18.5477C6.16391 18.9233 5.97004 19.4687 5.86655 19.8665C6.21257 19.6476 6.66672 19.3012 6.97876 19.0593C7.70479 18.5024 8.3281 18.0184 8.89656 17.8279C9.06803 17.768 9.23409 17.7373 9.39397 17.7373C9.51446 17.7373 9.63109 17.7573 9.74849 17.7941C10.0173 17.8825 10.2312 18.0645 10.4058 18.3203C10.7402 18.7981 10.9549 19.5286 11.2006 20.3758C11.321 20.7883 11.4948 21.3936 11.6609 21.783C11.6609 21.7799 11.664 21.7799 11.664 21.7776V21.7769Z" fill="url(#paint9_linear_3637_9163)"/>
<defs>
<linearGradient id="paint0_linear_3637_9163" x1="0.40625" y1="6.34926" x2="11.6597" y2="6.34926" gradientUnits="userSpaceOnUse">
<stop stop-color="#037AD6"/>
<stop offset="1" stop-color="#03DDAF"/>
</linearGradient>
<linearGradient id="paint1_linear_3637_9163" x1="11.6641" y1="17.5407" x2="22.9183" y2="17.5407" gradientUnits="userSpaceOnUse">
<stop stop-color="#037AD6"/>
<stop offset="1" stop-color="#03DDAF"/>
</linearGradient>
<linearGradient id="paint2_linear_3637_9163" x1="10.9766" y1="3.11774" x2="12.3962" y2="3.11774" gradientUnits="userSpaceOnUse">
<stop stop-color="#037AD6"/>
<stop offset="1" stop-color="#03DDAF"/>
</linearGradient>
<linearGradient id="paint3_linear_3637_9163" x1="15.8414" y1="5.74896" x2="20.1814" y2="5.74895" gradientUnits="userSpaceOnUse">
<stop stop-color="#037AD6"/>
<stop offset="1" stop-color="#03DDAF"/>
</linearGradient>
<linearGradient id="paint4_linear_3637_9163" x1="17.0243" y1="7.60794" x2="21.8091" y2="7.60794" gradientUnits="userSpaceOnUse">
<stop stop-color="#037AD6"/>
<stop offset="1" stop-color="#03DDAF"/>
</linearGradient>
<linearGradient id="paint5_linear_3637_9163" x1="12.7062" y1="3.42437" x2="15.3029" y2="3.42437" gradientUnits="userSpaceOnUse">
<stop stop-color="#037AD6"/>
<stop offset="1" stop-color="#03DDAF"/>
</linearGradient>
<linearGradient id="paint6_linear_3637_9163" x1="17.8409" y1="9.77181" x2="22.7385" y2="9.77181" gradientUnits="userSpaceOnUse">
<stop stop-color="#037AD6"/>
<stop offset="1" stop-color="#03DDAF"/>
</linearGradient>
<linearGradient id="paint7_linear_3637_9163" x1="14.366" y1="4.32134" x2="17.9583" y2="4.32134" gradientUnits="userSpaceOnUse">
<stop stop-color="#037AD6"/>
<stop offset="1" stop-color="#03DDAF"/>
</linearGradient>
<linearGradient id="paint8_linear_3637_9163" x1="18.2063" y1="12.0736" x2="22.9201" y2="12.0736" gradientUnits="userSpaceOnUse">
<stop stop-color="#037AD6"/>
<stop offset="1" stop-color="#03DDAF"/>
</linearGradient>
<linearGradient id="paint9_linear_3637_9163" x1="0.5588" y1="17.5399" x2="11.664" y2="17.5399" gradientUnits="userSpaceOnUse">
<stop stop-color="#037AD6"/>
<stop offset="1" stop-color="#03DDAF"/>
</linearGradient>
</defs>
</svg>
