<svg width="500" height="502" viewBox="0 0 500 502" fill="none" xmlns="http://www.w3.org/2000/svg">
<path d="M454.291 246.578C454.291 358.302 364.623 448.858 254.029 448.858C143.435 448.858 53.7669 358.302 53.7669 246.578C53.7669 134.854 143.435 44.2981 254.029 44.2981C364.623 44.2981 454.291 134.854 454.291 246.578Z" stroke="black" stroke-width="1.69"/>
<line x1="253.824" y1="43.4531" x2="253.824" y2="449.703" stroke="black" stroke-width="1.69"/>
<line y1="-0.845002" x2="401.902" y2="-0.845002" transform="matrix(0.863241 -0.504793 0.516699 0.856167 81.2266 348.102)" stroke="black" stroke-width="1.69"/>
<line y1="-0.845002" x2="405.074" y2="-0.845002" transform="matrix(0.496122 -0.868253 0.874859 0.484377 153.344 422.539)" stroke="black" stroke-width="1.69"/>
<line y1="-0.845002" x2="405.196" y2="-0.845002" transform="matrix(0.496595 0.867982 -0.8746 0.484846 153.361 70.8359)" stroke="black" stroke-width="1.69"/>
<line x1="80.4257" y1="144.27" x2="428.678" y2="347.399" stroke="black" stroke-width="1.69"/>
<line x1="455.139" y1="246.361" x2="52.9243" y2="246.361" stroke="black" stroke-width="1.69"/>
<path d="M252.5 244L154.001 72.0038C139.126 80.9805 108 100 82.0003 144.5L252.5 244Z" fill="#0280D4"/>
<path d="M143.998 441.963L143.181 444.733L146.898 445.836L146.38 447.592L142.663 446.489L141.799 449.417L145.99 450.661L145.458 452.465L139.051 450.564L142.316 439.502L148.723 441.403L148.19 443.207L143.998 441.963ZM152.311 454.498L151.311 451.241L148.91 453.489L146.537 452.785L150.699 449.235L149.093 444.009L151.592 444.75L152.581 447.987L154.993 445.759L157.366 446.463L153.198 449.977L154.81 455.24L152.311 454.498ZM160.441 448.753C160.845 448.436 161.333 448.22 161.906 448.103C162.493 447.979 163.109 448.012 163.752 448.203C164.501 448.425 165.121 448.81 165.613 449.358C166.116 449.909 166.44 450.579 166.586 451.368C166.745 452.149 166.692 452.988 166.427 453.885C166.163 454.782 165.748 455.525 165.184 456.115C164.634 456.698 163.997 457.088 163.273 457.286C162.56 457.488 161.829 457.477 161.08 457.255C160.437 457.064 159.906 456.763 159.489 456.353C159.081 455.945 158.784 455.495 158.596 455.004L156.994 460.432L154.78 459.775L158.601 446.83L160.815 447.487L160.441 448.753ZM164.165 453.214C164.321 452.686 164.344 452.2 164.235 451.754C164.139 451.301 163.942 450.922 163.642 450.615C163.353 450.311 163.003 450.098 162.592 449.976C162.191 449.857 161.781 449.85 161.36 449.955C160.953 450.052 160.581 450.263 160.244 450.587C159.918 450.915 159.677 451.343 159.521 451.87C159.366 452.398 159.336 452.888 159.431 453.341C159.538 453.797 159.734 454.182 160.019 454.496C160.319 454.803 160.669 455.016 161.069 455.135C161.481 455.257 161.891 455.264 162.302 455.156C162.723 455.052 163.096 454.836 163.422 454.508C163.759 454.183 164.007 453.752 164.165 453.214ZM176.23 456.622C176.136 456.938 176.031 457.217 175.914 457.457L169.508 455.556C169.374 456.205 169.449 456.767 169.733 457.241C170.018 457.716 170.444 458.037 171.014 458.206C171.836 458.45 172.526 458.271 173.083 457.667L175.471 458.376C174.969 459.145 174.278 459.697 173.399 460.033C172.523 460.358 171.564 460.366 170.52 460.056C169.676 459.806 168.971 459.396 168.405 458.826C167.853 458.249 167.488 457.562 167.311 456.763C167.144 455.968 167.193 455.122 167.458 454.225C167.726 453.318 168.145 452.576 168.717 452C169.288 451.424 169.961 451.05 170.734 450.877C171.507 450.705 172.327 450.748 173.191 451.004C174.024 451.251 174.715 451.651 175.263 452.204C175.821 452.76 176.182 453.423 176.344 454.194C176.52 454.958 176.482 455.767 176.23 456.622ZM174.123 455.308C174.281 454.735 174.209 454.22 173.908 453.764C173.61 453.297 173.171 452.977 172.591 452.805C172.042 452.643 171.529 452.674 171.049 452.899C170.584 453.116 170.222 453.508 169.963 454.074L174.123 455.308ZM180.897 454.926C181.319 454.546 181.795 454.291 182.326 454.162C182.868 454.036 183.435 454.061 184.025 454.236L183.338 456.562L182.753 456.389C182.057 456.182 181.482 456.189 181.027 456.41C180.582 456.634 180.24 457.152 180 457.964L178.711 462.332L176.496 461.675L179.084 452.908L181.299 453.565L180.897 454.926ZM186.911 454.094C186.521 453.978 186.229 453.76 186.037 453.439C185.859 453.111 185.824 452.762 185.933 452.393C186.042 452.023 186.259 451.755 186.584 451.587C186.922 451.413 187.287 451.383 187.677 451.499C188.067 451.614 188.351 451.837 188.53 452.165C188.722 452.486 188.763 452.831 188.654 453.2C188.545 453.569 188.321 453.841 187.983 454.016C187.658 454.184 187.301 454.21 186.911 454.094ZM187.694 455.462L185.106 464.229L182.892 463.572L185.479 454.805L187.694 455.462ZM200.802 459.214C201.878 459.533 202.645 460.122 203.102 460.981C203.574 461.832 203.635 462.849 203.286 464.03L201.768 469.173L199.553 468.516L200.983 463.674C201.185 462.988 201.165 462.414 200.923 461.952C200.684 461.48 200.264 461.154 199.663 460.976C199.062 460.798 198.528 460.84 198.06 461.103C197.606 461.358 197.278 461.829 197.076 462.514L195.646 467.357L193.432 466.7L194.861 461.857C195.063 461.172 195.044 460.598 194.801 460.136C194.562 459.663 194.142 459.338 193.541 459.159C192.93 458.978 192.39 459.019 191.923 459.282C191.469 459.537 191.141 460.008 190.938 460.693L189.509 465.536L187.294 464.879L189.882 456.112L192.096 456.769L191.784 457.829C192.177 457.544 192.627 457.362 193.132 457.282C193.648 457.206 194.174 457.248 194.712 457.407C195.398 457.611 195.966 457.94 196.416 458.395C196.87 458.839 197.165 459.374 197.302 460C197.736 459.578 198.267 459.294 198.895 459.147C199.534 459.004 200.17 459.026 200.802 459.214ZM213.366 467.641C213.272 467.957 213.167 468.236 213.05 468.477L206.644 466.576C206.51 467.224 206.585 467.786 206.869 468.26C207.154 468.735 207.58 469.056 208.15 469.225C208.972 469.47 209.662 469.29 210.219 468.686L212.607 469.395C212.105 470.164 211.414 470.716 210.535 471.052C209.659 471.377 208.7 471.385 207.656 471.075C206.812 470.825 206.107 470.415 205.541 469.845C204.989 469.269 204.624 468.581 204.447 467.782C204.28 466.987 204.329 466.141 204.594 465.244C204.862 464.337 205.281 463.595 205.853 463.019C206.424 462.443 207.097 462.069 207.87 461.897C208.643 461.724 209.462 461.767 210.327 462.023C211.16 462.27 211.851 462.67 212.399 463.223C212.957 463.779 213.318 464.442 213.48 465.213C213.656 465.977 213.618 466.786 213.366 467.641ZM211.259 466.327C211.417 465.754 211.345 465.24 211.044 464.783C210.746 464.316 210.307 463.997 209.727 463.824C209.178 463.662 208.665 463.693 208.185 463.918C207.72 464.135 207.358 464.527 207.099 465.093L211.259 466.327ZM221.114 465.241C222.158 465.551 222.903 466.134 223.35 466.989C223.801 467.834 223.851 468.847 223.502 470.029L221.984 475.172L219.77 474.515L221.199 469.673C221.405 468.976 221.388 468.392 221.149 467.919C220.913 467.436 220.495 467.106 219.893 466.927C219.282 466.746 218.741 466.792 218.27 467.065C217.813 467.331 217.482 467.812 217.276 468.508L215.847 473.351L213.632 472.694L216.22 463.927L218.435 464.584L218.112 465.676C218.52 465.384 218.981 465.199 219.497 465.123C220.026 465.039 220.565 465.078 221.114 465.241ZM228.719 469.615L227.467 473.856C227.38 474.151 227.385 474.388 227.482 474.566C227.592 474.736 227.816 474.871 228.153 474.972L229.181 475.277L228.63 477.144L227.238 476.731C225.372 476.177 224.706 474.993 225.242 473.178L226.489 468.953L225.445 468.643L225.982 466.823L227.026 467.133L227.666 464.965L229.896 465.627L229.256 467.795L231.218 468.377L230.681 470.197L228.719 469.615ZM239.719 475.461C239.626 475.777 239.521 476.056 239.404 476.296L232.997 474.395C232.863 475.044 232.938 475.606 233.223 476.08C233.507 476.555 233.934 476.876 234.503 477.045C235.326 477.289 236.016 477.11 236.572 476.506L238.961 477.215C238.459 477.984 237.768 478.536 236.889 478.872C236.013 479.197 235.053 479.205 234.009 478.895C233.165 478.645 232.461 478.235 231.895 477.665C231.342 477.088 230.978 476.401 230.8 475.602C230.634 474.807 230.683 473.961 230.947 473.064C231.215 472.157 231.635 471.415 232.206 470.839C232.778 470.263 233.45 469.888 234.224 469.716C234.997 469.544 235.816 469.586 236.681 469.843C237.514 470.09 238.204 470.49 238.752 471.043C239.311 471.599 239.671 472.262 239.834 473.033C240.01 473.797 239.972 474.606 239.719 475.461ZM237.613 474.147C237.77 473.574 237.698 473.059 237.397 472.603C237.099 472.136 236.66 471.816 236.08 471.644C235.532 471.481 235.018 471.513 234.539 471.738C234.073 471.955 233.711 472.347 233.452 472.912L237.613 474.147ZM244.386 473.765C244.808 473.385 245.285 473.13 245.816 473.001C246.358 472.875 246.924 472.9 247.515 473.075L246.828 475.401L246.243 475.228C245.547 475.021 244.971 475.028 244.516 475.249C244.072 475.473 243.729 475.991 243.49 476.803L242.201 481.171L239.986 480.514L242.574 471.746L244.788 472.404L244.386 473.765Z" fill="black"/>
<path d="M397.183 70.164L393.505 66.7707L391.291 67.9848L389.346 66.1905L401.106 59.9226L403.263 61.9122L398.143 74.3075L396.186 72.501L397.183 70.164ZM398.032 68.205L400.222 63.074L395.36 65.7394L398.032 68.205ZM410.232 71.6973C411.105 72.5029 411.557 73.4342 411.588 74.4913C411.626 75.5395 411.195 76.5619 410.294 77.5587L406.37 81.8975L404.518 80.1886L408.212 76.1035C408.743 75.5161 409.004 74.9324 408.995 74.3524C408.994 73.7635 408.742 73.2371 408.239 72.7733C407.728 72.3013 407.177 72.0872 406.587 72.1309C406.015 72.1739 405.463 72.489 404.931 73.0764L401.237 77.1615L399.385 75.4527L406.074 68.0568L407.926 69.7657L407.093 70.6868C407.629 70.5943 408.168 70.6339 408.708 70.8058C409.265 70.977 409.773 71.2741 410.232 71.6973ZM411.023 79.3584C411.699 78.6108 412.445 78.0821 413.259 77.7721C414.082 77.4703 414.886 77.3955 415.67 77.5479C416.463 77.7083 417.173 78.0774 417.799 78.6552C418.346 79.1597 418.722 79.7104 418.926 80.3072C419.139 80.9121 419.217 81.4976 419.158 82.0637L420.112 81.009L421.977 82.7301L415.288 90.126L413.423 88.4049L414.401 87.3236C413.849 87.451 413.256 87.435 412.624 87.2759C412.008 87.1159 411.427 86.7837 410.88 86.2791C410.262 85.7095 409.843 85.0285 409.621 84.2362C409.408 83.4519 409.413 82.6322 409.637 81.7771C409.877 80.9212 410.339 80.1149 411.023 79.3584ZM416.767 84.707C417.178 84.2531 417.44 83.7846 417.553 83.3014C417.674 82.8094 417.662 82.3405 417.515 81.8947C417.376 81.44 417.134 81.054 416.79 80.7366C416.446 80.4193 416.052 80.2109 415.608 80.1115C415.165 80.012 414.701 80.0415 414.218 80.1999C413.752 80.3576 413.318 80.6589 412.915 81.1039C412.513 81.5489 412.247 82.0219 412.117 82.5228C412.005 83.023 412.013 83.4964 412.143 83.9429C412.282 84.3976 412.519 84.7795 412.854 85.0887C413.198 85.4061 413.597 85.6185 414.049 85.7261C414.51 85.8248 414.974 85.7953 415.44 85.6376C415.914 85.4711 416.357 85.1609 416.767 84.707ZM427.884 83.6248L418.949 93.5038L417.097 91.7949L426.031 81.916L427.884 83.6248ZM434.479 94.2655L420.089 100.972L418.118 99.1536L423.038 96.9338L426.621 87.0151L428.698 88.9314L425.917 95.8433L432.508 92.4468L434.479 94.2655ZM431.485 105.29C430.885 104.737 430.443 104.134 430.16 103.481C429.885 102.819 429.776 102.171 429.832 101.537C429.896 100.911 430.121 100.358 430.505 99.8801L432.37 101.601C432.148 101.918 432.071 102.28 432.14 102.687C432.218 103.102 432.438 103.476 432.799 103.81C433.152 104.135 433.49 104.316 433.813 104.353C434.145 104.398 434.411 104.309 434.612 104.086C434.83 103.846 434.867 103.554 434.725 103.21C434.599 102.866 434.336 102.379 433.936 101.748C433.51 101.11 433.185 100.557 432.961 100.089C432.746 99.6294 432.643 99.1347 432.653 98.605C432.672 98.0834 432.906 97.5735 433.357 97.0751C433.727 96.6657 434.18 96.3977 434.715 96.271C435.259 96.1525 435.836 96.1948 436.445 96.3977C437.063 96.6088 437.668 96.9869 438.259 97.5321C439.132 98.3377 439.627 99.2031 439.745 100.128C439.871 101.044 439.622 101.901 438.999 102.697L437.226 101.061C437.466 100.743 437.551 100.398 437.484 100.026C437.433 99.6522 437.227 99.2988 436.865 98.9651C436.53 98.6559 436.214 98.4782 435.916 98.4319C435.627 98.3937 435.382 98.4859 435.18 98.7084C434.955 98.9576 434.905 99.2629 435.032 99.6242C435.166 99.9767 435.433 100.46 435.832 101.073C436.241 101.695 436.553 102.236 436.768 102.696C436.983 103.155 437.077 103.65 437.051 104.181C437.041 104.711 436.819 105.224 436.385 105.722C435.999 106.149 435.533 106.422 434.989 106.54C434.454 106.667 433.878 106.625 433.259 106.414C432.658 106.202 432.067 105.827 431.485 105.29ZM443.454 105.363L440.219 108.941C439.993 109.19 439.885 109.425 439.896 109.647C439.922 109.867 440.077 110.108 440.359 110.368L441.219 111.162L439.794 112.737L438.63 111.663C437.069 110.223 436.981 108.737 438.365 107.206L441.589 103.642L440.716 102.836L442.104 101.301L442.978 102.107L444.632 100.278L446.497 101.999L444.843 103.828L446.483 105.341L445.095 106.876L443.454 105.363Z" fill="black"/>
<path d="M462.708 130.318C463.854 130.096 464.926 130.154 465.925 130.491C466.937 130.837 467.778 131.407 468.448 132.201C469.132 133.004 469.579 133.962 469.791 135.075C470.039 136.378 469.923 137.583 469.442 138.693C468.96 139.802 468.167 140.665 467.062 141.284L466.55 138.595C467.056 138.22 467.401 137.761 467.586 137.217C467.773 136.684 467.806 136.1 467.685 135.466C467.556 134.787 467.279 134.211 466.855 133.739C466.444 133.276 465.92 132.951 465.284 132.762C464.651 132.585 463.944 132.572 463.166 132.723C462.398 132.872 461.747 133.148 461.212 133.552C460.691 133.965 460.319 134.464 460.096 135.05C459.886 135.644 459.845 136.281 459.975 136.961C460.096 137.595 460.341 138.125 460.71 138.55C461.092 138.983 461.587 139.28 462.194 139.439L462.706 142.128C461.441 141.969 460.382 141.465 459.528 140.614C458.687 139.773 458.142 138.695 457.892 137.382C457.68 136.268 457.738 135.212 458.067 134.213C458.41 133.223 458.982 132.379 459.783 131.682C460.587 130.995 461.562 130.54 462.708 130.318ZM460.046 148.974C459.877 148.084 459.919 147.244 460.173 146.456C460.438 145.666 460.893 144.995 461.537 144.443C462.184 143.902 462.981 143.54 463.926 143.356C464.872 143.173 465.746 143.217 466.547 143.489C467.351 143.772 468.017 144.237 468.544 144.885C469.082 145.531 469.436 146.3 469.605 147.19C469.775 148.081 469.728 148.927 469.466 149.728C469.214 150.528 468.766 151.203 468.121 151.755C467.478 152.319 466.684 152.692 465.738 152.875C464.792 153.059 463.917 153.003 463.111 152.709C462.307 152.426 461.635 151.956 461.095 151.299C460.567 150.651 460.218 149.876 460.046 148.974ZM462.082 148.58C462.163 149.003 462.338 149.378 462.609 149.707C462.892 150.045 463.261 150.285 463.715 150.428C464.169 150.57 464.691 150.585 465.28 150.47C466.159 150.3 466.788 149.936 467.166 149.378C467.558 148.828 467.69 148.22 467.563 147.552C467.436 146.884 467.09 146.368 466.524 146.004C465.972 145.649 465.257 145.557 464.378 145.728C463.499 145.898 462.861 146.247 462.466 146.774C462.083 147.31 461.955 147.912 462.082 148.58ZM474.237 155.43L461.887 157.824L461.442 155.486L473.792 153.092L474.237 155.43ZM475.122 160.078L462.771 162.472L462.326 160.134L474.676 157.74L475.122 160.078ZM467.753 163.279C468.688 163.097 469.551 163.12 470.345 163.348C471.14 163.586 471.793 163.985 472.303 164.544C472.815 165.114 473.147 165.794 473.297 166.585C473.428 167.275 473.404 167.903 473.223 168.469C473.044 169.047 472.773 169.532 472.41 169.926L473.728 169.67L474.177 172.025L464.931 173.817L464.483 171.463L465.834 171.2C465.343 170.984 464.902 170.637 464.511 170.158C464.133 169.689 463.879 169.109 463.748 168.419C463.599 167.639 463.664 166.888 463.941 166.165C464.221 165.452 464.687 164.837 465.338 164.318C466.002 163.808 466.807 163.462 467.753 163.279ZM469.106 170.566C469.673 170.456 470.136 170.251 470.494 169.951C470.863 169.648 471.118 169.287 471.257 168.868C471.407 168.446 471.441 168.018 471.359 167.584C471.276 167.15 471.094 166.77 470.813 166.443C470.531 166.117 470.163 165.877 469.706 165.723C469.263 165.578 468.764 165.559 468.208 165.667C467.651 165.775 467.183 165.981 466.802 166.285C466.435 166.599 466.175 166.961 466.023 167.372C465.872 167.793 465.837 168.216 465.918 168.639C466.001 169.073 466.184 169.459 466.467 169.796C466.762 170.132 467.13 170.372 467.573 170.517C468.027 170.66 468.538 170.676 469.106 170.566ZM473.705 176.909C474.207 177.123 474.647 177.465 475.025 177.934C475.404 178.415 475.659 178.994 475.788 179.673C475.939 180.464 475.88 181.214 475.611 181.924C475.345 182.646 474.885 183.26 474.231 183.768C473.591 184.284 472.798 184.634 471.853 184.817C470.907 185.001 470.031 184.974 469.225 184.738C468.431 184.511 467.773 184.113 467.25 183.545C466.728 182.988 466.392 182.314 466.242 181.524C466.111 180.834 466.129 180.201 466.296 179.626C466.477 179.06 466.754 178.579 467.129 178.183L465.81 178.439L465.365 176.101L477.716 173.707L478.161 176.045L473.705 176.909ZM471.398 182.429C471.954 182.321 472.411 182.112 472.767 181.8C473.136 181.498 473.39 181.137 473.53 180.717C473.671 180.309 473.701 179.888 473.618 179.453C473.537 179.03 473.35 178.651 473.055 178.316C472.774 177.989 472.405 177.749 471.949 177.595C471.495 177.452 470.99 177.435 470.433 177.543C469.877 177.65 469.414 177.856 469.045 178.158C468.678 178.472 468.418 178.834 468.265 179.244C468.126 179.664 468.097 180.085 468.177 180.508C468.26 180.942 468.447 181.322 468.74 181.646C469.034 181.981 469.409 182.22 469.863 182.363C470.319 182.517 470.831 182.539 471.398 182.429ZM468.152 191.556C467.982 190.666 468.024 189.826 468.278 189.038C468.543 188.248 468.998 187.577 469.642 187.025C470.289 186.484 471.086 186.122 472.031 185.938C472.977 185.755 473.851 185.799 474.652 186.071C475.456 186.354 476.122 186.819 476.649 187.468C477.187 188.114 477.541 188.882 477.711 189.773C477.88 190.663 477.833 191.509 477.571 192.311C477.319 193.11 476.871 193.785 476.226 194.338C475.583 194.901 474.789 195.274 473.843 195.457C472.898 195.641 472.022 195.585 471.216 195.291C470.412 195.009 469.74 194.539 469.2 193.881C468.673 193.233 468.323 192.458 468.152 191.556ZM470.188 191.162C470.268 191.585 470.444 191.961 470.714 192.289C470.997 192.627 471.366 192.867 471.82 193.01C472.274 193.153 472.796 193.167 473.386 193.053C474.265 192.882 474.893 192.518 475.272 191.96C475.663 191.411 475.795 190.802 475.668 190.134C475.541 189.466 475.195 188.95 474.629 188.586C474.077 188.232 473.362 188.139 472.483 188.31C471.604 188.48 470.966 188.829 470.571 189.356C470.188 189.892 470.06 190.494 470.188 191.162ZM477.802 198.893C478.349 199.098 478.807 199.414 479.177 199.838C479.548 200.274 479.793 200.804 479.912 201.427L477.458 201.903L477.341 201.285C477.201 200.55 476.922 200.027 476.505 199.715C476.091 199.415 475.455 199.348 474.598 199.514L469.992 200.407L469.547 198.069L478.793 196.276L479.238 198.614L477.802 198.893ZM475.374 203.317C476.308 203.135 477.172 203.158 477.965 203.386C478.761 203.624 479.413 204.023 479.924 204.582C480.436 205.152 480.767 205.832 480.918 206.623C481.049 207.313 481.025 207.941 480.844 208.507C480.665 209.085 480.394 209.57 480.031 209.964L481.349 209.708L481.798 212.063L472.552 213.855L472.103 211.501L473.455 211.238C472.964 211.022 472.523 210.675 472.132 210.196C471.754 209.727 471.5 209.147 471.368 208.457C471.22 207.677 471.285 206.926 471.562 206.203C471.842 205.49 472.308 204.875 472.959 204.356C473.623 203.846 474.428 203.5 475.374 203.317ZM476.726 210.604C477.294 210.494 477.757 210.289 478.115 209.989C478.484 209.686 478.738 209.325 478.878 208.906C479.028 208.484 479.062 208.056 478.98 207.622C478.897 207.188 478.715 206.808 478.434 206.481C478.152 206.155 477.783 205.915 477.327 205.761C476.884 205.616 476.385 205.597 475.828 205.705C475.272 205.813 474.804 206.019 474.423 206.323C474.056 206.637 473.796 206.999 473.644 207.41C473.493 207.831 473.458 208.254 473.539 208.677C473.621 209.111 473.804 209.497 474.088 209.834C474.383 210.17 474.751 210.41 475.194 210.555C475.648 210.698 476.159 210.714 476.726 210.604ZM480.831 217.441L476.358 218.308C476.047 218.368 475.832 218.485 475.715 218.657C475.612 218.839 475.594 219.108 475.661 219.464L475.868 220.55L473.899 220.932L473.619 219.462C473.244 217.491 474.013 216.321 475.927 215.95L480.383 215.086L480.173 213.984L482.092 213.612L482.302 214.714L484.589 214.271L485.037 216.625L482.75 217.069L483.145 219.139L481.225 219.511L480.831 217.441ZM474.85 226.751C474.681 225.86 474.723 225.021 474.977 224.233C475.242 223.442 475.697 222.771 476.341 222.219C476.988 221.678 477.785 221.316 478.73 221.133C479.676 220.949 480.55 220.994 481.351 221.265C482.155 221.548 482.821 222.014 483.348 222.662C483.886 223.308 484.24 224.076 484.409 224.967C484.579 225.858 484.532 226.704 484.27 227.505C484.018 228.304 483.57 228.98 482.925 229.532C482.282 230.095 481.488 230.468 480.542 230.652C479.597 230.835 478.721 230.78 477.915 230.486C477.111 230.203 476.439 229.733 475.899 229.076C475.372 228.427 475.022 227.652 474.85 226.751ZM476.887 226.356C476.967 226.779 477.142 227.155 477.413 227.483C477.696 227.821 478.065 228.061 478.519 228.204C478.973 228.347 479.495 228.361 480.085 228.247C480.963 228.077 481.592 227.712 481.97 227.154C482.362 226.605 482.494 225.996 482.367 225.328C482.24 224.66 481.894 224.144 481.328 223.781C480.776 223.426 480.061 223.334 479.182 223.504C478.303 223.674 477.665 224.023 477.27 224.55C476.887 225.086 476.759 225.688 476.887 226.356ZM484.501 234.087C485.048 234.293 485.506 234.608 485.875 235.033C486.247 235.469 486.492 235.998 486.611 236.622L484.157 237.097L484.04 236.479C483.9 235.745 483.621 235.221 483.204 234.91C482.79 234.609 482.154 234.542 481.297 234.708L476.691 235.601L476.246 233.263L485.492 231.471L485.937 233.809L484.501 234.087Z" fill="black"/>
<path d="M462.46 339.26L463.736 335.321L465.636 335.939L463.584 342.275L451.636 338.388L452.413 335.99L462.46 339.26ZM464.04 323.987C464.382 324.098 464.683 324.222 464.942 324.356L462.695 331.292C463.399 331.457 464.013 331.392 464.537 331.096C465.062 330.8 465.424 330.343 465.624 329.727C465.913 328.836 465.735 328.078 465.093 327.453L465.931 324.867C466.755 325.438 467.338 326.208 467.68 327.178C468.01 328.143 467.992 329.191 467.626 330.322C467.33 331.235 466.864 331.992 466.228 332.593C465.585 333.178 464.825 333.556 463.95 333.725C463.079 333.883 462.159 333.805 461.189 333.489C460.207 333.17 459.411 332.69 458.798 332.049C458.186 331.408 457.797 330.663 457.63 329.814C457.464 328.965 457.532 328.072 457.835 327.136C458.128 326.234 458.582 325.492 459.2 324.911C459.821 324.318 460.553 323.944 461.398 323.79C462.235 323.621 463.115 323.686 464.04 323.987ZM462.551 326.247C461.931 326.058 461.368 326.121 460.862 326.436C460.345 326.747 459.985 327.217 459.782 327.845C459.589 328.438 459.609 329 459.841 329.53C460.066 330.045 460.483 330.452 461.092 330.751L462.551 326.247ZM464.578 322.909C463.62 322.597 462.83 322.132 462.211 321.514C461.595 320.885 461.192 320.18 461.004 319.399C460.819 318.607 460.858 317.806 461.12 316.995C461.35 316.287 461.692 315.717 462.147 315.285C462.606 314.841 463.105 314.53 463.642 314.352L462.289 313.912L463.072 311.497L472.554 314.583L471.772 316.997L470.386 316.546C470.731 316.999 470.963 317.548 471.082 318.192C471.194 318.822 471.135 319.49 470.906 320.198C470.647 320.997 470.205 321.661 469.579 322.189C468.958 322.707 468.213 323.038 467.346 323.185C466.471 323.317 465.548 323.225 464.578 322.909ZM467.031 315.454C466.449 315.265 465.915 315.218 465.431 315.312C464.935 315.403 464.515 315.608 464.173 315.925C463.819 316.239 463.57 316.619 463.425 317.064C463.281 317.509 463.256 317.955 463.351 318.403C463.446 318.85 463.666 319.262 464.01 319.639C464.347 320.001 464.801 320.275 465.371 320.461C465.942 320.646 466.481 320.695 466.989 320.608C467.488 320.506 467.913 320.303 468.264 320.001C468.618 319.687 468.865 319.313 469.005 318.879C469.15 318.434 469.176 317.982 469.085 317.524C468.983 317.061 468.763 316.649 468.426 316.287C468.078 315.921 467.613 315.644 467.031 315.454ZM468.337 311.304C467.379 310.992 466.59 310.527 465.97 309.909C465.354 309.279 464.954 308.569 464.769 307.777C464.584 306.984 464.623 306.183 464.885 305.373C465.085 304.756 465.412 304.213 465.867 303.743C466.311 303.269 466.809 302.938 467.361 302.752L462.86 301.287L463.647 298.856L476.314 302.977L475.526 305.409L474.122 304.952C474.494 305.401 474.736 305.94 474.847 306.57C474.959 307.199 474.9 307.868 474.67 308.575C474.412 309.375 473.97 310.038 473.344 310.567C472.719 311.095 471.973 311.433 471.105 311.58C470.23 311.711 469.307 311.619 468.337 311.304ZM470.79 303.849C470.208 303.66 469.675 303.612 469.19 303.707C468.694 303.798 468.275 304.002 467.932 304.32C467.578 304.634 467.329 305.013 467.185 305.458C467.041 305.904 467.016 306.35 467.111 306.797C467.205 307.244 467.425 307.657 467.77 308.034C468.106 308.396 468.56 308.669 469.131 308.855C469.701 309.041 470.24 309.09 470.748 309.003C471.248 308.9 471.673 308.698 472.023 308.395C472.377 308.082 472.624 307.708 472.765 307.274C472.909 306.829 472.936 306.377 472.845 305.918C472.742 305.456 472.522 305.043 472.186 304.682C471.837 304.316 471.372 304.038 470.79 303.849ZM474.982 290.207C475.324 290.319 475.625 290.442 475.884 290.577L473.638 297.512C474.341 297.677 474.955 297.612 475.48 297.316C476.004 297.02 476.367 296.564 476.566 295.947C476.855 295.057 476.678 294.299 476.035 293.673L476.873 291.088C477.697 291.659 478.28 292.429 478.622 293.398C478.952 294.364 478.935 295.412 478.569 296.542C478.273 297.455 477.807 298.212 477.171 298.813C476.527 299.398 475.768 299.776 474.893 299.946C474.022 300.104 473.101 300.025 472.131 299.709C471.15 299.39 470.353 298.91 469.741 298.269C469.128 297.628 468.739 296.883 468.573 296.034C468.406 295.185 468.475 294.292 468.778 293.356C469.07 292.454 469.525 291.713 470.142 291.131C470.763 290.538 471.496 290.164 472.34 290.01C473.177 289.841 474.058 289.907 474.982 290.207ZM473.493 292.468C472.873 292.278 472.31 292.341 471.805 292.656C471.288 292.968 470.927 293.437 470.724 294.065C470.532 294.659 470.552 295.22 470.784 295.75C471.008 296.265 471.425 296.672 472.034 296.971L473.493 292.468ZM473.262 285.063C472.859 284.592 472.595 284.064 472.469 283.48C472.346 282.885 472.389 282.268 472.596 281.629L475.112 282.447L474.907 283.081C474.662 283.834 474.654 284.463 474.882 284.966C475.114 285.458 475.669 285.847 476.548 286.132L481.272 287.67L480.496 290.067L471.013 286.982L471.79 284.584L473.262 285.063Z" fill="black"/>
<path d="M394.111 431.78C393.57 432.406 392.974 432.878 392.324 433.196C391.682 433.506 391.035 433.63 390.383 433.569C389.732 433.508 389.13 433.242 388.579 432.771L390.247 430.843C390.635 431.139 391.035 431.265 391.448 431.221C391.868 431.169 392.256 430.937 392.612 430.525C392.975 430.105 393.163 429.689 393.175 429.277C393.178 428.857 393.019 428.505 392.696 428.22C392.432 427.987 392.145 427.878 391.834 427.891C391.523 427.903 391.214 427.993 390.905 428.159C390.595 428.309 390.196 428.546 389.706 428.87C389.032 429.303 388.454 429.632 387.974 429.858C387.493 430.068 386.971 430.16 386.41 430.133C385.847 430.091 385.286 429.822 384.725 429.327C384.198 428.862 383.854 428.325 383.692 427.714C383.531 427.104 383.556 426.469 383.767 425.809C383.97 425.141 384.338 424.499 384.872 423.882C385.673 422.956 386.547 422.405 387.495 422.228C388.441 422.035 389.339 422.261 390.19 422.905L388.477 424.885C388.157 424.633 387.791 424.544 387.38 424.62C386.969 424.681 386.589 424.912 386.24 425.315C385.936 425.666 385.781 426.028 385.774 426.399C385.774 426.763 385.945 427.094 386.285 427.394C386.523 427.604 386.789 427.703 387.084 427.691C387.378 427.663 387.676 427.578 387.978 427.437C388.279 427.279 388.679 427.042 389.177 426.726C389.852 426.293 390.433 425.968 390.922 425.749C391.411 425.53 391.94 425.438 392.51 425.472C393.08 425.506 393.641 425.767 394.194 426.254C394.67 426.674 395.004 427.188 395.197 427.796C395.39 428.405 395.402 429.058 395.234 429.755C395.056 430.445 394.682 431.12 394.111 431.78ZM396.872 414.012L403.936 420.241L402.368 422.054L401.475 421.267C401.581 421.768 401.56 422.286 401.413 422.82C401.264 423.339 401 423.817 400.622 424.254C400.14 424.811 399.599 425.203 398.999 425.429C398.39 425.647 397.753 425.682 397.087 425.534C396.421 425.369 395.773 425.009 395.144 424.455L391 420.8L392.557 419L396.446 422.43C397.007 422.924 397.563 423.165 398.113 423.152C398.656 423.132 399.138 422.877 399.561 422.389C399.991 421.892 400.179 421.37 400.127 420.825C400.065 420.273 399.754 419.749 399.193 419.254L395.304 415.825L396.872 414.012ZM400.986 411.336C400.863 410.819 400.87 410.266 401.006 409.676C401.141 409.069 401.434 408.505 401.886 407.982C402.413 407.374 403.036 406.956 403.756 406.73C404.484 406.495 405.246 406.48 406.044 406.684C406.84 406.873 407.599 407.285 408.322 407.923C409.044 408.56 409.56 409.271 409.869 410.058C410.177 410.828 410.268 411.596 410.144 412.363C410.028 413.122 409.706 413.805 409.18 414.414C408.728 414.936 408.221 415.306 407.66 415.521C407.106 415.728 406.56 415.813 406.022 415.777L410.396 419.633L408.839 421.433L398.409 412.236L399.966 410.436L400.986 411.336ZM406.731 409.761C406.306 409.386 405.863 409.154 405.401 409.064C404.938 408.958 404.5 408.98 404.086 409.129C403.68 409.269 403.332 409.506 403.043 409.841C402.762 410.166 402.58 410.55 402.497 410.991C402.414 411.417 402.452 411.858 402.611 412.315C402.777 412.764 403.073 413.176 403.498 413.551C403.923 413.925 404.367 414.166 404.83 414.272C405.3 414.369 405.742 414.351 406.157 414.218C406.571 414.069 406.918 413.832 407.2 413.506C407.489 413.172 407.671 412.788 407.746 412.356C407.828 411.914 407.786 411.469 407.62 411.021C407.461 410.563 407.165 410.143 406.731 409.761ZM408.524 402.622C408.401 402.106 408.408 401.553 408.544 400.962C408.679 400.356 408.972 399.791 409.424 399.269C409.951 398.66 410.574 398.243 411.294 398.017C412.022 397.782 412.784 397.767 413.582 397.971C414.378 398.159 415.137 398.572 415.86 399.209C416.582 399.846 417.098 400.558 417.407 401.344C417.715 402.114 417.806 402.883 417.682 403.65C417.566 404.408 417.244 405.092 416.718 405.7C416.265 406.223 415.759 406.592 415.198 406.808C414.644 407.014 414.098 407.1 413.56 407.063L417.934 410.92L416.377 412.72L405.947 403.523L407.504 401.723L408.524 402.622ZM414.269 401.048C413.844 400.673 413.401 400.441 412.939 400.351C412.476 400.245 412.038 400.266 411.624 400.415C411.218 400.556 410.87 400.793 410.581 401.127C410.299 401.453 410.118 401.837 410.035 402.278C409.952 402.703 409.99 403.144 410.149 403.602C410.315 404.051 410.611 404.462 411.036 404.837C411.461 405.212 411.905 405.452 412.367 405.558C412.838 405.656 413.28 405.638 413.695 405.505C414.108 405.356 414.456 405.119 414.738 404.793C415.027 404.459 415.209 404.075 415.284 403.642C415.366 403.201 415.324 402.756 415.158 402.307C414.999 401.85 414.703 401.43 414.269 401.048ZM423.399 397.977C422.806 398.662 422.123 399.148 421.351 399.434C420.571 399.713 419.767 399.767 418.94 399.597C418.121 399.419 417.35 399.011 416.627 398.374C415.905 397.736 415.404 397.016 415.126 396.211C414.855 395.398 414.812 394.582 414.997 393.763C415.173 392.936 415.557 392.179 416.15 391.494C416.744 390.808 417.434 390.322 418.222 390.034C419.002 389.74 419.805 389.677 420.632 389.847C421.466 390.009 422.244 390.408 422.967 391.045C423.689 391.682 424.182 392.412 424.446 393.233C424.717 394.046 424.76 394.87 424.577 395.706C424.392 396.525 424 397.282 423.399 397.977ZM421.844 396.605C422.125 396.279 422.312 395.907 422.404 395.49C422.494 395.056 422.457 394.615 422.29 394.166C422.124 393.717 421.816 393.294 421.365 392.897C420.694 392.304 420.024 392.031 419.355 392.076C418.686 392.105 418.129 392.377 417.684 392.891C417.239 393.405 417.047 393.999 417.109 394.673C417.169 395.331 417.535 395.956 418.207 396.548C418.878 397.14 419.541 397.43 420.196 397.418C420.85 397.39 421.399 397.119 421.844 396.605ZM423.231 385.777C423.057 385.216 423.023 384.658 423.13 384.102C423.243 383.537 423.508 383.015 423.923 382.535L425.797 384.188L425.386 384.663C424.897 385.229 424.658 385.774 424.669 386.298C424.688 386.813 425.024 387.359 425.679 387.936L429.198 391.04L427.641 392.84L420.577 386.61L422.134 384.811L423.231 385.777ZM428.353 380.61L431.77 383.623C432.008 383.833 432.231 383.931 432.438 383.917C432.644 383.887 432.865 383.735 433.102 383.461L433.825 382.625L435.33 383.952L434.351 385.083C433.039 386.6 431.651 386.714 430.189 385.425L426.785 382.423L426.051 383.271L424.585 381.978L425.319 381.13L423.572 379.589L425.14 377.776L426.887 379.317L428.266 377.723L429.732 379.016L428.353 380.61ZM438.493 372.786C438.748 373.011 438.963 373.231 439.137 373.445L434.632 378.652C435.179 379.059 435.735 379.231 436.298 379.169C436.861 379.107 437.343 378.844 437.744 378.381C438.322 377.713 438.449 376.986 438.124 376.201L439.803 374.259C440.306 375.065 440.525 375.954 440.463 376.926C440.393 377.892 439.99 378.798 439.256 379.647C438.663 380.333 437.98 380.819 437.208 381.105C436.435 381.375 435.639 381.421 434.819 381.242C434.007 381.055 433.24 380.643 432.517 380.005C431.786 379.361 431.274 378.645 430.981 377.858C430.688 377.07 430.627 376.276 430.796 375.473C430.966 374.671 431.355 373.918 431.963 373.216C432.549 372.538 433.216 372.062 433.965 371.785C434.721 371.5 435.493 371.448 436.28 371.629C437.067 371.793 437.804 372.179 438.493 372.786ZM436.37 374.201C435.904 373.805 435.394 373.65 434.84 373.735C434.278 373.814 433.792 374.089 433.385 374.56C432.999 375.006 432.809 375.503 432.814 376.051C432.818 376.584 433.028 377.094 433.445 377.582L436.37 374.201ZM438.904 367.66C438.73 367.099 438.697 366.54 438.803 365.984C438.917 365.42 439.181 364.897 439.596 364.417L441.471 366.07L441.059 366.546C440.57 367.112 440.331 367.656 440.342 368.18C440.361 368.695 440.698 369.242 441.352 369.819L444.871 372.922L443.314 374.722L436.251 368.493L437.808 366.693L438.904 367.66Z" fill="black"/>
<path d="M280.044 468.359L283.978 479.554L281.736 480.353L279.177 473.071L278.742 481.42L277.044 482.025L271.475 475.817L274.034 483.098L271.792 483.897L267.858 472.703L270.404 471.795L276.884 478.852L277.513 469.261L280.044 468.359ZM291.447 466.893L294.569 475.779L292.311 476.583L291.917 475.461C291.764 475.948 291.492 476.388 291.101 476.78C290.717 477.158 290.253 477.443 289.709 477.637C289.015 477.885 288.35 477.959 287.715 477.861C287.076 477.752 286.502 477.469 285.993 477.013C285.492 476.542 285.102 475.911 284.824 475.12L282.992 469.907L285.233 469.108L286.953 474C287.201 474.705 287.568 475.188 288.056 475.447C288.54 475.696 289.086 475.712 289.694 475.495C290.314 475.274 290.734 474.914 290.954 474.414C291.171 473.904 291.156 473.296 290.908 472.59L289.189 467.698L291.447 466.893ZM294.852 462.323L299.023 474.191L296.781 474.99L292.61 463.122L294.852 462.323ZM301.374 465.43L302.884 469.729C302.989 470.028 303.136 470.223 303.324 470.312C303.518 470.387 303.786 470.364 304.128 470.242L305.169 469.871L305.834 471.764L304.425 472.266C302.535 472.939 301.267 472.357 300.621 470.517L299.116 466.235L298.059 466.612L297.411 464.768L298.468 464.391L297.695 462.194L299.953 461.389L300.725 463.586L302.711 462.878L303.359 464.723L301.374 465.43ZM305.088 460.84C304.693 460.981 304.319 460.976 303.966 460.825C303.62 460.659 303.381 460.39 303.249 460.016C303.118 459.641 303.137 459.286 303.307 458.948C303.483 458.597 303.769 458.35 304.164 458.209C304.559 458.069 304.93 458.081 305.276 458.246C305.629 458.397 305.872 458.66 306.003 459.034C306.135 459.408 306.112 459.771 305.936 460.123C305.766 460.46 305.483 460.699 305.088 460.84ZM306.565 461.504L309.688 470.39L307.446 471.189L304.324 462.304L306.565 461.504ZM315.854 460.269L317.365 464.567C317.47 464.867 317.617 465.061 317.804 465.151C317.999 465.226 318.267 465.202 318.608 465.081L319.649 464.71L320.314 466.602L318.905 467.104C317.016 467.778 315.748 467.195 315.101 465.356L313.596 461.074L312.54 461.451L311.891 459.606L312.948 459.229L312.176 457.032L314.434 456.227L315.206 458.425L317.192 457.717L317.84 459.561L315.854 460.269ZM319.778 461.758C319.462 460.86 319.358 460.001 319.466 459.18C319.585 458.356 319.883 457.648 320.36 457.057C320.848 456.462 321.47 456.029 322.228 455.759C322.89 455.523 323.514 455.451 324.099 455.544C324.694 455.632 325.213 455.826 325.655 456.126L325.209 454.859L327.467 454.054L330.59 462.939L328.332 463.744L327.876 462.445C327.734 462.965 327.456 463.455 327.041 463.916C326.633 464.362 326.098 464.703 325.436 464.939C324.689 465.205 323.938 465.256 323.184 465.092C322.44 464.924 321.765 464.557 321.157 463.992C320.557 463.411 320.097 462.667 319.778 461.758ZM326.771 459.302C326.579 458.756 326.309 458.329 325.96 458.02C325.608 457.701 325.214 457.504 324.78 457.431C324.342 457.346 323.914 457.378 323.498 457.526C323.082 457.675 322.733 457.913 322.452 458.242C322.171 458.571 321.988 458.973 321.903 459.448C321.825 459.91 321.88 460.407 322.068 460.942C322.256 461.477 322.528 461.909 322.884 462.239C323.247 462.555 323.643 462.757 324.07 462.845C324.508 462.93 324.93 462.9 325.336 462.755C325.752 462.607 326.106 462.366 326.398 462.034C326.685 461.69 326.868 461.288 326.947 460.827C327.021 460.355 326.962 459.847 326.771 459.302ZM336.225 461.093C335.499 461.352 334.803 461.456 334.136 461.405C333.466 461.343 332.881 461.148 332.381 460.821C331.893 460.49 331.536 460.057 331.313 459.524L333.571 458.719C333.734 459.046 333.999 459.27 334.366 459.392C334.744 459.51 335.151 459.491 335.589 459.335C336.016 459.183 336.317 458.979 336.492 458.724C336.677 458.466 336.723 458.203 336.629 457.936C336.527 457.647 336.303 457.486 335.955 457.454C335.614 457.407 335.093 457.412 334.393 457.469C333.675 457.545 333.072 457.573 332.585 457.554C332.108 457.532 331.653 457.399 331.22 457.156C330.797 456.91 330.48 456.488 330.27 455.889C330.097 455.397 330.078 454.898 330.212 454.393C330.358 453.884 330.651 453.419 331.091 452.997C331.542 452.572 332.126 452.231 332.841 451.977C333.898 451.6 334.835 451.566 335.653 451.877C336.467 452.176 337.064 452.763 337.443 453.639L335.298 454.404C335.141 454.062 334.894 453.837 334.556 453.729C334.225 453.607 333.84 453.624 333.402 453.78C332.997 453.924 332.708 454.111 332.537 454.341C332.376 454.567 332.342 454.813 332.436 455.081C332.541 455.38 332.772 455.557 333.127 455.61C333.478 455.654 333.997 455.643 334.684 455.579C335.38 455.511 335.967 455.488 336.444 455.511C336.92 455.534 337.372 455.674 337.798 455.931C338.232 456.173 338.557 456.586 338.775 457.171C338.955 457.684 338.973 458.195 338.827 458.704C338.692 459.209 338.399 459.675 337.948 460.1C337.504 460.511 336.93 460.842 336.225 461.093ZM346.758 457.177L342.417 454.465L343.747 458.25L341.506 459.049L337.334 447.18L339.576 446.381L341.949 453.133L343.603 448.303L346.518 447.264L344.177 453.115L349.672 456.138L346.758 457.177ZM357.475 448.141C357.588 448.462 357.668 448.758 357.715 449.03L351.23 451.342C351.509 451.964 351.909 452.387 352.432 452.609C352.955 452.832 353.505 452.841 354.081 452.635C354.914 452.339 355.38 451.769 355.481 450.927L357.899 450.065C357.943 451.012 357.7 451.893 357.17 452.708C356.635 453.512 355.84 454.102 354.783 454.479C353.929 454.783 353.094 454.87 352.28 454.739C351.472 454.594 350.754 454.242 350.125 453.684C349.507 453.123 349.039 452.387 348.719 451.478C348.396 450.559 348.299 449.685 348.428 448.857C348.558 448.029 348.893 447.308 349.434 446.694C349.975 446.08 350.683 445.617 351.559 445.305C352.402 445.004 353.219 444.918 354.008 445.045C354.809 445.169 355.509 445.503 356.108 446.047C356.715 446.577 357.17 447.275 357.475 448.141ZM354.927 448.327C354.714 447.754 354.344 447.368 353.818 447.17C353.288 446.962 352.73 446.963 352.143 447.172C351.588 447.37 351.178 447.708 350.914 448.187C350.657 448.652 350.591 449.199 350.716 449.828L354.927 448.327ZM360.344 443.888C360.467 443.315 360.711 442.813 361.076 442.382C361.452 441.947 361.939 441.623 362.536 441.41L363.365 443.768L362.773 443.979C362.068 444.23 361.592 444.586 361.346 445.047C361.11 445.504 361.137 446.144 361.426 446.967L362.982 451.394L360.74 452.193L357.617 443.308L359.859 442.509L360.344 443.888Z" fill="black"/>
<path d="M72.0234 377.555C72.9378 378.507 73.5533 379.521 73.87 380.595C74.1949 381.678 74.1971 382.746 73.8766 383.798C73.5731 384.851 72.9655 385.812 72.0539 386.682C71.1423 387.551 70.1523 388.114 69.084 388.371C68.0328 388.627 66.9713 388.57 65.8997 388.2C64.8364 387.837 63.8476 387.18 62.9332 386.228L59.8907 383.061L68.981 374.388L72.0234 377.555ZM64.4206 384.685C65.335 385.637 66.3021 386.124 67.3217 386.146C68.3414 386.168 69.3245 385.728 70.2708 384.825C71.2172 383.922 71.7058 382.959 71.7366 381.934C71.7762 380.901 71.3387 379.909 70.4243 378.957L69.1899 377.672L63.1862 383.4L64.4206 384.685ZM79.0138 395.461C78.7533 395.709 78.5023 395.916 78.2607 396.08L73.2107 390.822C72.7313 391.362 72.4978 391.934 72.5102 392.535C72.5226 393.137 72.7532 393.672 73.2021 394.139C73.8505 394.814 74.6027 395.017 75.4587 394.748L77.3415 396.708C76.4475 397.163 75.4921 397.312 74.4753 397.154C73.4673 396.988 72.5518 396.476 71.7288 395.62C71.0638 394.927 70.6172 394.159 70.3891 393.315C70.1779 392.472 70.2049 391.625 70.47 390.775C70.7434 389.934 71.2491 389.161 71.9871 388.457C72.7337 387.745 73.5347 387.271 74.39 387.035C75.2453 386.799 76.0867 386.809 76.9143 387.065C77.7419 387.32 78.4965 387.802 79.1781 388.512C79.8348 389.196 80.2733 389.947 80.4935 390.765C80.722 391.592 80.704 392.413 80.4397 393.229C80.1923 394.046 79.717 394.79 79.0138 395.461ZM77.7267 393.081C78.1872 392.625 78.3985 392.1 78.3604 391.506C78.331 390.904 78.0878 390.365 77.6306 389.889C77.1983 389.439 76.6936 389.191 76.1165 389.144C75.5564 389.098 75.0001 389.273 74.4473 389.667L77.7267 393.081ZM79.6828 396.469C80.4295 395.757 81.2261 395.287 82.0727 395.06C82.928 394.824 83.7653 394.83 84.5845 395.076C85.4125 395.315 86.1589 395.78 86.824 396.472C87.6802 397.364 88.161 398.315 88.2665 399.325C88.389 400.336 88.1421 401.326 87.5258 402.296L85.643 400.336C85.8558 399.934 85.9285 399.524 85.8611 399.108C85.8106 398.691 85.6109 398.301 85.2617 397.938C84.763 397.419 84.1771 397.19 83.5041 397.251C82.8399 397.305 82.1604 397.663 81.4659 398.325C80.78 398.98 80.3915 399.641 80.3004 400.308C80.218 400.967 80.4262 401.556 80.925 402.076C81.6316 402.811 82.4228 402.977 83.2988 402.572L85.1816 404.533C84.209 405.079 83.21 405.278 82.1846 405.128C81.1592 404.979 80.2226 404.462 79.3747 403.58C78.7096 402.887 78.2714 402.128 78.0599 401.301C77.857 400.467 77.888 399.633 78.1527 398.8C78.4261 397.958 78.9361 397.181 79.6828 396.469ZM92.9849 401.405C92.6773 401.085 92.5194 400.722 92.5113 400.315C92.5202 399.908 92.6766 399.56 92.9804 399.27C93.2843 398.98 93.6358 398.844 94.035 398.861C94.4512 398.878 94.8131 399.047 95.1207 399.368C95.4282 399.688 95.5776 400.051 95.5687 400.458C95.5769 400.865 95.429 401.213 95.1251 401.503C94.8212 401.793 94.4612 401.929 94.045 401.911C93.6458 401.894 93.2924 401.726 92.9849 401.405ZM92.9857 403.121L85.7708 410.005L84.0251 408.188L91.24 401.304L92.9857 403.121ZM90.6801 407.867C91.4094 407.171 92.1934 406.696 93.0321 406.444C93.879 406.199 94.6955 406.183 95.4815 406.395C96.2676 406.607 96.9557 407.021 97.5459 407.635C97.9948 408.102 98.3187 408.647 98.5176 409.27C98.7253 409.885 98.7803 410.479 98.6828 411.053L102.108 407.785L103.878 409.629L94.2413 418.824L92.4707 416.98L93.5386 415.961C92.9665 416.076 92.3765 416.033 91.7688 415.834C91.161 415.634 90.5995 415.266 90.0841 414.729C89.5022 414.124 89.1265 413.421 88.9569 412.62C88.7873 411.82 88.8434 411.004 89.1251 410.171C89.4238 409.339 89.9421 408.571 90.6801 407.867ZM96.0906 413.551C96.5334 413.129 96.8279 412.682 96.9742 412.211C97.1292 411.731 97.1479 411.266 97.0302 410.814C96.9212 410.354 96.7046 409.955 96.3804 409.618C96.0562 409.28 95.6745 409.047 95.2352 408.919C94.7959 408.791 94.3284 408.789 93.8326 408.914C93.3538 409.039 92.8973 409.309 92.4632 409.723C92.0291 410.137 91.7302 410.588 91.5665 411.076C91.4199 411.564 91.3969 412.034 91.4975 412.485C91.6065 412.945 91.819 413.34 92.1348 413.668C92.459 414.006 92.8449 414.243 93.2925 414.38C93.7488 414.509 94.2163 414.51 94.6952 414.385C95.1826 414.252 95.6478 413.974 96.0906 413.551ZM106.131 423.693C105.871 423.942 105.62 424.148 105.378 424.312L100.328 419.055C99.849 419.595 99.6155 420.166 99.6279 420.768C99.6403 421.37 99.8709 421.904 100.32 422.372C100.968 423.047 101.72 423.25 102.576 422.98L104.459 424.94C103.565 425.395 102.61 425.544 101.593 425.386C100.585 425.22 99.6695 424.709 98.8465 423.852C98.1815 423.16 97.7349 422.392 97.5068 421.548C97.2956 420.704 97.3226 419.858 97.5877 419.008C97.8611 418.166 98.3668 417.394 99.1048 416.689C99.8514 415.977 100.652 415.503 101.508 415.268C102.363 415.032 103.204 415.042 104.032 415.297C104.86 415.553 105.614 416.035 106.296 416.745C106.953 417.428 107.391 418.179 107.611 418.998C107.84 419.824 107.822 420.646 107.557 421.462C107.31 422.279 106.835 423.022 106.131 423.693ZM104.844 421.314C105.305 420.858 105.516 420.333 105.478 419.739C105.449 419.137 105.205 418.598 104.748 418.122C104.316 417.672 103.811 417.423 103.234 417.377C102.674 417.331 102.118 417.505 101.565 417.9L104.844 421.314ZM111.482 424.613C112.089 424.482 112.679 424.499 113.254 424.664C113.837 424.838 114.361 425.167 114.826 425.652L112.912 427.479L112.451 426.998C111.902 426.427 111.352 426.123 110.8 426.085C110.257 426.056 109.651 426.361 108.982 426.999L105.388 430.428L103.642 428.611L110.857 421.727L112.602 423.544L111.482 424.613Z" fill="black"/>
<path d="M18.1386 266.437C17.9056 265.643 17.8302 264.883 17.9124 264.157C17.9978 263.442 18.2405 262.82 18.6405 262.292C19.0405 261.764 19.5851 261.386 20.2744 261.159L20.9923 263.606C20.5367 263.784 20.2167 264.062 20.0324 264.44C19.8513 264.828 19.8373 265.284 19.9905 265.806C20.1468 266.339 20.3941 266.719 20.7323 266.945C21.0813 267.169 21.4614 267.216 21.8725 267.088C22.2079 266.984 22.4534 266.794 22.6092 266.52C22.7649 266.246 22.8561 265.933 22.8825 265.58C22.923 265.235 22.9392 264.767 22.9311 264.176C22.9305 263.369 22.9644 262.7 23.0327 262.168C23.1151 261.644 23.3177 261.147 23.6408 260.678C23.9778 260.217 24.5033 259.875 25.2174 259.652C25.8882 259.443 26.5218 259.429 27.1184 259.611C27.715 259.793 28.2325 260.148 28.6709 260.676C29.12 261.201 29.4595 261.854 29.6893 262.637C30.0339 263.812 30.0264 264.853 29.6668 265.76C29.3212 266.675 28.6511 267.33 27.6565 267.723L26.9193 265.211C27.3024 265.068 27.5721 264.8 27.7284 264.407C27.8987 264.021 27.9089 263.573 27.7589 263.062C27.6281 262.616 27.4092 262.292 27.1022 262.091C26.7984 261.901 26.4301 261.874 25.9974 262.009C25.6944 262.103 25.4689 262.28 25.3208 262.54C25.1867 262.808 25.0978 263.108 25.0541 263.443C25.0245 263.784 25.0083 264.252 25.0055 264.847C25.0061 265.654 24.9669 266.325 24.8877 266.86C24.8085 267.395 24.602 267.898 24.2682 268.371C23.9344 268.843 23.4158 269.189 22.7126 269.408C22.1067 269.597 21.4979 269.615 20.886 269.461C20.2742 269.308 19.722 268.976 19.2296 268.465C18.7479 267.95 18.3843 267.274 18.1386 266.437ZM27.9199 272.847L23.5707 274.204C23.2678 274.298 23.0667 274.438 22.9676 274.623C22.8824 274.816 22.8909 275.086 22.993 275.434L23.3041 276.495L21.3892 277.092L20.968 275.657C20.4031 273.732 21.0512 272.479 22.912 271.899L27.245 270.547L26.9291 269.47L28.7954 268.888L29.1113 269.964L31.3346 269.271L32.0095 271.571L29.7862 272.264L30.3798 274.287L28.5135 274.869L27.9199 272.847ZM30.1362 278.649C30.6984 278.794 31.1834 279.058 31.5911 279.441C32.0019 279.835 32.2967 280.337 32.4754 280.946L30.0898 281.69L29.9127 281.087C29.7021 280.369 29.3749 279.878 28.931 279.612C28.4903 279.358 27.8534 279.361 27.0204 279.621L22.5413 281.018L21.8712 278.735L30.8618 275.93L31.5319 278.213L30.1362 278.649ZM28.1618 283.33C29.0706 283.046 29.9293 282.974 30.7378 283.114C31.5496 283.264 32.2357 283.59 32.7962 284.092C33.36 284.604 33.7552 285.247 33.9817 286.019C34.1796 286.693 34.2166 287.323 34.093 287.907C33.9725 288.503 33.7513 289.017 33.4296 289.45L34.7116 289.05L35.3865 291.35L26.3959 294.155L25.721 291.855L27.0355 291.445C26.5274 291.283 26.0562 290.984 25.6217 290.55C25.2012 290.123 24.8921 289.573 24.6942 288.899C24.4709 288.138 24.4614 287.381 24.6658 286.629C24.8734 285.887 25.2745 285.222 25.8693 284.633C26.478 284.051 27.2422 283.617 28.1618 283.33ZM30.2163 290.452C30.7681 290.28 31.2068 290.024 31.5325 289.685C31.869 289.343 32.0857 288.955 32.1828 288.521C32.2907 288.084 32.2824 287.653 32.1579 287.229C32.0335 286.805 31.8158 286.445 31.505 286.151C31.1941 285.856 30.805 285.657 30.3377 285.553C29.8844 285.457 29.3873 285.494 28.8463 285.663C28.3054 285.831 27.8612 286.089 27.5139 286.434C27.1806 286.788 26.9585 287.177 26.8474 287.604C26.7395 288.041 26.7462 288.466 26.8675 288.88C26.9919 289.304 27.2112 289.669 27.5252 289.974C27.8501 290.276 28.2392 290.475 28.6925 290.571C29.1566 290.664 29.6646 290.624 30.2163 290.452ZM34.955 296.821L30.6057 298.178C30.3028 298.273 30.1018 298.413 30.0026 298.598C29.9174 298.791 29.9259 299.061 30.028 299.409L30.3392 300.469L28.4242 301.067L28.003 299.631C27.4382 297.706 28.0862 296.454 29.947 295.873L34.2801 294.521L33.9641 293.445L35.8304 292.862L36.1463 293.939L38.3696 293.245L39.0445 295.545L36.8212 296.239L37.4148 298.262L35.5485 298.844L34.955 296.821ZM36.0613 309.647C35.7368 309.748 35.4383 309.817 35.1658 309.855L33.2273 303.248C32.5941 303.505 32.1526 303.892 31.9028 304.41C31.6531 304.927 31.6143 305.479 31.7866 306.066C32.0355 306.914 32.5751 307.405 33.4053 307.538L34.128 310.001C33.1859 310.01 32.3251 309.732 31.5455 309.168C30.7768 308.601 30.2344 307.779 29.9185 306.702C29.6632 305.832 29.6228 304.99 29.7972 304.176C29.9857 303.37 30.3741 302.661 30.9624 302.05C31.554 301.45 32.3095 301.006 33.2292 300.72C34.1596 300.429 35.0323 300.365 35.8472 300.526C36.6621 300.687 37.3594 301.051 37.9391 301.618C38.5188 302.185 38.9395 302.914 39.2012 303.806C39.4533 304.665 39.4943 305.489 39.3243 306.278C39.1575 307.078 38.7876 307.769 38.2145 308.352C37.6554 308.942 36.9377 309.373 36.0613 309.647ZM36.0164 307.079C36.5974 306.886 37.0004 306.529 37.2254 306.007C37.4611 305.483 37.4913 304.921 37.3158 304.323C37.1498 303.758 36.8363 303.333 36.3752 303.05C35.9282 302.774 35.3889 302.687 34.7575 302.789L36.0164 307.079ZM42.0358 313.466C42.2336 314.14 42.2723 314.775 42.1518 315.371C42.0421 315.963 41.8194 316.472 41.4836 316.897L42.7657 316.497L43.4406 318.797L34.3851 321.622C33.552 321.882 32.7615 321.945 32.0134 321.81C31.2545 321.679 30.5868 321.335 30.0103 320.779C29.423 320.226 28.9889 319.472 28.7081 318.515C28.3315 317.231 28.3195 316.084 28.672 315.072C29.0278 314.07 29.7036 313.355 30.6995 312.926L31.3648 315.193C30.9888 315.441 30.7392 315.798 30.6161 316.263C30.4853 316.743 30.5029 317.266 30.6688 317.832C30.8635 318.495 31.2216 318.971 31.7431 319.259C32.2539 319.551 32.9096 319.572 33.7102 319.322L35.1058 318.887C34.5977 318.725 34.1264 318.427 33.692 317.992C33.2607 317.569 32.9477 317.026 32.7531 316.362C32.5297 315.601 32.5202 314.844 32.7246 314.092C32.929 313.34 33.3286 312.669 33.9233 312.08C34.5321 311.498 35.2962 311.064 36.2159 310.777C37.1247 310.494 37.9833 310.421 38.7919 310.561C39.6036 310.711 40.2897 311.037 40.8503 311.539C41.414 312.052 41.8092 312.694 42.0358 313.466ZM38.2704 317.899C38.8221 317.727 39.2608 317.472 39.5865 317.133C39.923 316.79 40.1398 316.402 40.2368 315.968C40.3447 315.531 40.3364 315.1 40.212 314.676C40.0875 314.252 39.8699 313.893 39.559 313.598C39.2481 313.303 38.859 313.104 38.3917 313.001C37.9384 312.905 37.4413 312.941 36.9003 313.11C36.3594 313.278 35.9153 313.536 35.568 313.882C35.2347 314.235 35.0125 314.625 34.9014 315.051C34.7935 315.488 34.8002 315.913 34.9215 316.327C35.0459 316.751 35.2652 317.116 35.5793 317.421C35.9041 317.724 36.2932 317.923 36.7465 318.019C37.2107 318.111 37.7186 318.071 38.2704 317.899ZM45.506 321.851C45.3879 321.449 45.4134 321.073 45.5825 320.723C45.7655 320.381 46.0464 320.151 46.4251 320.033C46.8037 319.915 47.1558 319.948 47.4812 320.131C47.8206 320.322 48.0494 320.619 48.1675 321.021C48.2855 321.423 48.253 321.795 48.07 322.137C47.9009 322.487 47.627 322.721 47.2484 322.839C46.8697 322.957 46.5107 322.921 46.1712 322.73C45.8458 322.546 45.6241 322.254 45.506 321.851ZM44.7652 323.311L35.7746 326.116L35.1045 323.832L44.0951 321.027L44.7652 323.311ZM37.3054 331.876C37.0884 331.137 37.0236 330.433 37.1109 329.764C37.2091 329.093 37.4343 328.512 37.7866 328.022C38.1421 327.543 38.5909 327.202 39.1331 326.997L39.808 329.297C39.4746 329.448 39.2373 329.706 39.0963 330.071C38.9584 330.446 38.9549 330.857 39.0858 331.303C39.2134 331.738 39.3989 332.048 39.6422 332.233C39.8887 332.429 40.1472 332.485 40.4176 332.401C40.7097 332.31 40.8815 332.09 40.9327 331.741C40.9981 331.401 41.0215 330.877 41.0032 330.17C40.9676 329.446 40.9726 328.839 41.018 328.35C41.0667 327.871 41.2232 327.419 41.4877 326.992C41.7554 326.576 42.1922 326.274 42.798 326.085C43.2957 325.93 43.7916 325.929 44.2857 326.084C44.783 326.249 45.2288 326.561 45.6232 327.02C46.0207 327.489 46.3264 328.088 46.5402 328.817C46.8561 329.893 46.8378 330.837 46.4851 331.647C46.1432 332.454 45.5275 333.032 44.6378 333.381L43.9964 331.195C44.3439 331.051 44.5805 330.811 44.7063 330.475C44.8461 330.147 44.8506 329.759 44.7197 329.314C44.5985 328.9 44.4286 328.603 44.2101 328.422C43.9948 328.252 43.7519 328.209 43.4815 328.293C43.1785 328.388 42.9906 328.613 42.9177 328.968C42.8556 329.319 42.8375 329.841 42.8635 330.534C42.8927 331.237 42.8829 331.827 42.8343 332.306C42.7856 332.784 42.622 333.232 42.3435 333.652C42.0791 334.078 41.6509 334.39 41.059 334.587C40.5397 334.749 40.0314 334.747 39.5342 334.582C39.0401 334.427 38.5942 334.115 38.1967 333.646C37.8131 333.184 37.516 332.594 37.3054 331.876ZM46.9495 337.697L42.6003 339.054C42.2974 339.149 42.0963 339.289 41.9972 339.474C41.912 339.667 41.9205 339.937 42.0226 340.285L42.3337 341.345L40.4188 341.943L39.9976 340.507C39.4327 338.582 40.0808 337.33 41.9416 336.749L46.2746 335.397L45.9587 334.321L47.825 333.738L48.1409 334.815L50.3642 334.121L51.0391 336.421L48.8158 337.115L49.4094 339.138L47.5431 339.72L46.9495 337.697Z" fill="black"/>
<path d="M277.971 21.6285C276.9 21.3345 275.984 20.8128 275.222 20.0632C274.461 19.3136 273.936 18.4234 273.649 17.3925C273.364 16.3508 273.372 15.266 273.674 14.1382C273.972 13.0214 274.502 12.0916 275.264 11.3487C276.028 10.5948 276.926 10.089 277.957 9.83129C278.988 9.57357 280.039 9.59167 281.11 9.8856C282.192 10.1825 283.108 10.7043 283.859 11.4509C284.62 12.2005 285.138 13.0946 285.412 14.1334C285.699 15.1643 285.694 16.2381 285.395 17.3549C285.094 18.4826 284.561 19.4235 283.796 20.1773C283.046 20.9232 282.155 21.425 281.124 21.6828C280.093 21.9405 279.042 21.9224 277.971 21.6285ZM278.52 19.5755C279.208 19.7645 279.856 19.7776 280.463 19.615C281.072 19.4415 281.602 19.105 282.052 18.6057C282.502 18.1064 282.83 17.4735 283.035 16.7071C283.239 15.9406 283.27 15.2322 283.127 14.5819C282.987 13.9206 282.696 13.3647 282.253 12.9142C281.811 12.4637 281.245 12.1439 280.557 11.955C279.868 11.766 279.215 11.7513 278.598 11.911C277.991 12.0736 277.463 12.4045 277.012 12.9039C276.565 13.3922 276.239 14.0196 276.034 14.7861C275.83 15.5525 275.797 16.2664 275.937 16.9276C276.077 17.5889 276.367 18.1503 276.807 18.6118C277.26 19.0653 277.831 19.3866 278.52 19.5755ZM289.911 16.5317C290.335 16.131 290.819 15.8582 291.362 15.7134C291.916 15.5717 292.499 15.5848 293.111 15.7527L292.466 18.167L291.859 18.0005C291.138 17.8026 290.546 17.8223 290.084 18.0598C289.632 18.3002 289.294 18.842 289.069 19.6851L287.857 24.218L285.562 23.5881L287.994 14.4895L290.289 15.1193L289.911 16.5317ZM298.219 17.1368C298.896 17.3227 299.456 17.623 299.896 18.0377C300.339 18.4415 300.652 18.8973 300.833 19.4053L301.179 18.1079L303.491 18.7422L301.042 27.9066C300.816 28.7496 300.447 29.4532 299.932 30.0171C299.415 30.592 298.766 30.9781 297.986 31.1754C297.203 31.3836 296.331 31.3558 295.369 31.0918C294.079 30.7379 293.1 30.1459 292.43 29.3158C291.771 28.4886 291.526 27.54 291.695 26.4698L293.974 27.0952C293.983 27.5442 294.152 27.9432 294.481 28.292C294.818 28.6548 295.271 28.9142 295.839 29.0702C296.506 29.2531 297.101 29.199 297.624 28.9079C298.145 28.6277 298.514 28.0825 298.73 27.2722L299.108 25.8598C298.698 26.2058 298.193 26.4492 297.593 26.5899C297.003 26.7336 296.375 26.714 295.708 26.5311C294.943 26.3211 294.296 25.9321 293.768 25.364C293.239 24.7958 292.884 24.105 292.703 23.2913C292.535 22.4697 292.576 21.5935 292.825 20.6629C293.07 19.7432 293.469 18.9769 294.02 18.3642C294.581 17.7545 295.225 17.3435 295.95 17.1313C296.687 16.922 297.443 16.9238 298.219 17.1368ZM299.964 22.6572C300.113 22.0988 300.131 21.5925 300.018 21.1384C299.907 20.6733 299.694 20.2857 299.378 19.9757C299.065 19.6548 298.695 19.4358 298.269 19.3188C297.843 19.2019 297.422 19.1979 297.005 19.307C296.589 19.416 296.212 19.6416 295.874 19.9838C295.55 20.3179 295.315 20.7588 295.169 21.3062C295.023 21.8537 295.003 22.3654 295.111 22.8415C295.232 23.3096 295.443 23.7026 295.746 24.0205C296.059 24.3415 296.423 24.559 296.838 24.6729C297.264 24.7899 297.691 24.7953 298.118 24.6893C298.548 24.5723 298.926 24.3467 299.249 24.0125C299.576 23.6674 299.814 23.2156 299.964 22.6572ZM303.935 23.7119C304.181 22.7922 304.579 22.0259 305.13 21.4132C305.692 20.8035 306.336 20.3925 307.061 20.1803C307.797 19.971 308.554 19.9728 309.33 20.1858C310.007 20.3717 310.561 20.6706 310.99 21.0822C311.431 21.4969 311.749 21.9543 311.943 22.4543L312.29 21.1569L314.602 21.7912L312.17 30.8899L309.858 30.2555L310.214 28.9252C309.805 29.2713 309.3 29.5146 308.699 29.6554C308.112 29.7881 307.48 29.7615 306.802 29.5756C306.037 29.3656 305.391 28.9766 304.862 28.4085C304.344 27.8434 303.995 27.154 303.814 26.3403C303.646 25.5187 303.687 24.6425 303.935 23.7119ZM311.074 25.7062C311.224 25.1478 311.242 24.6415 311.128 24.1874C311.018 23.7223 310.805 23.3347 310.489 23.0247C310.176 22.7038 309.806 22.4848 309.38 22.3678C308.954 22.2509 308.532 22.2469 308.116 22.356C307.7 22.465 307.323 22.6906 306.985 23.0328C306.661 23.3669 306.426 23.8078 306.28 24.3552C306.133 24.9027 306.114 25.4144 306.221 25.8905C306.343 26.3586 306.554 26.7516 306.856 27.0695C307.169 27.3905 307.534 27.608 307.949 27.7219C308.375 27.8389 308.802 27.8444 309.229 27.7383C309.659 27.6213 310.036 27.3957 310.36 27.0615C310.687 26.7164 310.925 26.2646 311.074 25.7062ZM321.911 23.6561C322.993 23.953 323.775 24.5379 324.258 25.4106C324.743 26.2724 324.822 27.3164 324.494 28.5427L323.068 33.8804L320.772 33.2506L322.116 28.2249C322.309 27.5023 322.276 26.8999 322.018 26.4177C321.763 25.9246 321.323 25.5925 320.7 25.4216C320.067 25.2476 319.511 25.3067 319.034 25.5989C318.571 25.8832 318.243 26.3866 318.05 27.1092L316.707 32.1349L314.412 31.505L316.843 22.4064L319.138 23.0362L318.836 24.1694C319.247 23.8592 319.717 23.6591 320.245 23.5691C320.788 23.4712 321.343 23.5001 321.911 23.6561ZM329.136 24.6161C328.731 24.5052 328.426 24.2863 328.22 23.9595C328.028 23.6247 327.983 23.2657 328.086 22.8825C328.188 22.4993 328.404 22.2178 328.734 22.0379C329.077 21.8501 329.451 21.8117 329.855 21.9227C330.26 22.0336 330.558 22.2565 330.75 22.5913C330.956 22.9181 331.008 23.2731 330.905 23.6563C330.803 24.0395 330.58 24.325 330.236 24.5128C329.907 24.6927 329.54 24.7271 329.136 24.6161ZM329.977 26.0105L327.545 35.1092L325.25 34.4793L327.682 25.3807L329.977 26.0105ZM332.416 34.4186L336.465 35.5298L335.961 37.4185L329.305 35.592L329.801 33.7361L335.199 29.4708L331.248 28.3865L331.753 26.4978L338.343 28.3064L337.847 30.1622L332.416 34.4186ZM347.449 35.4767C347.361 35.8051 347.26 36.0948 347.147 36.3455L340.507 34.5235C340.386 35.1954 340.478 35.773 340.783 36.2563C341.088 36.7395 341.535 37.0621 342.126 37.2241C342.978 37.458 343.683 37.2577 344.239 36.6231L346.715 37.3024C346.218 38.1063 345.523 38.691 344.627 39.0564C343.735 39.4109 342.748 39.4396 341.666 39.1427C340.791 38.9028 340.056 38.4952 339.458 37.92C338.875 37.3369 338.482 36.6355 338.279 35.8159C338.086 34.9992 338.115 34.1256 338.363 33.1949C338.615 32.2533 339.027 31.4791 339.6 30.8724C340.173 30.2657 340.855 29.8652 341.645 29.6709C342.436 29.4766 343.28 29.5025 344.176 29.7484C345.04 29.9854 345.76 30.3829 346.339 30.9412C346.928 31.5024 347.316 32.1789 347.503 32.9706C347.704 33.7544 347.686 34.5898 347.449 35.4767ZM345.248 34.1674C345.395 33.5731 345.307 33.0438 344.986 32.5795C344.667 32.1042 344.207 31.7841 343.606 31.6191C343.038 31.4632 342.51 31.5064 342.023 31.7488C341.55 31.9832 341.187 32.395 340.936 32.9842L345.248 34.1674ZM352.205 33.6264C352.629 33.2256 353.113 32.9528 353.656 32.8081C354.21 32.6663 354.793 32.6794 355.405 32.8474L354.76 35.2616L354.153 35.0952C353.432 34.8972 352.84 34.917 352.377 35.1544C351.926 35.3949 351.588 35.9366 351.362 36.7797L350.151 41.3126L347.856 40.6828L350.288 31.5841L352.583 32.214L352.205 33.6264Z" fill="black"/>
<path d="M21.921 233.061L24.8254 233.705L25.674 229.801L27.5163 230.21L26.6676 234.114L29.738 234.795L30.695 230.393L32.587 230.812L31.1245 237.54L19.5234 234.967L20.9859 228.239L22.8779 228.659L21.921 233.061ZM24.8278 221.53C25.0661 220.434 25.6072 219.625 26.4512 219.104C27.284 218.581 28.3201 218.456 29.5593 218.731L34.9532 219.928L34.4477 222.253L29.369 221.127C28.6388 220.965 28.0403 221.024 27.5736 221.303C27.0958 221.58 26.7883 222.035 26.6511 222.666C26.5115 223.308 26.5999 223.862 26.9164 224.327C27.2242 224.778 27.7432 225.085 28.4735 225.247L33.5521 226.373L33.0465 228.699L23.8519 226.66L24.3575 224.334L25.5026 224.588C25.1717 224.189 24.9474 223.728 24.8296 223.202C24.7032 222.663 24.7026 222.106 24.8278 221.53ZM28.7367 213.392L33.1846 214.379C33.4944 214.447 33.7369 214.426 33.912 214.314C34.0785 214.188 34.2002 213.948 34.2773 213.594L34.512 212.514L36.4704 212.948L36.1526 214.41C35.7265 216.37 34.5619 217.139 32.6588 216.717L28.2275 215.735L27.9891 216.831L26.0805 216.408L26.3188 215.311L24.0451 214.807L24.5543 212.465L26.828 212.969L27.2758 210.909L29.1845 211.332L28.7367 213.392ZM33.8974 201.657C34.2293 201.73 34.5233 201.819 34.7792 201.922L33.3166 208.65C33.9925 208.742 34.5631 208.624 35.0284 208.298C35.4937 207.972 35.7913 207.509 35.9213 206.911C36.1091 206.048 35.872 205.351 35.2102 204.821L35.7555 202.312C36.5828 202.775 37.2024 203.446 37.614 204.327C38.0146 205.205 38.0957 206.192 37.8574 207.289C37.6648 208.175 37.2978 208.929 36.7565 209.552C36.2065 210.161 35.5285 210.585 34.7227 210.825C33.9192 211.053 33.0472 211.063 32.1068 210.854C31.1552 210.643 30.362 210.264 29.727 209.717C29.0921 209.17 28.6569 208.504 28.4213 207.721C28.1857 206.937 28.1666 206.091 28.364 205.183C28.5542 204.308 28.912 203.569 29.4375 202.966C29.9654 202.352 30.6187 201.934 31.3977 201.712C32.1679 201.476 33.0012 201.458 33.8974 201.657ZM32.7099 203.918C32.11 203.797 31.5873 203.907 31.1417 204.249C30.6851 204.589 30.3906 205.064 30.2582 205.673C30.133 206.249 30.2041 206.775 30.4715 207.253C30.7302 207.716 31.1598 208.061 31.7601 208.287L32.7099 203.918ZM31.8012 196.975C31.3793 196.568 31.0819 196.095 30.9088 195.558C30.7381 195.009 30.7202 194.425 30.855 193.805L33.2947 194.346L33.1611 194.96C33.0022 195.691 33.0533 196.283 33.3145 196.736C33.578 197.177 34.1358 197.492 34.9877 197.681L39.5685 198.697L39.0629 201.023L29.8683 198.984L30.3738 196.658L31.8012 196.975ZM33.1616 190.236C32.8062 189.844 32.5467 189.357 32.3832 188.775C32.2111 188.18 32.1985 187.544 32.3454 186.869C32.5163 186.082 32.864 185.417 33.3885 184.871C33.9154 184.315 34.5781 183.934 35.3768 183.728C36.1668 183.508 37.032 183.503 37.9725 183.711C38.913 183.92 39.7074 184.293 40.3558 184.832C40.9955 185.357 41.4448 185.985 41.7035 186.715C41.9645 187.435 42.0096 188.188 41.8387 188.974C41.6918 189.65 41.4235 190.217 41.0338 190.676C40.6464 191.124 40.2076 191.462 39.7173 191.69L45.41 192.953L44.9044 195.278L31.3283 192.267L31.8339 189.942L33.1616 190.236ZM37.4561 186.087C36.9028 185.964 36.4018 185.975 35.9529 186.119C35.4954 186.25 35.1206 186.48 34.8285 186.81C34.5388 187.129 34.347 187.504 34.2531 187.936C34.1617 188.357 34.1856 188.78 34.3251 189.206C34.4558 189.618 34.7006 189.986 35.0595 190.309C35.4207 190.621 35.8779 190.839 36.4312 190.961C36.9844 191.084 37.4898 191.08 37.9473 190.949C38.4073 190.808 38.7876 190.578 39.0883 190.262C39.3804 189.932 39.5722 189.557 39.6637 189.136C39.7576 188.704 39.7336 188.281 39.5918 187.866C39.4523 187.441 39.202 187.072 38.8407 186.759C38.4819 186.436 38.0204 186.212 37.4561 186.087ZM35.7086 179C35.2868 178.593 34.9894 178.121 34.8163 177.583C34.6456 177.034 34.6276 176.45 34.7625 175.83L37.2022 176.371L37.0686 176.986C36.9097 177.716 36.9608 178.308 37.2219 178.761C37.4855 179.202 38.0433 179.518 38.8952 179.707L43.4759 180.722L42.9704 183.048L33.7758 181.009L34.2813 178.683L35.7086 179ZM34.3968 172.87C34.3077 173.28 34.1058 173.595 33.7912 173.816C33.4678 174.023 33.1125 174.083 32.7253 173.997C32.338 173.911 32.046 173.707 31.8493 173.385C31.644 173.049 31.5858 172.677 31.6749 172.267C31.764 171.857 31.9702 171.549 32.2935 171.342C32.6082 171.121 32.9592 171.054 33.3464 171.14C33.7337 171.226 34.03 171.437 34.2353 171.772C34.432 172.095 34.4859 172.461 34.3968 172.87ZM35.7413 171.967L44.9359 174.006L44.4304 176.332L35.2358 174.293L35.7413 171.967ZM46.3504 168.22C46.1867 168.973 45.9071 169.619 45.5115 170.158C45.1049 170.695 44.6307 171.089 44.089 171.34C43.5496 171.58 42.9942 171.655 42.4227 171.563L42.9319 169.22C43.2956 169.255 43.6261 169.148 43.9234 168.9C44.2232 168.642 44.4224 168.286 44.5212 167.832C44.6175 167.389 44.6036 167.026 44.4795 166.743C44.3578 166.449 44.1587 166.271 43.8821 166.21C43.5834 166.143 43.3284 166.249 43.1171 166.528C42.8972 166.792 42.6265 167.237 42.305 167.862C41.9898 168.512 41.6955 169.039 41.4222 169.443C41.1513 169.835 40.7983 170.152 40.3634 170.392C39.9308 170.621 39.4048 170.667 38.7852 170.53C38.2762 170.417 37.8428 170.17 37.4849 169.789C37.1295 169.396 36.889 168.902 36.7636 168.305C36.6405 167.697 36.6596 167.023 36.821 166.281C37.0593 165.184 37.5261 164.371 38.2214 163.84C38.9056 163.307 39.7196 163.11 40.6635 163.25L40.1796 165.476C39.8072 165.428 39.4858 165.519 39.2154 165.749C38.9363 165.966 38.7475 166.302 38.6487 166.756C38.5573 167.176 38.5637 167.52 38.668 167.787C38.7748 168.043 38.9665 168.202 39.2431 168.263C39.5529 168.332 39.8245 168.229 40.0579 167.956C40.2802 167.68 40.5453 167.234 40.8533 166.618C41.1638 165.99 41.4544 165.48 41.7254 165.087C41.9963 164.694 42.3535 164.385 42.7972 164.158C43.2321 163.918 43.755 163.86 44.366 163.984C44.8971 164.101 45.3404 164.357 45.6958 164.749C46.0537 165.13 46.2941 165.624 46.4172 166.232C46.5316 166.826 46.5093 167.489 46.3504 168.22ZM44.4666 153.037C44.7986 153.111 45.0925 153.199 45.3484 153.302L43.8859 160.03C44.5618 160.122 45.1324 160.005 45.5976 159.679C46.0629 159.352 46.3605 158.89 46.4905 158.292C46.6783 157.428 46.4413 156.731 45.7794 156.202L46.3247 153.693C47.1521 154.155 47.7716 154.827 48.1832 155.707C48.5838 156.586 48.6649 157.573 48.4266 158.669C48.234 159.555 47.867 160.31 47.3257 160.933C46.7757 161.542 46.0978 161.966 45.2919 162.205C44.4884 162.433 43.6165 162.443 42.676 162.235C41.7244 162.024 40.9312 161.645 40.2963 161.097C39.6613 160.55 39.2261 159.885 38.9905 159.101C38.7549 158.318 38.7358 157.472 38.9332 156.564C39.1234 155.689 39.4813 154.95 40.0067 154.347C40.5346 153.732 41.188 153.314 41.9669 153.092C42.7372 152.857 43.5704 152.839 44.4666 153.037ZM43.2791 155.299C42.6792 155.177 42.1565 155.288 41.711 155.63C41.2544 155.97 40.9598 156.444 40.8274 157.054C40.7022 157.629 40.7733 158.156 41.0407 158.633C41.2995 159.097 41.729 159.442 42.3294 159.668L43.2791 155.299ZM42.3704 148.355C41.9486 147.948 41.6511 147.476 41.478 146.938C41.3073 146.39 41.2894 145.805 41.4242 145.185L43.8639 145.726L43.7303 146.341C43.5714 147.072 43.6226 147.664 43.8837 148.116C44.1473 148.558 44.705 148.873 45.557 149.062L50.1377 150.078L49.6321 152.403L40.4375 150.364L40.9431 148.039L42.3704 148.355Z" fill="black"/>
<path d="M55.9381 111.475L64.5542 119.634L62.9351 121.378L54.319 113.219L55.9381 111.475ZM62.7671 107.516C63.5304 106.694 64.4064 106.275 65.3952 106.259C66.3757 106.235 67.3268 106.66 68.2485 107.533L72.2603 111.331L70.6412 113.076L66.8639 109.499C66.3208 108.985 65.778 108.728 65.2355 108.73C64.6848 108.723 64.1898 108.957 63.7503 109.43C63.3031 109.912 63.0966 110.434 63.1307 110.997C63.1643 111.544 63.4526 112.075 63.9958 112.589L67.773 116.166L66.1539 117.91L59.3153 111.435L60.9345 109.69L61.7862 110.497C61.7058 109.984 61.7491 109.471 61.9161 108.958C62.0825 108.428 62.3662 107.948 62.7671 107.516ZM71.3186 101.376L70.1967 102.585L75.6157 107.716L73.9735 109.486L68.5545 104.354L67.8259 105.139L66.4063 103.795L67.1349 103.01L66.7893 102.683C65.9499 101.888 65.5563 101.063 65.6085 100.207C65.6607 99.3511 66.1501 98.4489 67.0769 97.5004L68.5335 98.8797C68.1321 99.2955 67.9283 99.6567 67.9222 99.9631C67.9161 100.269 68.1065 100.606 68.4933 100.972L68.7772 101.241L69.899 100.032L71.3186 101.376ZM70.2714 94.9833L79.406 103.633L77.7868 105.377L68.6523 96.7277L70.2714 94.9833ZM80.2157 88.9175L87.0543 95.3931L85.4236 97.1499L84.5595 96.3317C84.6476 96.8365 84.6084 97.3535 84.442 97.8826C84.275 98.3956 83.9949 98.864 83.6017 99.2876C83.1006 99.8275 82.5461 100.2 81.9384 100.405C81.3225 100.602 80.6847 100.615 80.0249 100.442C79.3647 100.254 78.73 99.8718 78.1211 99.2951L74.1093 95.4963L75.7284 93.7519L79.4933 97.317C80.0364 97.8313 80.5834 98.0917 81.134 98.0981C81.6765 98.0967 82.1675 97.8593 82.607 97.3858C83.0541 96.904 83.2609 96.3897 83.2273 95.8429C83.1855 95.2882 82.893 94.7537 82.3499 94.2394L78.585 90.6744L80.2157 88.9175ZM91.0404 83.8771C91.2873 84.1109 91.4941 84.3379 91.6608 84.5582L86.9769 89.6044C87.5092 90.0304 88.0579 90.2222 88.6229 90.1798C89.188 90.1374 89.6787 89.892 90.0951 89.4434C90.6964 88.7955 90.8487 88.0734 90.5517 87.2772L92.2981 85.3958C92.7714 86.2185 92.9599 87.1149 92.8635 88.085C92.7589 89.0473 92.325 89.9396 91.5617 90.7619C90.9448 91.4264 90.2457 91.8881 89.4642 92.147C88.6822 92.3898 87.885 92.4075 87.0725 92.2C86.2678 91.9842 85.5156 91.5451 84.8162 90.8828C84.1084 90.2126 83.622 89.4789 83.357 88.6817C83.0919 87.8844 83.0583 87.0878 83.256 86.2917C83.4537 85.4957 83.8687 84.7571 84.5009 84.076C85.11 83.4197 85.7935 82.9666 86.5513 82.7165C87.3168 82.4582 88.0899 82.4332 88.8705 82.6417C89.6505 82.8342 90.3739 83.246 91.0404 83.8771ZM88.8697 85.2163C88.4176 84.8038 87.9134 84.6307 87.3571 84.697C86.7926 84.7555 86.2983 85.0131 85.8742 85.47C85.4733 85.9019 85.2657 86.3921 85.2515 86.9405C85.2367 87.4728 85.4289 87.9904 85.8281 88.4932L88.8697 85.2163ZM92.4029 75.5877C93.1662 74.7654 94.0422 74.3463 95.031 74.3305C96.0115 74.307 96.9626 74.7316 97.8843 75.6043L101.896 79.4032L100.277 81.1476L96.4997 77.5708C95.9566 77.0565 95.4138 76.8 94.8713 76.8014C94.3206 76.795 93.8255 77.0285 93.3861 77.502C92.9389 77.9838 92.7323 78.5061 92.7664 79.0691C92.8 79.6159 93.0884 80.1465 93.6315 80.6608L97.4088 84.2376L95.7897 85.982L88.9511 79.5064L90.5702 77.762L91.422 78.5685C91.3416 78.0554 91.3849 77.5424 91.5518 77.0293C91.7183 76.5002 92.0019 76.0197 92.4029 75.5877ZM99.6002 74.9551C98.8924 74.285 98.4102 73.5552 98.1533 72.7657C97.8883 71.9685 97.8508 71.176 98.0408 70.3883C98.2225 69.5927 98.6218 68.8627 99.2386 68.1982C100.033 67.3426 100.902 66.8392 101.847 66.6878C102.791 66.5204 103.734 66.7035 104.677 67.2372L102.93 69.1186C102.541 68.9377 102.153 68.8898 101.765 68.9749C101.376 69.0438 101.02 69.2527 100.696 69.6016C100.233 70.1 100.048 70.666 100.14 71.2996C100.224 71.9254 100.596 72.55 101.254 73.1734C101.904 73.789 102.545 74.1229 103.177 74.175C103.801 74.2194 104.344 73.9923 104.807 73.4939C105.462 72.7879 105.577 72.0308 105.152 71.2226L106.898 69.3411C107.462 70.2335 107.699 71.1686 107.611 72.1465C107.523 73.1243 107.086 74.0369 106.299 74.8841C105.683 75.5487 104.991 76.0021 104.225 76.2443C103.451 76.4788 102.665 76.492 101.869 76.2841C101.064 76.0683 100.308 75.6253 99.6002 74.9551ZM112.782 60.4542C113.029 60.688 113.235 60.915 113.402 61.1352L108.718 66.1814C109.25 66.6075 109.799 66.7993 110.364 66.7569C110.929 66.7145 111.42 66.469 111.836 66.0204C112.438 65.3725 112.59 64.6505 112.293 63.8543L114.039 61.9728C114.513 62.7956 114.701 63.692 114.605 64.662C114.5 65.6243 114.066 66.5166 113.303 67.339C112.686 68.0035 111.987 68.4652 111.205 68.7241C110.423 68.9668 109.626 68.9845 108.814 68.777C108.009 68.5612 107.257 68.1222 106.557 67.4598C105.85 66.7896 105.363 66.0559 105.098 65.2587C104.833 64.4615 104.799 63.6648 104.997 62.8688C105.195 62.0727 105.61 61.3341 106.242 60.653C106.851 59.9968 107.535 59.5436 108.292 59.2936C109.058 59.0352 109.831 59.0103 110.612 59.2188C111.392 59.4112 112.115 59.823 112.782 60.4542ZM110.611 61.7933C110.159 61.3808 109.655 61.2077 109.098 61.274C108.534 61.3325 108.039 61.5902 107.615 62.047C107.214 62.479 107.007 62.9691 106.993 63.5175C106.978 64.0498 107.17 64.5674 107.569 65.0702L110.611 61.7933ZM113.373 55.3443C113.219 54.7771 113.205 54.2176 113.331 53.6656C113.464 53.1053 113.747 52.5926 114.179 52.1274L115.993 53.8456L115.565 54.3066C115.057 54.8549 114.799 55.391 114.792 55.915C114.792 56.4307 115.109 56.9885 115.743 57.5885L119.15 60.8146L117.531 62.559L110.692 56.0834L112.311 54.3391L113.373 55.3443Z" fill="black"/>
<path d="M157.051 32.3659L157.861 35.2284L161.7 34.1202L162.213 35.9358L158.375 37.0441L159.232 40.0702L163.56 38.8205L164.088 40.6852L157.473 42.5952L154.237 31.1614L160.852 29.2514L161.379 31.1161L157.051 32.3659ZM171.164 38.6421L168.505 36.3663L167.652 39.6561L165.202 40.3635L166.871 34.9625L162.605 31.3109L165.185 30.5658L167.822 32.83L168.697 29.5518L171.147 28.8444L169.452 34.2174L173.744 37.897L171.164 38.6421ZM182.059 30.3824C182.152 30.7095 182.214 31.0102 182.244 31.2845L175.629 33.1945C175.869 33.8331 176.243 34.2796 176.75 34.534C177.258 34.7885 177.806 34.8308 178.394 34.661C179.243 34.4158 179.744 33.876 179.897 33.0416L182.363 32.3295C182.349 33.2773 182.052 34.1417 181.472 34.9225C180.889 35.6925 180.058 36.2331 178.98 36.5443C178.109 36.7959 177.271 36.8314 176.466 36.6509C175.669 36.4564 174.974 36.0614 174.382 35.4657C173.8 34.8669 173.378 34.1041 173.116 33.1772C172.85 32.2393 172.808 31.361 172.988 30.5421C173.169 29.7233 173.548 29.024 174.126 28.4442C174.704 27.8645 175.439 27.4457 176.332 27.1879C177.192 26.9395 178.012 26.9032 178.792 27.0791C179.583 27.2518 180.261 27.6282 180.826 28.2083C181.398 28.7744 181.809 29.4991 182.059 30.3824ZM179.506 30.4119C179.328 29.8262 178.983 29.4186 178.471 29.1891C177.955 28.9487 177.398 28.9149 176.799 29.0879C176.233 29.2514 175.803 29.5642 175.51 30.0263C175.225 30.4744 175.125 31.0164 175.21 31.6522L179.506 30.4119ZM183.196 30.2665C182.931 29.3287 182.89 28.4558 183.073 27.6478C183.254 26.829 183.627 26.1312 184.194 25.5546C184.758 24.9671 185.476 24.5476 186.347 24.2961C187.469 23.9723 188.474 23.9886 189.364 24.345C190.262 24.6873 190.98 25.3294 191.517 26.2713L189.051 26.9834C188.809 26.6285 188.5 26.3877 188.122 26.2607C187.752 26.1198 187.339 26.1153 186.882 26.2474C186.228 26.436 185.779 26.8252 185.534 27.4151C185.285 27.9941 185.285 28.7197 185.532 29.5921C185.775 30.4536 186.156 31.0692 186.673 31.439C187.186 31.7979 187.77 31.883 188.423 31.6944C189.349 31.4271 189.836 30.8383 189.884 29.9277L192.351 29.2156C192.378 30.2694 192.103 31.1921 191.526 31.9839C190.95 32.7756 190.106 33.3319 188.995 33.6525C188.124 33.9041 187.297 33.9365 186.514 33.7497C185.728 33.5521 185.045 33.1593 184.467 32.5714C183.885 31.9726 183.461 31.2043 183.196 30.2665ZM200.869 20.2623L203.434 29.3243L201.131 29.9893L200.807 28.8442C200.624 29.3217 200.325 29.7441 199.911 30.1114C199.504 30.4647 199.024 30.7216 198.468 30.8819C197.76 31.0863 197.093 31.1198 196.465 30.9826C195.834 30.8345 195.279 30.517 194.8 30.0302C194.328 29.5294 193.978 28.8755 193.75 28.0685L192.245 22.7523L194.532 22.0921L195.944 27.0811C196.147 27.8008 196.484 28.3051 196.955 28.5939C197.422 28.8719 197.966 28.9212 198.587 28.742C199.218 28.5597 199.66 28.2258 199.911 27.7403C200.159 27.244 200.182 26.636 199.978 25.9163L198.566 20.9272L200.869 20.2623ZM206.319 20.7232L207.56 25.107C207.647 25.4124 207.781 25.6155 207.962 25.7164C208.152 25.8032 208.421 25.7963 208.769 25.6957L209.831 25.3892L210.377 27.3194L208.94 27.7344C207.013 28.2909 205.784 27.6313 205.253 25.7556L204.017 21.3882L202.939 21.6995L202.406 19.8184L203.484 19.5071L202.85 17.2661L205.153 16.6012L205.787 18.8421L207.812 18.2574L208.345 20.1385L206.319 20.7232ZM216.081 25.8316C215.21 26.0831 214.372 26.1186 213.567 25.9382C212.759 25.7468 212.054 25.3549 211.45 24.7624C210.858 24.1667 210.43 23.4055 210.168 22.4785C209.905 21.5516 209.875 20.6756 210.078 19.8504C210.291 19.0221 210.697 18.315 211.297 17.729C211.894 17.132 212.627 16.7078 213.498 16.4563C214.37 16.2047 215.215 16.1731 216.033 16.3613C216.849 16.5386 217.559 16.9235 218.162 17.516C218.777 18.1054 219.215 18.8635 219.477 19.7904C219.74 20.7173 219.759 21.5965 219.535 22.428C219.322 23.2563 218.911 23.9704 218.304 24.5705C217.704 25.1566 216.963 25.5769 216.081 25.8316ZM215.517 23.836C215.93 23.7165 216.289 23.5067 216.593 23.2067C216.904 22.8926 217.112 22.5024 217.216 22.036C217.319 21.5697 217.289 21.0475 217.126 20.4695C216.882 19.608 216.466 19.0143 215.879 18.6884C215.3 18.3483 214.684 18.2727 214.031 18.4613C213.377 18.6499 212.894 19.0432 212.58 19.641C212.274 20.2248 212.243 20.9474 212.487 21.8089C212.731 22.6704 213.131 23.2743 213.689 23.6206C214.254 23.9528 214.863 24.0246 215.517 23.836ZM222.557 15.5216C222.715 14.9569 222.99 14.4706 223.381 14.0628C223.783 13.6519 224.289 13.3584 224.898 13.1823L225.579 15.5868L224.975 15.7613C224.256 15.9688 223.759 16.2951 223.485 16.74C223.221 17.1818 223.208 17.8226 223.446 18.6622L224.724 23.1769L222.437 23.8371L219.872 14.7751L222.159 14.1149L222.557 15.5216Z" fill="black"/>
</svg>
