<svg width="500" height="500" viewBox="0 0 500 500" fill="none" xmlns="http://www.w3.org/2000/svg">
<path d="M454.291 246.445C454.291 358.169 364.623 448.725 254.029 448.725C143.435 448.725 53.7669 358.169 53.7669 246.445C53.7669 134.721 143.435 44.1653 254.029 44.1653C364.623 44.1653 454.291 134.721 454.291 246.445Z" stroke="black" stroke-width="1.69"/>
<line x1="253.823" y1="43.3203" x2="253.823" y2="449.57" stroke="black" stroke-width="1.69"/>
<line y1="-0.845002" x2="401.902" y2="-0.845002" transform="matrix(0.863241 -0.504793 0.516699 0.856167 81.2256 347.969)" stroke="black" stroke-width="1.69"/>
<line y1="-0.845002" x2="405.074" y2="-0.845002" transform="matrix(0.496122 -0.868253 0.874859 0.484377 153.344 422.406)" stroke="black" stroke-width="1.69"/>
<line y1="-0.845002" x2="405.196" y2="-0.845002" transform="matrix(0.496595 0.867982 -0.8746 0.484846 153.36 70.7031)" stroke="black" stroke-width="1.69"/>
<line y1="-0.845002" x2="403.483" y2="-0.845002" transform="matrix(0.86385 0.503748 -0.496261 0.868173 79.7021 144.742)" stroke="black" stroke-width="1.69"/>
<line x1="455.139" y1="246.228" x2="52.9243" y2="246.228" stroke="black" stroke-width="1.69"/>
<path d="M254.501 242.499L352.5 71C337.546 62.1562 305.539 45.453 254.042 44.1432L254.501 242.499Z" fill="#0280D4"/>
<path d="M143.998 441.83L143.181 444.6L146.898 445.703L146.38 447.459L142.663 446.356L141.799 449.284L145.99 450.528L145.458 452.332L139.051 450.431L142.316 439.369L148.723 441.27L148.19 443.074L143.998 441.83ZM152.311 454.365L151.311 451.108L148.91 453.356L146.537 452.652L150.699 449.102L149.093 443.876L151.592 444.617L152.581 447.854L154.993 445.626L157.366 446.33L153.198 449.844L154.81 455.107L152.311 454.365ZM160.441 448.62C160.845 448.303 161.333 448.087 161.906 447.97C162.493 447.846 163.109 447.88 163.752 448.07C164.501 448.293 165.121 448.677 165.613 449.225C166.116 449.776 166.44 450.446 166.586 451.235C166.745 452.016 166.692 452.855 166.427 453.752C166.163 454.649 165.748 455.392 165.184 455.982C164.634 456.565 163.997 456.955 163.273 457.153C162.56 457.355 161.829 457.345 161.08 457.122C160.437 456.931 159.906 456.631 159.489 456.22C159.081 455.812 158.784 455.362 158.596 454.871L156.994 460.299L154.78 459.642L158.601 446.697L160.815 447.354L160.441 448.62ZM164.165 453.081C164.321 452.554 164.344 452.067 164.235 451.622C164.139 451.169 163.942 450.789 163.642 450.482C163.353 450.178 163.003 449.965 162.592 449.843C162.191 449.724 161.781 449.717 161.36 449.822C160.953 449.919 160.581 450.13 160.244 450.455C159.918 450.782 159.677 451.21 159.521 451.737C159.366 452.265 159.336 452.755 159.431 453.208C159.538 453.664 159.734 454.049 160.019 454.364C160.319 454.67 160.669 454.883 161.069 455.002C161.481 455.124 161.891 455.131 162.302 455.024C162.723 454.919 163.096 454.703 163.422 454.375C163.759 454.05 164.007 453.619 164.165 453.081ZM176.23 456.489C176.136 456.805 176.031 457.084 175.914 457.325L169.508 455.424C169.374 456.072 169.449 456.634 169.733 457.108C170.018 457.583 170.444 457.904 171.014 458.073C171.836 458.318 172.526 458.138 173.083 457.534L175.471 458.243C174.969 459.012 174.278 459.564 173.399 459.9C172.523 460.225 171.564 460.233 170.52 459.923C169.676 459.673 168.971 459.263 168.405 458.693C167.853 458.117 167.488 457.429 167.311 456.63C167.144 455.835 167.193 454.989 167.458 454.092C167.726 453.185 168.145 452.443 168.717 451.867C169.288 451.291 169.961 450.917 170.734 450.745C171.507 450.572 172.327 450.615 173.191 450.871C174.024 451.119 174.715 451.518 175.263 452.071C175.821 452.627 176.182 453.29 176.344 454.061C176.52 454.825 176.482 455.634 176.23 456.489ZM174.123 455.175C174.281 454.602 174.209 454.088 173.908 453.631C173.61 453.164 173.171 452.845 172.591 452.672C172.042 452.51 171.529 452.541 171.049 452.766C170.584 452.983 170.222 453.375 169.963 453.941L174.123 455.175ZM180.897 454.793C181.319 454.413 181.795 454.159 182.326 454.029C182.868 453.903 183.435 453.928 184.025 454.103L183.338 456.429L182.753 456.256C182.057 456.049 181.482 456.056 181.027 456.277C180.582 456.501 180.24 457.019 180 457.831L178.711 462.199L176.496 461.542L179.084 452.775L181.299 453.432L180.897 454.793ZM186.911 453.961C186.521 453.845 186.229 453.627 186.037 453.306C185.859 452.978 185.824 452.629 185.933 452.26C186.042 451.891 186.259 451.622 186.584 451.455C186.922 451.28 187.287 451.25 187.677 451.366C188.067 451.482 188.351 451.704 188.53 452.032C188.722 452.353 188.763 452.698 188.654 453.067C188.545 453.436 188.321 453.709 187.983 453.884C187.658 454.051 187.301 454.077 186.911 453.961ZM187.694 455.33L185.106 464.097L182.892 463.439L185.479 454.672L187.694 455.33ZM200.802 459.081C201.878 459.401 202.645 459.989 203.102 460.848C203.574 461.699 203.635 462.716 203.286 463.897L201.768 469.041L199.553 468.383L200.983 463.541C201.185 462.855 201.165 462.281 200.923 461.819C200.684 461.347 200.264 461.021 199.663 460.843C199.062 460.665 198.528 460.707 198.06 460.97C197.606 461.225 197.278 461.696 197.076 462.382L195.646 467.224L193.432 466.567L194.861 461.725C195.063 461.039 195.044 460.465 194.801 460.003C194.562 459.53 194.142 459.205 193.541 459.027C192.93 458.845 192.39 458.886 191.923 459.149C191.469 459.404 191.141 459.875 190.938 460.56L189.509 465.403L187.294 464.746L189.882 455.979L192.096 456.636L191.784 457.696C192.177 457.411 192.627 457.229 193.132 457.15C193.648 457.073 194.174 457.115 194.712 457.274C195.398 457.478 195.966 457.807 196.416 458.262C196.87 458.706 197.165 459.241 197.302 459.867C197.736 459.445 198.267 459.161 198.895 459.015C199.534 458.871 200.17 458.894 200.802 459.081ZM213.366 467.508C213.272 467.824 213.167 468.103 213.05 468.344L206.644 466.443C206.51 467.091 206.585 467.653 206.869 468.127C207.154 468.602 207.58 468.924 208.15 469.093C208.972 469.337 209.662 469.157 210.219 468.553L212.607 469.262C212.105 470.031 211.414 470.583 210.535 470.919C209.659 471.244 208.7 471.252 207.656 470.942C206.812 470.692 206.107 470.282 205.541 469.713C204.989 469.136 204.624 468.448 204.447 467.65C204.28 466.854 204.329 466.008 204.594 465.112C204.862 464.204 205.281 463.463 205.853 462.886C206.424 462.31 207.097 461.936 207.87 461.764C208.643 461.592 209.462 461.634 210.327 461.89C211.16 462.138 211.851 462.538 212.399 463.09C212.957 463.646 213.318 464.31 213.48 465.081C213.656 465.844 213.618 466.653 213.366 467.508ZM211.259 466.194C211.417 465.622 211.345 465.107 211.044 464.65C210.746 464.183 210.307 463.864 209.727 463.692C209.178 463.529 208.665 463.56 208.185 463.785C207.72 464.002 207.358 464.394 207.099 464.96L211.259 466.194ZM221.114 465.108C222.158 465.418 222.903 466.001 223.35 466.856C223.801 467.701 223.851 468.715 223.502 469.896L221.984 475.039L219.77 474.382L221.199 469.54C221.405 468.843 221.388 468.259 221.149 467.786C220.913 467.303 220.495 466.973 219.893 466.794C219.282 466.613 218.741 466.659 218.27 466.932C217.813 467.198 217.482 467.679 217.276 468.376L215.847 473.218L213.632 472.561L216.22 463.794L218.435 464.451L218.112 465.543C218.52 465.251 218.981 465.066 219.497 464.99C220.026 464.906 220.565 464.946 221.114 465.108ZM228.719 469.482L227.467 473.723C227.38 474.019 227.385 474.255 227.482 474.433C227.592 474.603 227.816 474.739 228.153 474.839L229.181 475.144L228.63 477.011L227.238 476.598C225.372 476.044 224.706 474.86 225.242 473.046L226.489 468.82L225.445 468.51L225.982 466.691L227.026 467L227.666 464.832L229.896 465.494L229.256 467.662L231.218 468.244L230.681 470.064L228.719 469.482ZM239.719 475.328C239.626 475.644 239.521 475.923 239.404 476.163L232.997 474.263C232.863 474.911 232.938 475.473 233.223 475.947C233.507 476.422 233.934 476.743 234.503 476.912C235.326 477.156 236.016 476.977 236.572 476.373L238.961 477.082C238.459 477.851 237.768 478.403 236.889 478.739C236.013 479.064 235.053 479.072 234.009 478.762C233.165 478.512 232.461 478.102 231.895 477.532C231.342 476.955 230.978 476.268 230.8 475.469C230.634 474.674 230.683 473.828 230.947 472.931C231.215 472.024 231.635 471.282 232.206 470.706C232.778 470.13 233.45 469.756 234.224 469.584C234.997 469.411 235.816 469.454 236.681 469.71C237.514 469.957 238.204 470.357 238.752 470.91C239.311 471.466 239.671 472.129 239.834 472.9C240.01 473.664 239.972 474.473 239.719 475.328ZM237.613 474.014C237.77 473.441 237.698 472.927 237.397 472.47C237.099 472.003 236.66 471.683 236.08 471.511C235.532 471.349 235.018 471.38 234.539 471.605C234.073 471.822 233.711 472.214 233.452 472.78L237.613 474.014ZM244.386 473.632C244.808 473.252 245.285 472.998 245.816 472.868C246.358 472.742 246.924 472.767 247.515 472.942L246.828 475.268L246.243 475.095C245.547 474.888 244.971 474.895 244.516 475.116C244.072 475.34 243.729 475.858 243.49 476.67L242.201 481.038L239.986 480.381L242.574 471.614L244.788 472.271L244.386 473.632Z" fill="black"/>
<path d="M397.182 70.0312L393.504 66.6379L391.29 67.852L389.345 66.0577L401.105 59.7898L403.262 61.7794L398.142 74.1747L396.185 72.3682L397.182 70.0312ZM398.031 68.0722L400.221 62.9412L395.359 65.6065L398.031 68.0722ZM410.231 71.5645C411.104 72.3701 411.556 73.3014 411.587 74.3585C411.625 75.4066 411.194 76.4291 410.293 77.4259L406.369 81.7647L404.517 80.0558L408.211 75.9707C408.742 75.3833 409.003 74.7996 408.994 74.2196C408.993 73.6307 408.741 73.1043 408.238 72.6404C407.727 72.1685 407.176 71.9544 406.586 71.9981C406.014 72.0411 405.462 72.3562 404.93 72.9436L401.236 77.0287L399.384 75.3199L406.073 67.924L407.925 69.6328L407.092 70.554C407.628 70.4614 408.167 70.5011 408.707 70.673C409.264 70.8442 409.772 71.1413 410.231 71.5645ZM411.022 79.2256C411.698 78.478 412.444 77.9493 413.258 77.6393C414.081 77.3375 414.885 77.2627 415.669 77.415C416.462 77.5755 417.172 77.9446 417.798 78.5224C418.345 79.0269 418.721 79.5776 418.925 80.1744C419.138 80.7793 419.216 81.3648 419.157 81.9309L420.111 80.8762L421.976 82.5973L415.287 89.9931L413.422 88.2721L414.4 87.1907C413.848 87.3181 413.255 87.3022 412.623 87.143C412.007 86.9831 411.426 86.6508 410.879 86.1463C410.261 85.5767 409.842 84.8957 409.62 84.1034C409.407 83.3191 409.412 82.4994 409.636 81.6443C409.876 80.7883 410.338 79.9821 411.022 79.2256ZM416.766 84.5742C417.177 84.1203 417.439 83.6517 417.552 83.1686C417.673 82.6765 417.661 82.2076 417.514 81.7619C417.375 81.3072 417.133 80.9212 416.789 80.6038C416.445 80.2865 416.052 80.0781 415.608 79.9786C415.164 79.8792 414.7 79.9087 414.217 80.0671C413.751 80.2248 413.317 80.5261 412.914 80.9711C412.512 81.4161 412.246 81.8891 412.116 82.39C412.004 82.8902 412.012 83.3635 412.142 83.8101C412.281 84.2647 412.518 84.6467 412.853 84.9559C413.197 85.2733 413.596 85.4857 414.048 85.5933C414.509 85.692 414.973 85.6625 415.439 85.5048C415.913 85.3383 416.356 85.0281 416.766 84.5742ZM427.883 83.492L418.948 93.371L417.096 91.6621L426.031 81.7832L427.883 83.492ZM434.478 94.1326L420.088 100.84L418.117 99.0208L423.037 96.801L426.62 86.8823L428.697 88.7986L425.916 95.7105L432.507 92.314L434.478 94.1326ZM431.484 105.158C430.884 104.604 430.442 104.001 430.159 103.348C429.884 102.686 429.775 102.038 429.831 101.404C429.895 100.778 430.12 100.226 430.504 99.7473L432.369 101.468C432.147 101.786 432.07 102.148 432.139 102.554C432.217 102.969 432.437 103.343 432.799 103.677C433.151 104.002 433.489 104.183 433.812 104.22C434.144 104.265 434.41 104.176 434.611 103.953C434.829 103.713 434.866 103.421 434.724 103.078C434.598 102.733 434.335 102.246 433.935 101.615C433.509 100.977 433.184 100.424 432.96 99.9563C432.745 99.4966 432.642 99.0019 432.652 98.4722C432.671 97.9506 432.905 97.4407 433.356 96.9423C433.726 96.5329 434.179 96.2648 434.714 96.1382C435.258 96.0197 435.835 96.062 436.444 96.2649C437.062 96.476 437.667 96.8541 438.258 97.3993C439.131 98.2049 439.626 99.0702 439.744 99.9953C439.87 100.912 439.621 101.768 438.998 102.564L437.225 100.929C437.465 100.611 437.55 100.265 437.483 99.8927C437.432 99.5194 437.226 99.1659 436.864 98.8323C436.529 98.5231 436.213 98.3453 435.915 98.2991C435.626 98.2609 435.381 98.3531 435.179 98.5756C434.954 98.8248 434.904 99.1301 435.031 99.4914C435.165 99.8438 435.432 100.327 435.831 100.94C436.24 101.562 436.552 102.103 436.767 102.563C436.982 103.022 437.076 103.518 437.05 104.048C437.04 104.578 436.818 105.091 436.384 105.589C435.998 106.016 435.532 106.289 434.988 106.408C434.453 106.534 433.877 106.492 433.259 106.281C432.657 106.069 432.066 105.695 431.484 105.158ZM443.453 105.23L440.218 108.808C439.992 109.057 439.885 109.292 439.895 109.514C439.921 109.735 440.076 109.975 440.358 110.235L441.218 111.029L439.793 112.604L438.629 111.53C437.068 110.09 436.98 108.604 438.364 107.073L441.588 103.509L440.715 102.703L442.103 101.168L442.977 101.974L444.631 100.145L446.496 101.866L444.842 103.695L446.482 105.208L445.094 106.744L443.453 105.23Z" fill="black"/>
<path d="M462.707 130.185C463.853 129.963 464.925 130.021 465.924 130.358C466.936 130.705 467.777 131.275 468.447 132.068C469.131 132.871 469.578 133.829 469.79 134.942C470.038 136.245 469.922 137.451 469.441 138.56C468.959 139.669 468.166 140.533 467.061 141.151L466.549 138.462C467.055 138.087 467.4 137.628 467.585 137.084C467.772 136.551 467.805 135.968 467.684 135.333C467.555 134.654 467.278 134.078 466.854 133.607C466.443 133.144 465.919 132.818 465.283 132.63C464.65 132.452 463.943 132.439 463.165 132.59C462.397 132.739 461.746 133.015 461.211 133.419C460.69 133.832 460.318 134.331 460.095 134.917C459.885 135.512 459.845 136.149 459.974 136.828C460.095 137.462 460.34 137.992 460.709 138.417C461.091 138.851 461.586 139.147 462.193 139.307L462.705 141.995C461.441 141.836 460.381 141.332 459.527 140.481C458.686 139.64 458.141 138.563 457.891 137.249C457.679 136.135 457.737 135.079 458.066 134.081C458.409 133.091 458.981 132.247 459.782 131.549C460.586 130.862 461.561 130.407 462.707 130.185ZM460.045 148.841C459.876 147.951 459.918 147.111 460.172 146.323C460.437 145.533 460.892 144.862 461.536 144.31C462.183 143.769 462.98 143.407 463.925 143.223C464.871 143.04 465.745 143.084 466.546 143.356C467.35 143.639 468.016 144.104 468.543 144.753C469.081 145.399 469.435 146.167 469.604 147.058C469.774 147.948 469.727 148.794 469.465 149.596C469.213 150.395 468.765 151.07 468.12 151.623C467.477 152.186 466.683 152.559 465.737 152.742C464.791 152.926 463.916 152.87 463.11 152.576C462.306 152.294 461.634 151.824 461.094 151.166C460.566 150.518 460.217 149.743 460.045 148.841ZM462.082 148.447C462.162 148.87 462.337 149.246 462.608 149.574C462.891 149.912 463.26 150.152 463.714 150.295C464.168 150.438 464.69 150.452 465.279 150.338C466.158 150.167 466.787 149.803 467.165 149.245C467.557 148.696 467.689 148.087 467.562 147.419C467.435 146.751 467.089 146.235 466.523 145.871C465.971 145.517 465.256 145.424 464.377 145.595C463.498 145.765 462.86 146.114 462.465 146.641C462.082 147.177 461.954 147.779 462.082 148.447ZM474.236 155.298L461.886 157.692L461.441 155.354L473.791 152.96L474.236 155.298ZM475.121 159.946L462.77 162.34L462.325 160.002L474.676 157.608L475.121 159.946ZM467.752 163.146C468.687 162.965 469.55 162.988 470.344 163.215C471.139 163.453 471.792 163.852 472.302 164.411C472.814 164.981 473.146 165.662 473.296 166.452C473.427 167.142 473.403 167.771 473.222 168.337C473.044 168.914 472.773 169.399 472.409 169.793L473.728 169.537L474.176 171.892L464.93 173.684L464.482 171.33L465.833 171.068C465.342 170.851 464.901 170.504 464.51 170.025C464.132 169.556 463.878 168.976 463.747 168.286C463.598 167.507 463.663 166.755 463.94 166.032C464.22 165.32 464.686 164.704 465.337 164.185C466.001 163.676 466.806 163.329 467.752 163.146ZM469.105 170.434C469.672 170.324 470.135 170.118 470.493 169.818C470.862 169.516 471.117 169.155 471.256 168.735C471.406 168.313 471.44 167.886 471.358 167.451C471.275 167.017 471.093 166.637 470.812 166.31C470.53 165.984 470.162 165.744 469.705 165.59C469.263 165.445 468.763 165.426 468.207 165.534C467.65 165.642 467.182 165.848 466.801 166.153C466.434 166.466 466.174 166.828 466.022 167.239C465.871 167.661 465.836 168.083 465.917 168.506C466 168.94 466.183 169.326 466.466 169.664C466.761 169.999 467.129 170.239 467.572 170.384C468.026 170.527 468.537 170.544 469.105 170.434ZM473.704 176.776C474.206 176.99 474.646 177.332 475.024 177.801C475.403 178.282 475.658 178.862 475.787 179.541C475.938 180.331 475.879 181.081 475.61 181.792C475.344 182.513 474.884 183.127 474.23 183.635C473.59 184.151 472.797 184.501 471.852 184.685C470.906 184.868 470.03 184.841 469.224 184.605C468.43 184.378 467.772 183.98 467.249 183.412C466.727 182.855 466.391 182.182 466.241 181.391C466.11 180.701 466.128 180.068 466.295 179.493C466.476 178.927 466.753 178.446 467.128 178.05L465.809 178.306L465.364 175.968L477.715 173.574L478.16 175.912L473.704 176.776ZM471.397 182.296C471.953 182.189 472.41 181.979 472.766 181.668C473.135 181.365 473.389 181.004 473.529 180.585C473.67 180.176 473.7 179.755 473.617 179.321C473.536 178.898 473.349 178.518 473.054 178.183C472.773 177.857 472.404 177.616 471.948 177.462C471.494 177.319 470.989 177.302 470.432 177.41C469.876 177.518 469.413 177.723 469.044 178.025C468.677 178.339 468.417 178.701 468.264 179.111C468.125 179.531 468.096 179.952 468.176 180.375C468.259 180.81 468.446 181.189 468.739 181.513C469.033 181.848 469.408 182.088 469.862 182.23C470.318 182.384 470.83 182.406 471.397 182.296ZM468.151 191.424C467.981 190.533 468.023 189.694 468.277 188.906C468.542 188.115 468.997 187.444 469.642 186.892C470.288 186.351 471.085 185.989 472.03 185.806C472.976 185.622 473.85 185.666 474.651 185.938C475.455 186.221 476.121 186.687 476.648 187.335C477.186 187.981 477.54 188.749 477.71 189.64C477.879 190.53 477.832 191.376 477.57 192.178C477.318 192.977 476.87 193.653 476.225 194.205C475.582 194.768 474.788 195.141 473.842 195.325C472.897 195.508 472.021 195.453 471.215 195.159C470.411 194.876 469.739 194.406 469.199 193.749C468.672 193.1 468.322 192.325 468.151 191.424ZM470.187 191.029C470.267 191.452 470.443 191.828 470.713 192.156C470.996 192.494 471.365 192.734 471.819 192.877C472.273 193.02 472.795 193.034 473.385 192.92C474.264 192.749 474.892 192.385 475.271 191.827C475.662 191.278 475.794 190.669 475.667 190.001C475.54 189.333 475.194 188.817 474.628 188.454C474.076 188.099 473.361 188.007 472.482 188.177C471.603 188.347 470.966 188.696 470.57 189.223C470.187 189.759 470.06 190.361 470.187 191.029ZM477.801 198.76C478.348 198.965 478.806 199.281 479.176 199.706C479.547 200.141 479.792 200.671 479.911 201.295L477.457 201.77L477.34 201.152C477.2 200.418 476.921 199.894 476.504 199.583C476.09 199.282 475.454 199.215 474.597 199.381L469.991 200.274L469.546 197.936L478.792 196.144L479.237 198.482L477.801 198.76ZM475.373 203.184C476.307 203.003 477.171 203.026 477.965 203.253C478.76 203.491 479.412 203.89 479.923 204.449C480.435 205.019 480.766 205.7 480.917 206.49C481.048 207.18 481.024 207.809 480.843 208.375C480.664 208.952 480.393 209.437 480.03 209.831L481.348 209.575L481.797 211.93L472.551 213.722L472.103 211.368L473.454 211.106C472.963 210.889 472.522 210.542 472.131 210.063C471.753 209.594 471.499 209.014 471.367 208.324C471.219 207.545 471.284 206.793 471.561 206.07C471.841 205.358 472.307 204.742 472.958 204.223C473.622 203.714 474.427 203.367 475.373 203.184ZM476.725 210.472C477.293 210.362 477.756 210.156 478.114 209.856C478.483 209.554 478.737 209.193 478.877 208.773C479.027 208.351 479.061 207.923 478.979 207.489C478.896 207.055 478.714 206.675 478.433 206.348C478.151 206.022 477.782 205.782 477.326 205.628C476.883 205.483 476.384 205.464 475.827 205.572C475.271 205.68 474.803 205.886 474.422 206.191C474.055 206.504 473.795 206.866 473.643 207.277C473.492 207.699 473.457 208.121 473.538 208.544C473.62 208.978 473.804 209.364 474.087 209.702C474.382 210.037 474.75 210.277 475.193 210.422C475.647 210.565 476.158 210.582 476.725 210.472ZM480.83 217.308L476.357 218.175C476.046 218.235 475.832 218.352 475.714 218.525C475.611 218.706 475.593 218.975 475.66 219.332L475.867 220.417L473.898 220.799L473.618 219.329C473.243 217.359 474.012 216.188 475.926 215.817L480.382 214.953L480.172 213.851L482.091 213.479L482.301 214.581L484.588 214.138L485.036 216.493L482.749 216.936L483.144 219.007L481.224 219.379L480.83 217.308ZM474.849 226.618C474.68 225.727 474.722 224.888 474.976 224.1C475.241 223.31 475.696 222.638 476.34 222.086C476.987 221.545 477.784 221.183 478.729 221C479.675 220.817 480.549 220.861 481.35 221.132C482.154 221.415 482.82 221.881 483.347 222.529C483.885 223.175 484.239 223.943 484.408 224.834C484.578 225.725 484.531 226.571 484.269 227.372C484.017 228.171 483.569 228.847 482.924 229.399C482.281 229.962 481.487 230.336 480.541 230.519C479.596 230.702 478.72 230.647 477.914 230.353C477.11 230.07 476.438 229.6 475.898 228.943C475.371 228.295 475.021 227.52 474.849 226.618ZM476.886 226.223C476.966 226.646 477.141 227.022 477.412 227.351C477.695 227.688 478.064 227.928 478.518 228.071C478.972 228.214 479.494 228.228 480.084 228.114C480.963 227.944 481.591 227.579 481.969 227.021C482.361 226.472 482.493 225.863 482.366 225.195C482.239 224.527 481.893 224.012 481.327 223.648C480.775 223.293 480.06 223.201 479.181 223.371C478.302 223.542 477.664 223.89 477.269 224.417C476.886 224.953 476.758 225.555 476.886 226.223ZM484.5 233.954C485.047 234.16 485.505 234.475 485.874 234.9C486.246 235.336 486.491 235.866 486.61 236.489L484.156 236.965L484.039 236.347C483.899 235.612 483.62 235.089 483.203 234.777C482.789 234.476 482.153 234.409 481.296 234.575L476.69 235.468L476.245 233.13L485.491 231.338L485.936 233.676L484.5 233.954Z" fill="black"/>
<path d="M462.46 339.127L463.736 335.188L465.636 335.806L463.584 342.142L451.636 338.255L452.413 335.857L462.46 339.127ZM464.04 323.854C464.382 323.966 464.683 324.089 464.942 324.223L462.695 331.159C463.399 331.324 464.013 331.259 464.537 330.963C465.062 330.667 465.424 330.211 465.624 329.594C465.913 328.704 465.735 327.946 465.093 327.32L465.931 324.734C466.755 325.305 467.338 326.076 467.68 327.045C468.01 328.011 467.992 329.059 467.626 330.189C467.33 331.102 466.864 331.859 466.228 332.46C465.585 333.045 464.825 333.423 463.95 333.592C463.079 333.751 462.159 333.672 461.189 333.356C460.207 333.037 459.411 332.557 458.798 331.916C458.186 331.275 457.797 330.53 457.63 329.681C457.464 328.832 457.532 327.939 457.835 327.003C458.128 326.101 458.582 325.359 459.2 324.778C459.821 324.185 460.553 323.811 461.398 323.657C462.235 323.488 463.115 323.553 464.04 323.854ZM462.551 326.114C461.931 325.925 461.368 325.988 460.862 326.303C460.345 326.615 459.985 327.084 459.782 327.712C459.589 328.306 459.609 328.867 459.841 329.397C460.066 329.912 460.483 330.319 461.092 330.618L462.551 326.114ZM464.578 322.777C463.62 322.465 462.83 322 462.211 321.382C461.595 320.752 461.192 320.047 461.004 319.266C460.819 318.474 460.858 317.673 461.12 316.862C461.35 316.155 461.692 315.585 462.147 315.152C462.606 314.709 463.105 314.397 463.642 314.219L462.289 313.779L463.072 311.364L472.554 314.45L471.772 316.864L470.386 316.413C470.731 316.866 470.963 317.415 471.082 318.06C471.194 318.689 471.135 319.357 470.906 320.065C470.647 320.864 470.205 321.528 469.579 322.057C468.958 322.574 468.213 322.906 467.346 323.052C466.471 323.184 465.548 323.092 464.578 322.777ZM467.031 315.322C466.449 315.132 465.915 315.085 465.431 315.18C464.935 315.27 464.515 315.475 464.173 315.792C463.819 316.106 463.57 316.486 463.425 316.931C463.281 317.376 463.256 317.822 463.351 318.27C463.446 318.717 463.666 319.129 464.01 319.506C464.347 319.868 464.801 320.142 465.371 320.328C465.942 320.513 466.481 320.563 466.989 320.475C467.488 320.373 467.913 320.171 468.264 319.868C468.618 319.554 468.865 319.18 469.005 318.747C469.15 318.301 469.176 317.849 469.085 317.391C468.983 316.928 468.763 316.516 468.426 316.154C468.078 315.789 467.613 315.511 467.031 315.322ZM468.337 311.171C467.379 310.859 466.59 310.394 465.97 309.776C465.354 309.147 464.954 308.436 464.769 307.644C464.584 306.852 464.623 306.05 464.885 305.24C465.085 304.623 465.412 304.08 465.867 303.61C466.311 303.136 466.809 302.806 467.361 302.619L462.86 301.155L463.647 298.723L476.314 302.844L475.526 305.276L474.122 304.819C474.494 305.268 474.736 305.808 474.847 306.437C474.959 307.066 474.9 307.735 474.67 308.443C474.412 309.242 473.97 309.906 473.344 310.434C472.719 310.962 471.973 311.3 471.105 311.447C470.23 311.579 469.307 311.487 468.337 311.171ZM470.79 303.716C470.208 303.527 469.675 303.479 469.19 303.574C468.694 303.665 468.275 303.869 467.932 304.187C467.578 304.501 467.329 304.88 467.185 305.326C467.041 305.771 467.016 306.217 467.111 306.664C467.205 307.112 467.425 307.524 467.77 307.901C468.106 308.263 468.56 308.537 469.131 308.722C469.701 308.908 470.24 308.957 470.748 308.87C471.248 308.768 471.673 308.565 472.023 308.263C472.377 307.949 472.624 307.575 472.765 307.141C472.909 306.696 472.936 306.244 472.845 305.785C472.742 305.323 472.522 304.911 472.186 304.549C471.837 304.183 471.372 303.905 470.79 303.716ZM474.982 290.074C475.324 290.186 475.625 290.309 475.884 290.444L473.638 297.379C474.341 297.545 474.955 297.479 475.48 297.183C476.004 296.887 476.367 296.431 476.566 295.814C476.855 294.924 476.678 294.166 476.035 293.54L476.873 290.955C477.697 291.526 478.28 292.296 478.622 293.265C478.952 294.231 478.935 295.279 478.569 296.409C478.273 297.322 477.807 298.079 477.171 298.68C476.527 299.266 475.768 299.643 474.893 299.813C474.022 299.971 473.101 299.892 472.131 299.577C471.15 299.257 470.353 298.777 469.741 298.136C469.128 297.495 468.739 296.75 468.573 295.901C468.406 295.052 468.475 294.159 468.778 293.223C469.07 292.321 469.525 291.58 470.142 290.998C470.763 290.405 471.496 290.032 472.34 289.877C473.177 289.708 474.058 289.774 474.982 290.074ZM473.493 292.335C472.873 292.146 472.31 292.209 471.805 292.524C471.288 292.835 470.927 293.304 470.724 293.932C470.532 294.526 470.552 295.088 470.784 295.617C471.008 296.132 471.425 296.539 472.034 296.838L473.493 292.335ZM473.262 284.93C472.859 284.459 472.595 283.931 472.469 283.347C472.346 282.752 472.389 282.135 472.596 281.496L475.112 282.314L474.907 282.948C474.662 283.701 474.654 284.33 474.882 284.833C475.114 285.325 475.669 285.714 476.548 286L481.272 287.537L480.496 289.934L471.013 286.849L471.79 284.451L473.262 284.93Z" fill="black"/>
<path d="M394.11 431.647C393.569 432.273 392.973 432.745 392.323 433.063C391.681 433.373 391.034 433.497 390.382 433.436C389.731 433.375 389.129 433.109 388.578 432.638L390.246 430.71C390.634 431.006 391.034 431.133 391.447 431.089C391.867 431.036 392.255 430.804 392.611 430.393C392.974 429.973 393.162 429.556 393.174 429.144C393.177 428.724 393.018 428.372 392.695 428.087C392.431 427.855 392.144 427.745 391.833 427.758C391.522 427.771 391.213 427.86 390.904 428.026C390.594 428.176 390.195 428.413 389.705 428.737C389.031 429.17 388.453 429.499 387.973 429.725C387.492 429.935 386.97 430.027 386.409 430.001C385.846 429.958 385.285 429.689 384.724 429.194C384.197 428.73 383.853 428.192 383.691 427.582C383.53 426.971 383.555 426.336 383.766 425.676C383.969 425.009 384.338 424.366 384.871 423.749C385.672 422.823 386.546 422.272 387.494 422.095C388.44 421.902 389.338 422.128 390.189 422.772L388.476 424.752C388.156 424.5 387.79 424.411 387.379 424.488C386.968 424.548 386.588 424.779 386.239 425.182C385.935 425.533 385.78 425.895 385.773 426.267C385.773 426.63 385.944 426.961 386.284 427.261C386.522 427.471 386.788 427.57 387.083 427.558C387.377 427.53 387.675 427.446 387.977 427.304C388.278 427.147 388.678 426.91 389.176 426.594C389.851 426.161 390.432 425.835 390.921 425.616C391.41 425.398 391.939 425.305 392.509 425.339C393.079 425.374 393.64 425.634 394.193 426.121C394.669 426.541 395.003 427.055 395.196 427.664C395.389 428.272 395.401 428.925 395.233 429.622C395.055 430.312 394.681 430.987 394.11 431.647ZM396.871 413.879L403.935 420.108L402.367 421.921L401.474 421.134C401.58 421.635 401.559 422.153 401.412 422.688C401.263 423.206 400.999 423.684 400.621 424.121C400.139 424.678 399.598 425.07 398.998 425.296C398.389 425.515 397.752 425.55 397.086 425.401C396.42 425.236 395.772 424.876 395.143 424.322L390.999 420.667L392.556 418.868L396.445 422.297C397.006 422.792 397.562 423.032 398.112 423.019C398.655 422.999 399.137 422.744 399.56 422.256C399.99 421.759 400.178 421.238 400.126 420.692C400.064 420.14 399.753 419.616 399.192 419.121L395.303 415.692L396.871 413.879ZM400.985 411.203C400.862 410.686 400.869 410.133 401.005 409.543C401.14 408.937 401.433 408.372 401.886 407.849C402.412 407.241 403.035 406.823 403.755 406.597C404.483 406.362 405.245 406.347 406.043 406.552C406.839 406.74 407.598 407.153 408.321 407.79C409.043 408.427 409.559 409.139 409.868 409.925C410.176 410.695 410.268 411.463 410.143 412.23C410.027 412.989 409.705 413.672 409.179 414.281C408.727 414.804 408.22 415.173 407.659 415.388C407.105 415.595 406.559 415.68 406.021 415.644L410.395 419.501L408.838 421.301L398.408 412.103L399.965 410.303L400.985 411.203ZM406.73 409.628C406.305 409.253 405.862 409.021 405.4 408.931C404.937 408.825 404.499 408.847 404.085 408.996C403.679 409.136 403.331 409.374 403.042 409.708C402.761 410.034 402.579 410.417 402.497 410.859C402.413 411.284 402.451 411.725 402.61 412.182C402.776 412.631 403.072 413.043 403.497 413.418C403.922 413.793 404.366 414.033 404.829 414.139C405.299 414.236 405.741 414.218 406.156 414.085C406.57 413.936 406.917 413.699 407.199 413.373C407.488 413.039 407.67 412.656 407.745 412.223C407.827 411.782 407.785 411.336 407.619 410.888C407.46 410.43 407.164 410.011 406.73 409.628ZM408.523 402.489C408.4 401.973 408.407 401.42 408.543 400.83C408.678 400.223 408.971 399.659 409.423 399.136C409.95 398.527 410.573 398.11 411.293 397.884C412.021 397.649 412.783 397.634 413.581 397.838C414.377 398.026 415.136 398.439 415.859 399.076C416.581 399.713 417.097 400.425 417.406 401.211C417.714 401.981 417.805 402.75 417.681 403.517C417.565 404.275 417.243 404.959 416.717 405.567C416.264 406.09 415.758 406.459 415.197 406.675C414.643 406.882 414.097 406.967 413.559 406.931L417.933 410.787L416.376 412.587L405.946 403.39L407.503 401.59L408.523 402.489ZM414.268 400.915C413.843 400.54 413.4 400.308 412.938 400.218C412.475 400.112 412.037 400.133 411.623 400.282C411.217 400.423 410.869 400.66 410.58 400.995C410.298 401.32 410.117 401.704 410.034 402.145C409.951 402.57 409.989 403.012 410.148 403.469C410.314 403.918 410.61 404.33 411.035 404.704C411.46 405.079 411.904 405.319 412.366 405.425C412.837 405.523 413.279 405.505 413.694 405.372C414.107 405.223 414.455 404.986 414.737 404.66C415.026 404.326 415.208 403.942 415.283 403.509C415.365 403.068 415.323 402.623 415.157 402.174C414.998 401.717 414.702 401.297 414.268 400.915ZM423.398 397.844C422.805 398.529 422.122 399.015 421.35 399.302C420.57 399.58 419.766 399.635 418.939 399.465C418.12 399.286 417.349 398.878 416.626 398.241C415.904 397.604 415.403 396.883 415.125 396.079C414.854 395.266 414.811 394.449 414.996 393.63C415.172 392.803 415.556 392.047 416.149 391.361C416.743 390.675 417.433 390.189 418.221 389.901C419.001 389.607 419.804 389.544 420.631 389.714C421.465 389.876 422.243 390.275 422.966 390.912C423.689 391.55 424.181 392.279 424.445 393.1C424.716 393.913 424.759 394.738 424.576 395.573C424.391 396.393 423.999 397.15 423.398 397.844ZM421.843 396.472C422.124 396.146 422.311 395.775 422.403 395.357C422.493 394.923 422.456 394.482 422.289 394.033C422.123 393.584 421.815 393.161 421.364 392.764C420.693 392.172 420.023 391.898 419.354 391.943C418.685 391.972 418.128 392.244 417.683 392.758C417.238 393.273 417.046 393.867 417.108 394.54C417.168 395.198 417.534 395.823 418.206 396.415C418.877 397.007 419.54 397.297 420.195 397.285C420.849 397.257 421.398 396.986 421.843 396.472ZM423.23 385.645C423.056 385.083 423.022 384.525 423.129 383.969C423.242 383.404 423.507 382.882 423.922 382.402L425.796 384.055L425.385 384.531C424.896 385.096 424.657 385.641 424.668 386.165C424.687 386.68 425.024 387.226 425.678 387.803L429.197 390.907L427.64 392.707L420.576 386.478L422.133 384.678L423.23 385.645ZM428.352 380.477L431.769 383.49C432.007 383.7 432.23 383.798 432.437 383.784C432.643 383.754 432.864 383.602 433.101 383.328L433.824 382.492L435.329 383.819L434.35 384.95C433.038 386.467 431.65 386.581 430.188 385.292L426.784 382.29L426.05 383.138L424.584 381.845L425.318 380.997L423.571 379.456L425.139 377.644L426.886 379.184L428.265 377.59L429.731 378.883L428.352 380.477ZM438.492 372.654C438.747 372.878 438.962 373.098 439.136 373.312L434.631 378.519C435.179 378.926 435.734 379.098 436.297 379.036C436.86 378.974 437.342 378.711 437.743 378.248C438.321 377.58 438.448 376.853 438.123 376.068L439.802 374.127C440.305 374.932 440.525 375.821 440.462 376.794C440.392 377.759 439.989 378.666 439.255 379.514C438.662 380.2 437.979 380.686 437.207 380.972C436.434 381.242 435.638 381.288 434.818 381.109C434.006 380.922 433.239 380.51 432.517 379.873C431.785 379.228 431.273 378.512 430.98 377.725C430.687 376.938 430.626 376.143 430.795 375.34C430.965 374.538 431.354 373.786 431.962 373.083C432.548 372.406 433.215 371.929 433.964 371.652C434.72 371.367 435.492 371.315 436.279 371.496C437.066 371.66 437.803 372.046 438.492 372.654ZM436.369 374.068C435.903 373.672 435.393 373.517 434.839 373.603C434.277 373.681 433.791 373.956 433.384 374.427C432.998 374.873 432.808 375.37 432.813 375.918C432.817 376.451 433.027 376.961 433.444 377.449L436.369 374.068ZM438.903 367.527C438.729 366.966 438.696 366.407 438.802 365.851C438.916 365.287 439.18 364.765 439.595 364.285L441.47 365.938L441.058 366.413C440.569 366.979 440.33 367.524 440.341 368.047C440.36 368.563 440.697 369.109 441.351 369.686L444.87 372.789L443.313 374.589L436.25 368.36L437.807 366.56L438.903 367.527Z" fill="black"/>
<path d="M280.044 467.226L283.978 478.421L281.736 479.22L279.177 471.939L278.742 480.287L277.044 480.892L271.475 474.684L274.034 481.965L271.792 482.764L267.858 471.57L270.404 470.662L276.884 477.719L277.514 468.128L280.044 467.226ZM291.447 465.76L294.569 474.646L292.312 475.45L291.917 474.328C291.764 474.815 291.492 475.255 291.101 475.647C290.718 476.025 290.253 476.31 289.709 476.505C289.015 476.752 288.35 476.826 287.715 476.728C287.076 476.619 286.502 476.336 285.994 475.88C285.492 475.409 285.102 474.778 284.824 473.987L282.992 468.774L285.234 467.975L286.953 472.867C287.201 473.572 287.569 474.055 288.056 474.314C288.54 474.563 289.086 474.579 289.695 474.362C290.314 474.141 290.734 473.781 290.955 473.281C291.172 472.771 291.156 472.163 290.908 471.457L289.189 466.565L291.447 465.76ZM294.852 461.19L299.023 473.058L296.781 473.857L292.61 461.989L294.852 461.19ZM301.374 464.298L302.884 468.596C302.99 468.895 303.136 469.09 303.324 469.179C303.518 469.254 303.786 469.231 304.128 469.109L305.169 468.738L305.834 470.631L304.425 471.133C302.535 471.806 301.267 471.224 300.621 469.385L299.116 465.102L298.059 465.479L297.411 463.635L298.468 463.258L297.696 461.061L299.953 460.256L300.726 462.453L302.711 461.745L303.36 463.59L301.374 464.298ZM305.089 459.707C304.694 459.848 304.32 459.843 303.966 459.692C303.62 459.527 303.381 459.257 303.249 458.883C303.118 458.508 303.137 458.153 303.307 457.815C303.483 457.464 303.769 457.217 304.164 457.077C304.559 456.936 304.93 456.948 305.276 457.113C305.63 457.264 305.872 457.527 306.004 457.901C306.135 458.275 306.113 458.638 305.936 458.99C305.766 459.327 305.484 459.566 305.089 459.707ZM306.566 460.372L309.688 469.257L307.446 470.056L304.324 461.171L306.566 460.372ZM315.855 459.136L317.365 463.434C317.47 463.734 317.617 463.928 317.804 464.018C317.999 464.093 318.267 464.069 318.609 463.948L319.65 463.577L320.315 465.469L318.906 465.971C317.016 466.645 315.748 466.062 315.102 464.223L313.597 459.941L312.54 460.318L311.892 458.473L312.948 458.096L312.176 455.899L314.434 455.094L315.206 457.292L317.192 456.584L317.84 458.428L315.855 459.136ZM319.778 460.625C319.462 459.727 319.359 458.868 319.467 458.047C319.585 457.223 319.883 456.515 320.36 455.924C320.848 455.329 321.471 454.896 322.229 454.626C322.89 454.39 323.514 454.318 324.099 454.411C324.695 454.499 325.213 454.693 325.655 454.993L325.21 453.726L327.468 452.921L330.59 461.807L328.332 462.611L327.876 461.312C327.734 461.832 327.456 462.322 327.041 462.783C326.633 463.229 326.099 463.57 325.437 463.806C324.689 464.072 323.939 464.123 323.184 463.959C322.44 463.791 321.765 463.424 321.158 462.859C320.557 462.278 320.097 461.534 319.778 460.625ZM326.771 458.169C326.579 457.623 326.309 457.196 325.96 456.888C325.608 456.568 325.214 456.371 324.78 456.298C324.342 456.213 323.915 456.245 323.498 456.393C323.082 456.542 322.733 456.78 322.452 457.109C322.172 457.438 321.989 457.84 321.903 458.316C321.825 458.777 321.88 459.274 322.068 459.809C322.256 460.344 322.528 460.776 322.884 461.106C323.247 461.422 323.643 461.624 324.07 461.712C324.508 461.797 324.93 461.767 325.336 461.622C325.752 461.474 326.106 461.233 326.398 460.901C326.686 460.557 326.869 460.155 326.947 459.694C327.021 459.223 326.963 458.714 326.771 458.169ZM336.225 459.96C335.499 460.219 334.803 460.323 334.136 460.272C333.466 460.21 332.881 460.015 332.382 459.688C331.893 459.357 331.537 458.924 331.313 458.391L333.571 457.586C333.734 457.913 333.999 458.137 334.366 458.259C334.744 458.377 335.152 458.358 335.589 458.202C336.016 458.05 336.317 457.846 336.492 457.591C336.677 457.333 336.723 457.07 336.629 456.803C336.528 456.514 336.303 456.353 335.955 456.321C335.614 456.274 335.094 456.279 334.393 456.336C333.675 456.412 333.072 456.44 332.585 456.421C332.109 456.399 331.653 456.266 331.22 456.023C330.797 455.777 330.48 455.355 330.27 454.756C330.097 454.264 330.078 453.766 330.213 453.26C330.358 452.751 330.651 452.286 331.092 451.864C331.543 451.439 332.126 451.098 332.841 450.844C333.898 450.467 334.835 450.434 335.653 450.744C336.467 451.043 337.064 451.63 337.444 452.506L335.298 453.271C335.142 452.929 334.895 452.704 334.556 452.596C334.225 452.474 333.84 452.491 333.403 452.647C332.997 452.791 332.708 452.978 332.537 453.208C332.376 453.434 332.342 453.68 332.436 453.948C332.542 454.247 332.772 454.424 333.127 454.477C333.479 454.521 333.998 454.51 334.684 454.446C335.381 454.378 335.967 454.355 336.444 454.378C336.92 454.401 337.372 454.541 337.798 454.798C338.232 455.04 338.558 455.453 338.775 456.038C338.955 456.551 338.973 457.062 338.827 457.571C338.693 458.076 338.4 458.542 337.948 458.967C337.504 459.378 336.93 459.709 336.225 459.96ZM346.758 456.044L342.417 453.332L343.748 457.117L341.506 457.916L337.335 446.047L339.577 445.248L341.95 452.001L343.603 447.17L346.518 446.131L344.178 451.982L349.672 455.005L346.758 456.044ZM357.475 447.008C357.588 447.329 357.668 447.625 357.715 447.897L351.23 450.209C351.509 450.831 351.91 451.254 352.432 451.476C352.955 451.699 353.505 451.708 354.081 451.502C354.914 451.206 355.381 450.636 355.481 449.794L357.899 448.932C357.943 449.879 357.7 450.76 357.17 451.575C356.636 452.379 355.84 452.969 354.783 453.346C353.929 453.65 353.095 453.737 352.28 453.606C351.472 453.461 350.754 453.109 350.125 452.551C349.507 451.99 349.039 451.254 348.719 450.345C348.396 449.426 348.299 448.552 348.429 447.724C348.558 446.896 348.893 446.175 349.434 445.561C349.975 444.947 350.684 444.484 351.559 444.172C352.402 443.871 353.219 443.785 354.008 443.912C354.809 444.036 355.509 444.37 356.109 444.914C356.715 445.444 357.171 446.142 357.475 447.008ZM354.928 447.194C354.714 446.621 354.344 446.235 353.818 446.037C353.289 445.829 352.73 445.83 352.143 446.039C351.588 446.237 351.178 446.575 350.914 447.055C350.657 447.519 350.591 448.066 350.716 448.695L354.928 447.194ZM360.344 442.755C360.467 442.182 360.711 441.68 361.076 441.249C361.452 440.814 361.939 440.49 362.537 440.277L363.365 442.635L362.773 442.846C362.068 443.097 361.593 443.453 361.346 443.914C361.11 444.371 361.137 445.011 361.426 445.834L362.982 450.261L360.74 451.06L357.618 442.175L359.86 441.376L360.344 442.755Z" fill="black"/>
<path d="M72.0234 377.423C72.9378 378.375 73.5533 379.388 73.87 380.462C74.1949 381.546 74.1971 382.613 73.8766 383.665C73.5731 384.718 72.9655 385.679 72.0539 386.549C71.1423 387.419 70.1523 387.982 69.084 388.238C68.0328 388.495 66.9713 388.438 65.8997 388.067C64.8364 387.705 63.8476 387.048 62.9332 386.096L59.8907 382.928L68.981 374.255L72.0234 377.423ZM64.4206 384.552C65.335 385.504 66.3021 385.991 67.3217 386.013C68.3414 386.036 69.3245 385.595 70.2708 384.692C71.2172 383.789 71.7058 382.826 71.7366 381.801C71.7762 380.768 71.3387 379.776 70.4243 378.824L69.1899 377.539L63.1862 383.267L64.4206 384.552ZM79.0138 395.328C78.7533 395.576 78.5023 395.783 78.2607 395.947L73.2107 390.689C72.7313 391.23 72.4978 391.801 72.5102 392.403C72.5226 393.004 72.7532 393.539 73.2021 394.006C73.8505 394.681 74.6027 394.884 75.4587 394.615L77.3415 396.575C76.4475 397.03 75.4921 397.179 74.4753 397.021C73.4673 396.855 72.5518 396.344 71.7288 395.487C71.0638 394.794 70.6172 394.026 70.3891 393.182C70.1779 392.339 70.2049 391.492 70.47 390.642C70.7434 389.801 71.2491 389.028 71.9871 388.324C72.7337 387.612 73.5347 387.138 74.39 386.902C75.2453 386.667 76.0867 386.677 76.9143 386.932C77.7419 387.187 78.4965 387.67 79.1781 388.379C79.8348 389.063 80.2733 389.814 80.4935 390.632C80.722 391.459 80.704 392.281 80.4397 393.097C80.1923 393.913 79.717 394.657 79.0138 395.328ZM77.7267 392.949C78.1872 392.493 78.3985 391.968 78.3604 391.374C78.331 390.771 78.0878 390.232 77.6306 389.756C77.1983 389.306 76.6936 389.058 76.1165 389.012C75.5564 388.965 75.0001 389.14 74.4473 389.534L77.7267 392.949ZM79.6828 396.336C80.4295 395.624 81.2261 395.154 82.0727 394.927C82.928 394.691 83.7653 394.697 84.5845 394.943C85.4125 395.182 86.1589 395.647 86.824 396.339C87.6802 397.231 88.161 398.182 88.2665 399.192C88.389 400.203 88.1421 401.194 87.5258 402.163L85.643 400.203C85.8558 399.801 85.9285 399.391 85.8611 398.975C85.8106 398.559 85.6109 398.169 85.2617 397.805C84.763 397.286 84.1771 397.057 83.5041 397.119C82.8399 397.172 82.1604 397.53 81.4659 398.193C80.78 398.847 80.3915 399.508 80.3004 400.175C80.218 400.834 80.4262 401.424 80.925 401.943C81.6316 402.678 82.4228 402.844 83.2988 402.439L85.1816 404.4C84.209 404.946 83.21 405.145 82.1846 404.995C81.1592 404.846 80.2226 404.33 79.3747 403.447C78.7096 402.755 78.2714 401.995 78.0599 401.169C77.857 400.334 77.888 399.5 78.1527 398.667C78.4261 397.825 78.9361 397.049 79.6828 396.336ZM92.9849 401.273C92.6773 400.952 92.5194 400.589 92.5113 400.182C92.5202 399.775 92.6766 399.427 92.9804 399.137C93.2843 398.847 93.6358 398.711 94.035 398.728C94.4512 398.746 94.8131 398.915 95.1207 399.235C95.4282 399.555 95.5776 399.918 95.5687 400.325C95.5769 400.732 95.429 401.08 95.1251 401.37C94.8212 401.66 94.4612 401.796 94.045 401.779C93.6458 401.761 93.2924 401.593 92.9849 401.273ZM92.9857 402.988L85.7708 409.872L84.0251 408.055L91.24 401.171L92.9857 402.988ZM90.6801 407.734C91.4094 407.038 92.1934 406.564 93.0321 406.311C93.879 406.066 94.6955 406.05 95.4815 406.262C96.2676 406.474 96.9557 406.888 97.5459 407.502C97.9948 407.97 98.3187 408.515 98.5176 409.138C98.7253 409.752 98.7803 410.346 98.6828 410.92L102.108 407.653L103.878 409.496L94.2413 418.691L92.4707 416.847L93.5386 415.829C92.9665 415.943 92.3765 415.901 91.7688 415.701C91.161 415.501 90.5995 415.133 90.0841 414.597C89.5022 413.991 89.1265 413.288 88.9569 412.488C88.7873 411.687 88.8434 410.871 89.1251 410.038C89.4238 409.206 89.9421 408.438 90.6801 407.734ZM96.0906 413.419C96.5334 412.996 96.8279 412.549 96.9742 412.078C97.1292 411.598 97.1479 411.133 97.0302 410.681C96.9212 410.221 96.7046 409.822 96.3804 409.485C96.0562 409.147 95.6745 408.914 95.2352 408.786C94.7959 408.658 94.3284 408.656 93.8326 408.781C93.3538 408.906 92.8973 409.176 92.4632 409.59C92.0291 410.004 91.7302 410.455 91.5665 410.943C91.4199 411.431 91.3969 411.901 91.4975 412.352C91.6065 412.812 91.819 413.207 92.1348 413.536C92.459 413.873 92.8449 414.11 93.2925 414.247C93.7488 414.376 94.2163 414.377 94.6952 414.252C95.1826 414.119 95.6478 413.841 96.0906 413.419ZM106.131 423.56C105.871 423.809 105.62 424.015 105.378 424.18L100.328 418.922C99.849 419.462 99.6155 420.033 99.6279 420.635C99.6403 421.237 99.8709 421.772 100.32 422.239C100.968 422.914 101.72 423.117 102.576 422.847L104.459 424.808C103.565 425.263 102.61 425.411 101.593 425.254C100.585 425.087 99.6695 424.576 98.8465 423.719C98.1815 423.027 97.7349 422.259 97.5068 421.415C97.2956 420.572 97.3226 419.725 97.5877 418.875C97.8611 418.034 98.3668 417.261 99.1048 416.557C99.8514 415.844 100.652 415.37 101.508 415.135C102.363 414.899 103.204 414.909 104.032 415.164C104.86 415.42 105.614 415.902 106.296 416.612C106.953 417.296 107.391 418.047 107.611 418.865C107.84 419.692 107.822 420.513 107.557 421.329C107.31 422.146 106.835 422.889 106.131 423.56ZM104.844 421.181C105.305 420.725 105.516 420.2 105.478 419.606C105.449 419.004 105.205 418.465 104.748 417.989C104.316 417.539 103.811 417.291 103.234 417.244C102.674 417.198 102.118 417.372 101.565 417.767L104.844 421.181ZM111.482 424.48C112.089 424.349 112.679 424.367 113.254 424.532C113.837 424.705 114.361 425.034 114.826 425.519L112.912 427.346L112.451 426.865C111.902 426.294 111.352 425.99 110.8 425.952C110.257 425.924 109.651 426.228 108.982 426.866L105.388 430.295L103.642 428.478L110.857 421.594L112.602 423.412L111.482 424.48Z" fill="black"/>
<path d="M18.1386 266.304C17.9056 265.51 17.8302 264.75 17.9124 264.024C17.9978 263.309 18.2405 262.688 18.6405 262.159C19.0405 261.631 19.5851 261.253 20.2744 261.026L20.9923 263.473C20.5367 263.651 20.2167 263.929 20.0324 264.307C19.8513 264.696 19.8373 265.151 19.9905 265.673C20.1468 266.206 20.3941 266.586 20.7323 266.813C21.0813 267.036 21.4614 267.084 21.8725 266.955C22.2079 266.851 22.4534 266.661 22.6092 266.387C22.7649 266.113 22.8561 265.8 22.8825 265.447C22.923 265.102 22.9392 264.634 22.9311 264.043C22.9305 263.236 22.9644 262.567 23.0327 262.035C23.1151 261.511 23.3177 261.014 23.6408 260.546C23.9778 260.084 24.5033 259.742 25.2174 259.52C25.8882 259.31 26.5218 259.297 27.1184 259.478C27.715 259.66 28.2325 260.015 28.6709 260.543C29.12 261.068 29.4595 261.722 29.6893 262.505C30.0339 263.679 30.0264 264.72 29.6668 265.628C29.3212 266.543 28.6511 267.197 27.6565 267.59L26.9193 265.078C27.3024 264.935 27.5721 264.667 27.7284 264.274C27.8987 263.888 27.9089 263.44 27.7589 262.929C27.6281 262.483 27.4092 262.159 27.1022 261.958C26.7984 261.768 26.4301 261.741 25.9974 261.876C25.6944 261.97 25.4689 262.148 25.3208 262.407C25.1867 262.675 25.0978 262.976 25.0541 263.31C25.0245 263.651 25.0083 264.119 25.0055 264.714C25.0061 265.521 24.9669 266.192 24.8877 266.727C24.8085 267.262 24.602 267.766 24.2682 268.238C23.9344 268.71 23.4158 269.056 22.7126 269.275C22.1067 269.464 21.4979 269.482 20.886 269.329C20.2742 269.175 19.722 268.843 19.2296 268.332C18.7479 267.817 18.3843 267.142 18.1386 266.304ZM27.9199 272.714L23.5707 274.071C23.2678 274.165 23.0667 274.305 22.9676 274.491C22.8824 274.683 22.8909 274.954 22.993 275.302L23.3041 276.362L21.3892 276.959L20.968 275.524C20.4031 273.599 21.0512 272.346 22.912 271.766L27.245 270.414L26.9291 269.337L28.7954 268.755L29.1113 269.832L31.3346 269.138L32.0095 271.438L29.7862 272.132L30.3798 274.154L28.5135 274.737L27.9199 272.714ZM30.1362 278.516C30.6984 278.661 31.1834 278.925 31.5911 279.309C32.0019 279.703 32.2967 280.204 32.4754 280.813L30.0898 281.557L29.9127 280.954C29.7021 280.236 29.3749 279.745 28.931 279.48C28.4903 279.225 27.8534 279.228 27.0204 279.488L22.5413 280.886L21.8712 278.602L30.8618 275.797L31.5319 278.081L30.1362 278.516ZM28.1618 283.197C29.0706 282.914 29.9293 282.841 30.7378 282.981C31.5496 283.131 32.2357 283.457 32.7962 283.959C33.36 284.472 33.7552 285.114 33.9817 285.886C34.1796 286.56 34.2166 287.19 34.093 287.774C33.9725 288.37 33.7513 288.884 33.4296 289.317L34.7116 288.917L35.3865 291.217L26.3959 294.022L25.721 291.722L27.0355 291.312C26.5274 291.15 26.0562 290.852 25.6217 290.417C25.2012 289.991 24.8921 289.44 24.6942 288.766C24.4709 288.005 24.4614 287.248 24.6658 286.496C24.8734 285.754 25.2745 285.089 25.8693 284.5C26.478 283.918 27.2422 283.484 28.1618 283.197ZM30.2163 290.319C30.7681 290.147 31.2068 289.892 31.5325 289.553C31.869 289.21 32.0857 288.822 32.1828 288.388C32.2907 287.951 32.2824 287.52 32.1579 287.096C32.0335 286.672 31.8158 286.313 31.505 286.018C31.1941 285.723 30.805 285.524 30.3377 285.42C29.8844 285.325 29.3873 285.361 28.8463 285.53C28.3054 285.698 27.8612 285.956 27.5139 286.302C27.1806 286.655 26.9585 287.045 26.8474 287.471C26.7395 287.908 26.7462 288.333 26.8675 288.747C26.9919 289.171 27.2112 289.536 27.5252 289.841C27.8501 290.144 28.2392 290.343 28.6925 290.439C29.1566 290.531 29.6646 290.491 30.2163 290.319ZM34.955 296.688L30.6057 298.045C30.3028 298.14 30.1018 298.28 30.0026 298.465C29.9174 298.658 29.9259 298.928 30.028 299.276L30.3392 300.336L28.4242 300.934L28.003 299.498C27.4382 297.574 28.0862 296.321 29.947 295.74L34.2801 294.388L33.9641 293.312L35.8304 292.73L36.1463 293.806L38.3696 293.112L39.0445 295.412L36.8212 296.106L37.4148 298.129L35.5485 298.711L34.955 296.688ZM36.0613 309.514C35.7368 309.615 35.4383 309.685 35.1658 309.722L33.2273 303.116C32.5941 303.373 32.1526 303.76 31.9028 304.277C31.6531 304.794 31.6143 305.346 31.7866 305.933C32.0355 306.782 32.5751 307.272 33.4053 307.405L34.128 309.868C33.1859 309.877 32.3251 309.599 31.5455 309.035C30.7768 308.468 30.2344 307.646 29.9185 306.57C29.6632 305.7 29.6228 304.858 29.7972 304.043C29.9857 303.237 30.3741 302.528 30.9624 301.917C31.554 301.317 32.3095 300.874 33.2292 300.587C34.1596 300.296 35.0323 300.232 35.8472 300.393C36.6621 300.554 37.3594 300.918 37.9391 301.485C38.5188 302.052 38.9395 302.782 39.2012 303.673C39.4533 304.533 39.4943 305.357 39.3243 306.146C39.1575 306.945 38.7876 307.637 38.2145 308.219C37.6554 308.809 36.9377 309.241 36.0613 309.514ZM36.0164 306.946C36.5974 306.753 37.0004 306.396 37.2254 305.875C37.4611 305.35 37.4913 304.789 37.3158 304.19C37.1498 303.625 36.8363 303.2 36.3752 302.917C35.9282 302.641 35.3889 302.554 34.7575 302.656L36.0164 306.946ZM42.0358 313.333C42.2336 314.008 42.2723 314.642 42.1518 315.238C42.0421 315.83 41.8194 316.339 41.4836 316.764L42.7657 316.364L43.4406 318.664L34.3851 321.489C33.552 321.749 32.7615 321.812 32.0134 321.677C31.2545 321.546 30.5868 321.202 30.0103 320.646C29.423 320.094 28.9889 319.339 28.7081 318.382C28.3315 317.099 28.3195 315.951 28.672 314.939C29.0278 313.937 29.7036 313.222 30.6995 312.793L31.3648 315.06C30.9888 315.308 30.7392 315.665 30.6161 316.131C30.4853 316.611 30.5029 317.133 30.6688 317.699C30.8635 318.362 31.2216 318.838 31.7431 319.126C32.2539 319.418 32.9096 319.439 33.7102 319.189L35.1058 318.754C34.5977 318.592 34.1264 318.294 33.692 317.86C33.2607 317.436 32.9477 316.893 32.7531 316.229C32.5297 315.468 32.5202 314.711 32.7246 313.959C32.929 313.207 33.3286 312.536 33.9233 311.947C34.5321 311.365 35.2962 310.931 36.2159 310.644C37.1247 310.361 37.9833 310.289 38.7919 310.428C39.6036 310.578 40.2897 310.904 40.8503 311.406C41.414 311.919 41.8092 312.561 42.0358 313.333ZM38.2704 317.767C38.8221 317.594 39.2608 317.339 39.5865 317C39.923 316.657 40.1398 316.269 40.2368 315.835C40.3447 315.398 40.3364 314.967 40.212 314.543C40.0875 314.119 39.8699 313.76 39.559 313.465C39.2481 313.17 38.859 312.971 38.3917 312.868C37.9384 312.772 37.4413 312.808 36.9003 312.977C36.3594 313.146 35.9153 313.403 35.568 313.749C35.2347 314.102 35.0125 314.492 34.9014 314.918C34.7935 315.355 34.8002 315.781 34.9215 316.194C35.0459 316.618 35.2652 316.983 35.5793 317.289C35.9041 317.591 36.2932 317.79 36.7465 317.886C37.2107 317.978 37.7186 317.939 38.2704 317.767ZM45.506 321.718C45.3879 321.316 45.4134 320.94 45.5825 320.591C45.7655 320.249 46.0464 320.019 46.4251 319.9C46.8037 319.782 47.1558 319.815 47.4812 319.998C47.8206 320.189 48.0494 320.486 48.1675 320.888C48.2855 321.29 48.253 321.663 48.07 322.005C47.9009 322.354 47.627 322.588 47.2484 322.706C46.8697 322.824 46.5107 322.788 46.1712 322.597C45.8458 322.414 45.6241 322.121 45.506 321.718ZM44.7652 323.178L35.7746 325.983L35.1045 323.699L44.0951 320.894L44.7652 323.178ZM37.3054 331.743C37.0884 331.004 37.0236 330.3 37.1109 329.632C37.2091 328.96 37.4343 328.379 37.7866 327.89C38.1421 327.411 38.5909 327.069 39.1331 326.864L39.808 329.164C39.4746 329.316 39.2373 329.574 39.0963 329.938C38.9584 330.314 38.9549 330.724 39.0858 331.17C39.2134 331.605 39.3989 331.915 39.6422 332.1C39.8887 332.296 40.1472 332.352 40.4176 332.268C40.7097 332.177 40.8815 331.957 40.9327 331.609C40.9981 331.268 41.0215 330.744 41.0032 330.038C40.9676 329.313 40.9726 328.706 41.018 328.217C41.0667 327.739 41.2232 327.286 41.4877 326.859C41.7554 326.444 42.1922 326.141 42.798 325.952C43.2957 325.797 43.7916 325.796 44.2857 325.951C44.783 326.116 45.2288 326.428 45.6232 326.887C46.0207 327.356 46.3264 327.955 46.5402 328.684C46.8561 329.761 46.8378 330.704 46.4851 331.514C46.1432 332.321 45.5275 332.899 44.6378 333.248L43.9964 331.062C44.3439 330.918 44.5805 330.678 44.7063 330.342C44.8461 330.014 44.8506 329.627 44.7197 329.181C44.5985 328.767 44.4286 328.47 44.2101 328.289C43.9948 328.119 43.7519 328.076 43.4815 328.16C43.1785 328.255 42.9906 328.48 42.9177 328.835C42.8556 329.187 42.8375 329.709 42.8635 330.401C42.8927 331.104 42.8829 331.695 42.8343 332.173C42.7856 332.651 42.622 333.1 42.3435 333.519C42.0791 333.946 41.6509 334.257 41.059 334.454C40.5397 334.616 40.0314 334.614 39.5342 334.449C39.0401 334.294 38.5942 333.982 38.1967 333.513C37.8131 333.051 37.516 332.461 37.3054 331.743ZM46.9495 337.565L42.6003 338.921C42.2974 339.016 42.0963 339.156 41.9972 339.341C41.912 339.534 41.9205 339.804 42.0226 340.152L42.3337 341.213L40.4188 341.81L39.9976 340.375C39.4327 338.45 40.0808 337.197 41.9416 336.616L46.2746 335.264L45.9587 334.188L47.825 333.606L48.1409 334.682L50.3642 333.989L51.0391 336.289L48.8158 336.982L49.4094 339.005L47.5431 339.587L46.9495 337.565Z" fill="black"/>
<path d="M277.971 21.4956C276.9 21.2017 275.984 20.68 275.222 19.9304C274.461 19.1808 273.936 18.2906 273.649 17.2597C273.364 16.2179 273.372 15.1332 273.674 14.0054C273.972 12.8886 274.502 11.9588 275.264 11.2159C276.028 10.462 276.926 9.9562 277.957 9.69848C278.988 9.44076 280.039 9.45886 281.11 9.75278C282.192 10.0497 283.108 10.5715 283.859 11.3181C284.62 12.0676 285.138 12.9618 285.412 14.0006C285.699 15.0315 285.694 16.1053 285.395 17.2221C285.094 18.3498 284.561 19.2906 283.796 20.0445C283.046 20.7904 282.155 21.2922 281.124 21.5499C280.093 21.8077 279.042 21.7896 277.971 21.4956ZM278.52 19.4427C279.208 19.6316 279.856 19.6448 280.463 19.4822C281.072 19.3086 281.602 18.9722 282.052 18.4729C282.502 17.9736 282.83 17.3407 283.035 16.5742C283.239 15.8078 283.27 15.0994 283.127 14.4491C282.987 13.7878 282.696 13.2319 282.253 12.7814C281.811 12.3308 281.245 12.0111 280.557 11.8222C279.868 11.6332 279.215 11.6185 278.598 11.7781C277.991 11.9408 277.463 12.2717 277.012 12.771C276.565 13.2594 276.239 13.8868 276.034 14.6533C275.83 15.4197 275.797 16.1335 275.937 16.7948C276.077 17.4561 276.367 18.0175 276.807 18.479C277.26 18.9325 277.831 19.2537 278.52 19.4427ZM289.911 16.3989C290.335 15.9982 290.819 15.7254 291.362 15.5806C291.916 15.4389 292.499 15.452 293.111 15.6199L292.466 18.0342L291.859 17.8677C291.138 17.6698 290.546 17.6895 290.084 17.927C289.632 18.1674 289.294 18.7092 289.069 19.5523L287.857 24.0852L285.562 23.4553L287.994 14.3567L290.289 14.9865L289.911 16.3989ZM298.219 17.004C298.896 17.1899 299.456 17.4902 299.896 17.9049C300.339 18.3087 300.652 18.7645 300.833 19.2725L301.179 17.9751L303.491 18.6094L301.042 27.7738C300.816 28.6168 300.447 29.3204 299.932 29.8843C299.415 30.4592 298.766 30.8453 297.986 31.0426C297.203 31.2508 296.331 31.2229 295.369 30.959C294.079 30.6051 293.1 30.0131 292.43 29.1829C291.771 28.3558 291.526 27.4072 291.695 26.337L293.974 26.9623C293.983 27.4114 294.152 27.8104 294.481 28.1592C294.818 28.522 295.271 28.7814 295.839 28.9373C296.506 29.1203 297.101 29.0662 297.624 28.7751C298.145 28.4949 298.514 27.9496 298.73 27.1394L299.108 25.727C298.698 26.073 298.193 26.3164 297.593 26.4571C297.003 26.6008 296.375 26.5812 295.708 26.3983C294.943 26.1883 294.296 25.7993 293.768 25.2312C293.239 24.663 292.884 23.9721 292.703 23.1585C292.535 22.3369 292.576 21.4607 292.825 20.5301C293.07 19.6103 293.469 18.8441 294.02 18.2314C294.581 17.6217 295.225 17.2107 295.95 16.9984C296.687 16.7892 297.443 16.791 298.219 17.004ZM299.964 22.5244C300.113 21.966 300.131 21.4597 300.018 21.0056C299.907 20.5405 299.694 20.1529 299.378 19.8429C299.065 19.522 298.695 19.303 298.269 19.186C297.843 19.0691 297.422 19.0651 297.005 19.1742C296.589 19.2832 296.212 19.5088 295.874 19.8509C295.55 20.1851 295.315 20.6259 295.169 21.1734C295.023 21.7208 295.003 22.2326 295.111 22.7086C295.232 23.1767 295.443 23.5698 295.746 23.8877C296.059 24.2087 296.423 24.4261 296.838 24.5401C297.264 24.6571 297.691 24.6625 298.118 24.5565C298.548 24.4395 298.926 24.2139 299.249 23.8797C299.576 23.5346 299.814 23.0828 299.964 22.5244ZM303.935 23.5791C304.181 22.6593 304.579 21.8931 305.13 21.2804C305.692 20.6707 306.336 20.2597 307.061 20.0474C307.797 19.8382 308.554 19.84 309.33 20.053C310.007 20.2389 310.561 20.5377 310.99 20.9494C311.431 21.3641 311.749 21.8215 311.943 22.3215L312.29 21.0241L314.602 21.6584L312.17 30.7571L309.858 30.1227L310.214 28.7924C309.805 29.1385 309.3 29.3818 308.699 29.5225C308.112 29.6553 307.48 29.6287 306.802 29.4428C306.037 29.2328 305.391 28.8438 304.862 28.2757C304.344 27.7105 303.995 27.0211 303.814 26.2075C303.646 25.3859 303.687 24.5097 303.935 23.5791ZM311.074 25.5734C311.224 25.015 311.242 24.5087 311.128 24.0546C311.018 23.5895 310.805 23.2019 310.489 22.8919C310.176 22.571 309.806 22.352 309.38 22.235C308.954 22.1181 308.532 22.1141 308.116 22.2232C307.7 22.3322 307.323 22.5578 306.985 22.8999C306.661 23.2341 306.426 23.6749 306.28 24.2224C306.133 24.7698 306.114 25.2816 306.221 25.7576C306.343 26.2257 306.554 26.6188 306.856 26.9367C307.169 27.2577 307.534 27.4751 307.949 27.5891C308.375 27.7061 308.802 27.7115 309.229 27.6055C309.659 27.4885 310.036 27.2629 310.36 26.9287C310.687 26.5836 310.925 26.1318 311.074 25.5734ZM321.911 23.5233C322.993 23.8202 323.775 24.405 324.258 25.2778C324.743 26.1396 324.822 27.1836 324.494 28.4099L323.068 33.7476L320.772 33.1177L322.116 28.0921C322.309 27.3695 322.276 26.7671 322.018 26.2849C321.763 25.7918 321.323 25.4597 320.7 25.2887C320.067 25.1148 319.511 25.1739 319.034 25.4661C318.571 25.7504 318.243 26.2538 318.05 26.9764L316.707 32.002L314.412 31.3722L316.843 22.2735L319.138 22.9034L318.836 24.0366C319.247 23.7264 319.717 23.5263 320.245 23.4363C320.788 23.3383 321.343 23.3673 321.911 23.5233ZM329.136 24.4833C328.731 24.3724 328.426 24.1535 328.22 23.8267C328.028 23.4919 327.983 23.1329 328.086 22.7497C328.188 22.3665 328.404 22.0849 328.734 21.9051C329.077 21.7173 329.451 21.6789 329.855 21.7899C330.26 21.9008 330.558 22.1237 330.75 22.4585C330.956 22.7853 331.008 23.1403 330.905 23.5235C330.803 23.9067 330.58 24.1922 330.236 24.38C329.907 24.5599 329.54 24.5943 329.136 24.4833ZM329.977 25.8777L327.545 34.9764L325.25 34.3465L327.682 25.2479L329.977 25.8777ZM332.416 34.2858L336.465 35.397L335.961 37.2857L329.305 35.4592L329.801 33.6033L335.199 29.3379L331.248 28.2537L331.753 26.365L338.343 28.1735L337.847 30.0294L332.416 34.2858ZM347.449 35.3438C347.361 35.6723 347.26 35.9619 347.147 36.2127L340.507 34.3907C340.386 35.0626 340.478 35.6402 340.783 36.1235C341.088 36.6067 341.535 36.9293 342.126 37.0913C342.978 37.3252 343.683 37.1249 344.239 36.4902L346.715 37.1696C346.218 37.9735 345.523 38.5582 344.627 38.9236C343.735 39.278 342.748 39.3068 341.666 39.0099C340.791 38.77 340.056 38.3624 339.458 37.7872C338.875 37.2041 338.482 36.5027 338.279 35.6831C338.086 34.8664 338.115 33.9927 338.363 33.0621C338.615 32.1205 339.027 31.3463 339.6 30.7396C340.173 30.1329 340.855 29.7324 341.645 29.5381C342.436 29.3438 343.28 29.3697 344.176 29.6156C345.04 29.8525 345.76 30.2501 346.339 30.8083C346.928 31.3696 347.316 32.046 347.503 32.8378C347.704 33.6216 347.686 34.457 347.449 35.3438ZM345.248 34.0346C345.395 33.4403 345.307 32.911 344.986 32.4467C344.667 31.9714 344.207 31.6513 343.606 31.4863C343.038 31.3304 342.51 31.3736 342.023 31.616C341.55 31.8504 341.187 32.2622 340.936 32.8514L345.248 34.0346ZM352.205 33.4936C352.629 33.0928 353.113 32.82 353.656 32.6753C354.21 32.5335 354.793 32.5466 355.405 32.7146L354.76 35.1288L354.153 34.9624C353.432 34.7644 352.84 34.7842 352.377 35.0216C351.926 35.2621 351.588 35.8038 351.362 36.6469L350.151 41.1798L347.856 40.55L350.288 31.4513L352.583 32.0812L352.205 33.4936Z" fill="black"/>
<path d="M21.921 232.928L24.8254 233.572L25.674 229.669L27.5163 230.077L26.6676 233.981L29.738 234.662L30.695 230.26L32.587 230.679L31.1245 237.407L19.5234 234.834L20.9859 228.107L22.8779 228.526L21.921 232.928ZM24.8278 221.397C25.0661 220.301 25.6072 219.492 26.4512 218.971C27.284 218.448 28.3201 218.324 29.5593 218.598L34.9532 219.795L34.4477 222.12L29.369 220.994C28.6388 220.832 28.0403 220.891 27.5736 221.171C27.0958 221.448 26.7883 221.902 26.6511 222.533C26.5115 223.175 26.5999 223.729 26.9164 224.194C27.2242 224.645 27.7432 224.952 28.4735 225.114L33.5521 226.24L33.0465 228.566L23.8519 226.527L24.3575 224.201L25.5026 224.455C25.1717 224.057 24.9474 223.595 24.8296 223.069C24.7032 222.531 24.7026 221.973 24.8278 221.397ZM28.7367 213.26L33.1846 214.246C33.4944 214.315 33.7369 214.293 33.912 214.181C34.0785 214.055 34.2002 213.815 34.2773 213.461L34.512 212.381L36.4704 212.815L36.1526 214.277C35.7265 216.238 34.5619 217.007 32.6588 216.585L28.2275 215.602L27.9891 216.698L26.0805 216.275L26.3188 215.179L24.0451 214.674L24.5543 212.332L26.828 212.836L27.2758 210.776L29.1845 211.2L28.7367 213.26ZM33.8974 201.524C34.2293 201.597 34.5233 201.686 34.7792 201.789L33.3166 208.517C33.9925 208.609 34.5631 208.491 35.0284 208.165C35.4937 207.839 35.7913 207.377 35.9213 206.779C36.1091 205.915 35.872 205.218 35.2102 204.688L35.7555 202.18C36.5828 202.642 37.2024 203.313 37.614 204.194C38.0146 205.072 38.0957 206.059 37.8574 207.156C37.6648 208.042 37.2978 208.796 36.7565 209.419C36.2065 210.028 35.5285 210.453 34.7227 210.692C33.9192 210.92 33.0472 210.93 32.1068 210.721C31.1552 210.51 30.362 210.131 29.727 209.584C29.0921 209.037 28.6569 208.372 28.4213 207.588C28.1857 206.804 28.1666 205.958 28.364 205.05C28.5542 204.175 28.912 203.436 29.4375 202.833C29.9654 202.219 30.6187 201.801 31.3977 201.579C32.1679 201.343 33.0012 201.325 33.8974 201.524ZM32.7099 203.785C32.11 203.664 31.5873 203.774 31.1417 204.117C30.6851 204.456 30.3906 204.931 30.2582 205.54C30.133 206.116 30.2041 206.643 30.4715 207.12C30.7302 207.583 31.1598 207.928 31.7601 208.154L32.7099 203.785ZM31.8012 196.842C31.3793 196.435 31.0819 195.962 30.9088 195.425C30.7381 194.876 30.7202 194.292 30.855 193.672L33.2947 194.213L33.1611 194.827C33.0022 195.558 33.0533 196.15 33.3145 196.603C33.578 197.044 34.1358 197.359 34.9877 197.548L39.5685 198.564L39.0629 200.89L29.8683 198.851L30.3738 196.525L31.8012 196.842ZM33.1616 190.103C32.8062 189.711 32.5467 189.224 32.3832 188.642C32.2111 188.047 32.1985 187.411 32.3454 186.736C32.5163 185.95 32.864 185.284 33.3885 184.738C33.9154 184.182 34.5781 183.801 35.3768 183.595C36.1668 183.375 37.032 183.37 37.9725 183.578C38.913 183.787 39.7074 184.16 40.3558 184.699C40.9955 185.224 41.4448 185.852 41.7035 186.582C41.9645 187.302 42.0096 188.055 41.8387 188.841C41.6918 189.517 41.4235 190.084 41.0338 190.543C40.6464 190.991 40.2076 191.329 39.7173 191.557L45.41 192.82L44.9044 195.145L31.3283 192.135L31.8339 189.809L33.1616 190.103ZM37.4561 185.954C36.9028 185.831 36.4018 185.842 35.9529 185.986C35.4954 186.117 35.1206 186.347 34.8285 186.677C34.5388 186.996 34.347 187.371 34.2531 187.803C34.1617 188.224 34.1856 188.647 34.3251 189.073C34.4558 189.485 34.7006 189.853 35.0595 190.176C35.4207 190.488 35.8779 190.706 36.4312 190.829C36.9844 190.951 37.4898 190.947 37.9473 190.817C38.4073 190.675 38.7876 190.446 39.0883 190.129C39.3804 189.799 39.5722 189.424 39.6637 189.003C39.7576 188.571 39.7336 188.148 39.5918 187.733C39.4523 187.308 39.202 186.939 38.8407 186.627C38.4819 186.303 38.0204 186.079 37.4561 185.954ZM35.7086 178.867C35.2868 178.46 34.9894 177.988 34.8163 177.45C34.6456 176.902 34.6276 176.317 34.7625 175.697L37.2022 176.238L37.0686 176.853C36.9097 177.584 36.9608 178.175 37.2219 178.628C37.4855 179.07 38.0433 179.385 38.8952 179.574L43.4759 180.59L42.9704 182.915L33.7758 180.876L34.2813 178.55L35.7086 178.867ZM34.3968 172.738C34.3077 173.147 34.1058 173.462 33.7912 173.683C33.4678 173.89 33.1125 173.95 32.7253 173.864C32.338 173.779 32.046 173.574 31.8493 173.252C31.644 172.916 31.5858 172.544 31.6749 172.134C31.764 171.724 31.9702 171.416 32.2935 171.209C32.6082 170.989 32.9592 170.921 33.3464 171.007C33.7337 171.093 34.03 171.304 34.2353 171.64C34.432 171.962 34.4859 172.328 34.3968 172.738ZM35.7413 171.834L44.9359 173.873L44.4304 176.199L35.2358 174.16L35.7413 171.834ZM46.3504 168.087C46.1867 168.84 45.9071 169.486 45.5115 170.025C45.1049 170.562 44.6307 170.956 44.089 171.207C43.5496 171.448 42.9942 171.522 42.4227 171.43L42.9319 169.088C43.2956 169.122 43.6261 169.015 43.9234 168.768C44.2232 168.509 44.4224 168.153 44.5212 167.699C44.6175 167.256 44.6036 166.893 44.4795 166.61C44.3578 166.316 44.1587 166.138 43.8821 166.077C43.5834 166.011 43.3284 166.117 43.1171 166.395C42.8972 166.659 42.6265 167.104 42.305 167.73C41.9898 168.379 41.6955 168.906 41.4222 169.31C41.1513 169.703 40.7983 170.019 40.3634 170.259C39.9308 170.488 39.4048 170.534 38.7852 170.397C38.2762 170.284 37.8428 170.037 37.4849 169.656C37.1295 169.263 36.889 168.769 36.7636 168.172C36.6405 167.565 36.6596 166.89 36.821 166.148C37.0593 165.051 37.5261 164.238 38.2214 163.707C38.9056 163.174 39.7196 162.977 40.6635 163.117L40.1796 165.343C39.8072 165.295 39.4858 165.386 39.2154 165.617C38.9363 165.833 38.7475 166.169 38.6487 166.623C38.5573 167.044 38.5637 167.387 38.668 167.654C38.7748 167.91 38.9665 168.069 39.2431 168.13C39.5529 168.199 39.8245 168.097 40.0579 167.823C40.2802 167.548 40.5453 167.101 40.8533 166.485C41.1638 165.857 41.4544 165.347 41.7254 164.954C41.9963 164.562 42.3535 164.252 42.7972 164.025C43.2321 163.785 43.755 163.727 44.366 163.851C44.8971 163.969 45.3404 164.224 45.6958 164.616C46.0537 164.997 46.2941 165.492 46.4172 166.099C46.5316 166.694 46.5093 167.356 46.3504 168.087ZM44.4666 152.904C44.7986 152.978 45.0925 153.066 45.3484 153.17L43.8859 159.898C44.5618 159.989 45.1324 159.872 45.5976 159.546C46.0629 159.219 46.3605 158.757 46.4905 158.159C46.6783 157.295 46.4413 156.599 45.7794 156.069L46.3247 153.56C47.1521 154.022 47.7716 154.694 48.1832 155.574C48.5838 156.453 48.6649 157.44 48.4266 158.536C48.234 159.422 47.867 160.177 47.3257 160.8C46.7757 161.409 46.0978 161.833 45.2919 162.073C44.4884 162.301 43.6165 162.31 42.676 162.102C41.7244 161.891 40.9312 161.512 40.2963 160.965C39.6613 160.418 39.2261 159.752 38.9905 158.969C38.7549 158.185 38.7358 157.339 38.9332 156.431C39.1234 155.556 39.4813 154.817 40.0067 154.214C40.5346 153.6 41.188 153.181 41.9669 152.96C42.7372 152.724 43.5704 152.706 44.4666 152.904ZM43.2791 155.166C42.6792 155.045 42.1565 155.155 41.711 155.497C41.2544 155.837 40.9598 156.312 40.8274 156.921C40.7022 157.497 40.7733 158.023 41.0407 158.5C41.2995 158.964 41.729 159.309 42.3294 159.535L43.2791 155.166ZM42.3704 148.222C41.9486 147.815 41.6511 147.343 41.478 146.806C41.3073 146.257 41.2894 145.673 41.4242 145.052L43.8639 145.593L43.7303 146.208C43.5714 146.939 43.6226 147.531 43.8837 147.983C44.1473 148.425 44.705 148.74 45.557 148.929L50.1377 149.945L49.6321 152.271L40.4375 150.232L40.9431 147.906L42.3704 148.222Z" fill="black"/>
<path d="M55.9381 111.342L64.5542 119.501L62.9351 121.245L54.319 113.086L55.9381 111.342ZM62.7671 107.383C63.5304 106.561 64.4064 106.142 65.3952 106.126C66.3757 106.102 67.3268 106.527 68.2485 107.4L72.2603 111.199L70.6412 112.943L66.8639 109.366C66.3208 108.852 65.778 108.595 65.2355 108.597C64.6848 108.59 64.1898 108.824 63.7503 109.297C63.3031 109.779 63.0966 110.302 63.1307 110.865C63.1643 111.411 63.4526 111.942 63.9958 112.456L67.773 116.033L66.1539 117.777L59.3153 111.302L60.9345 109.557L61.7862 110.364C61.7058 109.851 61.7491 109.338 61.9161 108.825C62.0825 108.296 62.3662 107.815 62.7671 107.383ZM71.3186 101.244L70.1967 102.452L75.6157 107.584L73.9735 109.353L68.5545 104.222L67.8259 105.007L66.4063 103.662L67.1349 102.877L66.7893 102.55C65.9499 101.755 65.5563 100.93 65.6085 100.074C65.6607 99.2183 66.1501 98.3161 67.0769 97.3676L68.5335 98.7469C68.1321 99.1627 67.9283 99.5238 67.9222 99.8302C67.9161 100.137 68.1065 100.473 68.4933 100.839L68.7772 101.108L69.899 99.8994L71.3186 101.244ZM70.2714 94.8505L79.406 103.5L77.7868 105.245L68.6523 96.5949L70.2714 94.8505ZM80.2157 88.7847L87.0543 95.2603L85.4236 97.0171L84.5595 96.1989C84.6476 96.7037 84.6084 97.2207 84.442 97.7498C84.275 98.2628 83.9949 98.7312 83.6017 99.1548C83.1006 99.6947 82.5461 100.067 81.9384 100.272C81.3225 100.469 80.6847 100.482 80.0249 100.31C79.3647 100.121 78.73 99.739 78.1211 99.1623L74.1093 95.3635L75.7284 93.6191L79.4933 97.1842C80.0364 97.6985 80.5834 97.9589 81.134 97.9653C81.6765 97.9639 82.1675 97.7265 82.607 97.253C83.0541 96.7712 83.2609 96.2569 83.2273 95.71C83.1855 95.1554 82.893 94.6209 82.3499 94.1066L78.585 90.5416L80.2157 88.7847ZM91.0404 83.7443C91.2873 83.9781 91.4941 84.2051 91.6608 84.4254L86.9769 89.4716C87.5092 89.8976 88.0579 90.0894 88.6229 90.047C89.188 90.0046 89.6787 89.7591 90.0951 89.3106C90.6964 88.6627 90.8487 87.9406 90.5517 87.1444L92.2981 85.263C92.7714 86.0857 92.9599 86.9821 92.8635 87.9522C92.7589 88.9144 92.325 89.8068 91.5617 90.6291C90.9448 91.2936 90.2457 91.7553 89.4642 92.0142C88.6822 92.257 87.885 92.2746 87.0725 92.0672C86.2678 91.8514 85.5156 91.4123 84.8162 90.7499C84.1084 90.0798 83.622 89.3461 83.357 88.5489C83.0919 87.7516 83.0583 86.955 83.256 86.1589C83.4537 85.3629 83.8687 84.6243 84.5009 83.9431C85.11 83.2869 85.7935 82.8338 86.5513 82.5837C87.3168 82.3254 88.0899 82.3004 88.8705 82.5089C89.6505 82.7013 90.3739 83.1131 91.0404 83.7443ZM88.8697 85.0835C88.4176 84.671 87.9134 84.4979 87.3571 84.5642C86.7926 84.6227 86.2983 84.8803 85.8742 85.3372C85.4733 85.7691 85.2657 86.2593 85.2515 86.8077C85.2367 87.34 85.4289 87.8575 85.8281 88.3604L88.8697 85.0835ZM92.4029 75.4549C93.1662 74.6326 94.0422 74.2135 95.031 74.1977C96.0115 74.1742 96.9626 74.5988 97.8843 75.4715L101.896 79.2704L100.277 81.0147L96.4997 77.438C95.9566 76.9237 95.4138 76.6672 94.8713 76.6686C94.3206 76.6622 93.8255 76.8957 93.3861 77.3692C92.9389 77.851 92.7323 78.3733 92.7664 78.9363C92.8 79.4831 93.0884 80.0137 93.6315 80.528L97.4088 84.1048L95.7897 85.8491L88.9511 79.3736L90.5702 77.6292L91.422 78.4357C91.3416 77.9226 91.3849 77.4095 91.5518 76.8965C91.7183 76.3674 92.0019 75.8869 92.4029 75.4549ZM99.6002 74.8223C98.8924 74.1522 98.4102 73.4224 98.1533 72.6329C97.8883 71.8357 97.8508 71.0432 98.0408 70.2555C98.2225 69.4599 98.6218 68.7299 99.2386 68.0654C100.033 67.2098 100.902 66.7063 101.847 66.555C102.791 66.3876 103.734 66.5707 104.677 67.1044L102.93 68.9858C102.541 68.8049 102.153 68.757 101.765 68.8421C101.376 68.911 101.02 69.1199 100.696 69.4688C100.233 69.9672 100.048 70.5332 100.14 71.1668C100.224 71.7926 100.596 72.4172 101.254 73.0406C101.904 73.6562 102.545 73.9901 103.177 74.0422C103.801 74.0866 104.344 73.8595 104.807 73.3611C105.462 72.6551 105.577 71.898 105.152 71.0898L106.898 69.2083C107.462 70.1007 107.699 71.0358 107.611 72.0137C107.523 72.9915 107.086 73.9041 106.299 74.7513C105.683 75.4158 104.991 75.8692 104.225 76.1115C103.451 76.346 102.665 76.3592 101.869 76.1512C101.064 75.9355 100.308 75.4925 99.6002 74.8223ZM112.782 60.3214C113.029 60.5551 113.235 60.7822 113.402 61.0024L108.718 66.0486C109.25 66.4746 109.799 66.6664 110.364 66.6241C110.929 66.5817 111.42 66.3362 111.836 65.8876C112.438 65.2397 112.59 64.5177 112.293 63.7214L114.039 61.84C114.513 62.6628 114.701 63.5592 114.605 64.5292C114.5 65.4915 114.066 66.3838 113.303 67.2061C112.686 67.8707 111.987 68.3324 111.205 68.5912C110.423 68.834 109.626 68.8517 108.814 68.6442C108.009 68.4284 107.257 67.9893 106.557 67.327C105.85 66.6568 105.363 65.9231 105.098 65.1259C104.833 64.3287 104.799 63.532 104.997 62.736C105.195 61.9399 105.61 61.2013 106.242 60.5202C106.851 59.864 107.535 59.4108 108.292 59.1608C109.058 58.9024 109.831 58.8775 110.612 59.086C111.392 59.2784 112.115 59.6902 112.782 60.3214ZM110.611 61.6605C110.159 61.248 109.655 61.0749 109.098 61.1412C108.534 61.1997 108.039 61.4574 107.615 61.9142C107.214 62.3462 107.007 62.8363 106.993 63.3847C106.978 63.917 107.17 64.4346 107.569 64.9374L110.611 61.6605ZM113.373 55.2115C113.219 54.6443 113.205 54.0848 113.331 53.5328C113.464 52.9725 113.747 52.4597 114.179 51.9946L115.993 53.7128L115.565 54.1738C115.057 54.7221 114.799 55.2582 114.792 55.7822C114.792 56.2978 115.109 56.8557 115.743 57.4557L119.15 60.6818L117.531 62.4262L110.692 55.9506L112.311 54.2063L113.373 55.2115Z" fill="black"/>
<path d="M157.05 32.2331L157.86 35.0956L161.699 33.9873L162.212 35.803L158.374 36.9113L159.231 39.9374L163.559 38.6877L164.087 40.5524L157.472 42.4624L154.236 31.0285L160.851 29.1186L161.378 30.9833L157.05 32.2331ZM171.163 38.5093L168.504 36.2335L167.651 39.5233L165.201 40.2307L166.87 34.8297L162.604 31.1781L165.184 30.4329L167.821 32.6972L168.696 29.419L171.146 28.7116L169.451 34.0846L173.743 37.7642L171.163 38.5093ZM182.058 30.2495C182.151 30.5767 182.213 30.8774 182.243 31.1517L175.628 33.0617C175.868 33.7003 176.242 34.1468 176.749 34.4012C177.257 34.6557 177.805 34.698 178.393 34.5282C179.242 34.283 179.743 33.7432 179.896 32.9088L182.362 32.1967C182.348 33.1445 182.051 34.0089 181.471 34.7897C180.888 35.5597 180.057 36.1003 178.979 36.4115C178.108 36.663 177.27 36.6986 176.465 36.5181C175.668 36.3236 174.973 35.9285 174.381 35.3329C173.799 34.7341 173.377 33.9713 173.115 33.0444C172.849 32.1065 172.807 31.2282 172.987 30.4093C173.168 29.5905 173.547 28.8912 174.125 28.3114C174.703 27.7317 175.438 27.3129 176.331 27.0551C177.191 26.8067 178.011 26.7704 178.791 26.9463C179.582 27.119 180.26 27.4954 180.825 28.0755C181.397 28.6416 181.808 29.3662 182.058 30.2495ZM179.505 30.2791C179.327 29.6933 178.982 29.2857 178.47 29.0563C177.954 28.8159 177.397 28.7821 176.798 28.955C176.232 29.1185 175.802 29.4314 175.509 29.8935C175.224 30.3416 175.124 30.8836 175.209 31.5194L179.505 30.2791ZM183.195 30.1337C182.93 29.1959 182.889 28.323 183.072 27.515C183.253 26.6962 183.626 25.9984 184.193 25.4218C184.757 24.8343 185.475 24.4148 186.346 24.1633C187.468 23.8395 188.473 23.8557 189.363 24.2122C190.261 24.5545 190.979 25.1966 191.516 26.1385L189.05 26.8506C188.808 26.4957 188.499 26.2548 188.121 26.1279C187.752 25.987 187.338 25.9825 186.881 26.1145C186.227 26.3032 185.778 26.6924 185.533 27.2823C185.284 27.8612 185.284 28.5869 185.531 29.4593C185.774 30.3208 186.155 30.9364 186.672 31.3062C187.186 31.6651 187.769 31.7502 188.422 31.5616C189.348 31.2943 189.835 30.7054 189.883 29.7949L192.35 29.0828C192.377 30.1366 192.102 31.0593 191.525 31.8511C190.949 32.6428 190.105 33.199 188.994 33.5197C188.123 33.7713 187.296 33.8036 186.513 33.6169C185.727 33.4192 185.044 33.0265 184.466 32.4386C183.884 31.8398 183.46 31.0715 183.195 30.1337ZM200.868 20.1295L203.433 29.1915L201.13 29.8564L200.806 28.7114C200.623 29.1889 200.324 29.6113 199.91 29.9786C199.503 30.3319 199.023 30.5887 198.467 30.7491C197.759 30.9534 197.092 30.987 196.464 30.8498C195.833 30.7016 195.278 30.3842 194.799 29.8974C194.327 29.3966 193.977 28.7427 193.749 27.9357L192.244 22.6195L194.531 21.9593L195.943 26.9483C196.146 27.668 196.483 28.1723 196.954 28.4611C197.421 28.739 197.965 28.7884 198.586 28.6092C199.217 28.4268 199.659 28.093 199.91 27.6075C200.158 27.1112 200.181 26.5032 199.977 25.7834L198.565 20.7944L200.868 20.1295ZM206.319 20.5904L207.559 24.9742C207.646 25.2796 207.78 25.4827 207.961 25.5836C208.151 25.6704 208.42 25.6635 208.768 25.5629L209.83 25.2564L210.376 27.1866L208.939 27.6016C207.012 28.1581 205.783 27.4985 205.252 25.6228L204.016 21.2554L202.938 21.5666L202.405 19.6855L203.483 19.3743L202.849 17.1333L205.152 16.4684L205.786 18.7093L207.811 18.1245L208.344 20.0057L206.319 20.5904ZM216.08 25.6988C215.209 25.9503 214.371 25.9858 213.566 25.8054C212.758 25.614 212.053 25.2221 211.449 24.6296C210.857 24.0339 210.429 23.2727 210.167 22.3457C209.904 21.4188 209.874 20.5428 210.077 19.7176C210.29 18.8893 210.696 18.1822 211.296 17.5961C211.893 16.9992 212.626 16.575 213.498 16.3235C214.369 16.0719 215.214 16.0403 216.032 16.2285C216.848 16.4058 217.558 16.7907 218.161 17.3832C218.776 17.9726 219.214 18.7307 219.476 19.6576C219.739 20.5845 219.758 21.4637 219.534 22.2952C219.321 23.1234 218.91 23.8376 218.303 24.4377C217.703 25.0238 216.962 25.4441 216.08 25.6988ZM215.516 23.7032C215.929 23.5837 216.288 23.3739 216.592 23.0739C216.903 22.7598 217.111 22.3696 217.215 21.9032C217.318 21.4368 217.288 20.9147 217.125 20.3367C216.881 19.4752 216.465 18.8815 215.878 18.5555C215.299 18.2155 214.683 18.1398 214.03 18.3285C213.376 18.5171 212.893 18.9104 212.579 19.5082C212.273 20.0919 212.242 20.8146 212.486 21.6761C212.73 22.5376 213.13 23.1414 213.688 23.4877C214.253 23.82 214.862 23.8918 215.516 23.7032ZM222.556 15.3888C222.714 14.8241 222.989 14.3378 223.38 13.93C223.782 13.5191 224.288 13.2255 224.897 13.0495L225.578 15.454L224.974 15.6285C224.255 15.836 223.758 16.1622 223.484 16.6072C223.22 17.049 223.207 17.6897 223.445 18.5294L224.723 23.0441L222.436 23.7043L219.871 14.6423L222.158 13.9821L222.556 15.3888Z" fill="black"/>
</svg>
